<?xml version="1.0" standalone="no"?> <!DOCTYPE svg PUBLIC "-//W3C//DTD SVG 1.0//EN" "http://www.w3.org/TR/2001/REC-SVG-20010904/DTD/svg10.dtd" > <svg xmlns="http://www.w3.org/2000/svg" width="100%" height="100%">
<defs >
<font id="AudiTypeScreen-Light" horiz-adv-x="2475" ><font-face
    font-family="Audi Type Screen Light"
    units-per-em="4096"
    panose-1="2 11 3 3 4 2 2 2 2 3"
    ascent="4014"
    descent="-983"
    alphabetic="0" />
<missing-glyph horiz-adv-x="3543" d="M3133 -590H410V3654H3133V-590ZM659 -369H2884V3432H659V-369ZM1520 766L1495 1253L1880 1647Q2027 1798 2110 1921T2227 2148T2261 2359Q2261 2483 2210 2579T2046 2732T1753 2789Q1570 2789 1417 2749T1077 2621V2839Q1238
2919 1410 2962T1769 3006Q2012 3006 2182 2931T2439 2715T2527 2384Q2527 2233 2485 2104T2359 1855T2138 1597L1753 1217L1733 766H1520ZM1462 0V377H1790V0H1462Z" />
<glyph unicode="&#xd;" glyph-name="CR" horiz-adv-x="1057" />
<glyph unicode=" " glyph-name="space" horiz-adv-x="1057" />
<glyph unicode="!" glyph-name="exclam" horiz-adv-x="1360" d="M590 766L565 1221Q545 1579 545 2134V2966H815V2134Q815 1579 795 1221L770 766H590ZM516 0V377H844V0H516Z" />
<glyph unicode="&quot;" glyph-name="quotedbl" horiz-adv-x="1610" d="M410 2032L381 2183Q352 2343 352 2499V2966H610V2499Q610 2337 582 2183L553 2032H410ZM1057 2032L1028 2183Q999 2343 999 2499V2966H1257V2499Q1257 2337 1229 2183L1200 2032H1057Z" />
<glyph unicode="#" glyph-name="numbersign" horiz-adv-x="2728" d="M1556 188L1630 909H995L922 188H696L770 909H385V1106H786L864 1905H385V2101H885L946 2712H1171L1110 2101H1745L1806 2712H2032L1970 2101H2343V1905H1950L1872 1106H2343V909H1855L1782
188H1556ZM1724 1905H1090L1012 1106H1647L1724 1905Z" />
<glyph unicode="$" glyph-name="dollar" horiz-adv-x="2646" d="M1143 -295V82Q936 88 736 136T393 254V487Q558 407 796 353T1262 299Q1521 299 1685 364T1924 545T1999 815Q1999 987 1921 1092T1699 1261T1311 1384Q1015 1458 826 1548T527 1791T418 2183Q418
2377 514 2529T791 2772T1217 2879V3260H1454V2884Q1623 2877 1801 2832T2105 2720V2494Q1944 2572 1750 2619T1364 2666Q1134 2666 981 2608T754 2444T680 2195Q680 2024 758 1919T979 1753T1368 1630Q1661 1557 1852 1466T2152 1220T2261 827Q2261 615 2153 452T1845
194T1380 82V-295H1143Z" />
<glyph unicode="%" glyph-name="percent" horiz-adv-x="3822" d="M991 1556Q761 1556 611 1648T390 1902T319 2281Q319 2494 391 2657T614 2913T991 3006Q1221 3006 1371 2914T1592 2660T1663 2281Q1663 2068 1591 1905T1368 1649T991 1556ZM991 1761Q1134 1761
1227 1826T1365 2008T1409 2281Q1409 2437 1364 2554T1226 2736T991 2802Q848 2802 755 2737T617 2555T573 2281Q573 2125 618 2009T756 1827T991 1761ZM2830 -41Q2600 -41 2450 51T2230 305T2159 684Q2159 897 2231 1060T2453 1316T2830 1409Q3060 1409 3210 1317T3431
1063T3502 684Q3502 471 3430 308T3207 52T2830 -41ZM2830 164Q2973 164 3066 229T3204 411T3248 684Q3248 840 3203 956T3065 1138T2830 1204Q2687 1204 2594 1139T2457 957T2413 684Q2413 528 2458 412T2596 230T2830 164ZM786 0L2748 2966H3035L1073 0H786Z"
/>
<glyph unicode="&amp;" glyph-name="ampersand" horiz-adv-x="3301" d="M2740 0L2339 369Q2138 177 1870 68T1274 -41Q957 -41 727 54T376 323T254 733Q254 932 328 1082T561 1357T983 1606Q801 1773 704 1895T570 2122T532 2351Q532 2538 625 2686T898 2920T1331
3006Q1599 3006 1776 2918T2035 2689T2118 2384Q2118 2209 2032 2064T1791 1799T1409 1565L2322 725Q2418 873 2470 1071T2523 1483V1700H3138V1483H2781Q2775 1208 2706 978T2503 561L3117 0H2740ZM1159 1446Q922 1331 788 1234T589 1020T524 741Q524 588 613
460T876 256T1290 180Q1555 180 1779 270T2167 524L1159 1446ZM1233 1724Q1449 1830 1584 1933T1783 2141T1847 2363Q1847 2463 1791 2560T1618 2721T1327 2785Q1167 2785 1048 2730T866 2578T803 2359Q803 2258 837 2176T962 1991T1233 1724Z" />
<glyph unicode="&apos;" glyph-name="quotesingle" horiz-adv-x="963" d="M410 2032L381 2183Q352 2343 352 2499V2966H610V2499Q610 2337 582 2183L553 2032H410Z" />
<glyph unicode="(" glyph-name="parenleft" horiz-adv-x="1495" d="M1061 -381Q844 -144 694 140T466 734T389 1360Q389 1678 466 1988T692 2583T1057 3105H1315Q1095 2863 946 2577T722 1984T647 1364Q647 1049 722 741T947 147T1319 -381H1061Z" />
<glyph unicode=")" glyph-name="parenright" horiz-adv-x="1495" d="M180 -381Q400 -139 549 146T773 739T848 1360Q848 1674 773 1982T548 2577T176 3105H434Q651 2868 801 2584T1029 1990T1106 1364Q1106 1046 1029 736T803 141T438 -381H180Z" />
<glyph unicode="*" glyph-name="asterisk" horiz-adv-x="1868" d="M1176 1741L1024 2007Q967 2105 934 2228Q898 2099 844 2007L692 1741L500 1843L655 2114Q705 2201 803 2306Q650 2273 565 2273H246V2490H565Q647 2490 803 2458Q705 2563 655 2650L500 2920L692
3023L844 2757Q898 2662 934 2535Q967 2657 1024 2757L1176 3023L1368 2920L1212 2650Q1164 2564 1065 2458Q1221 2490 1303 2490H1622V2273H1303Q1226 2273 1065 2306Q1164 2200 1212 2114L1368 1843L1176 1741Z" />
<glyph unicode="+" glyph-name="plus" horiz-adv-x="2458" d="M1114 193V1122H233V1323H1114V2224H1343V1323H2224V1122H1343V193H1114Z" />
<glyph unicode="," glyph-name="comma" horiz-adv-x="1274" d="M205 -590L516 0L455 377H651Q738 377 782 329T827 193Q827 66 771 -58T545 -426L430 -590H205Z" />
<glyph unicode="-" glyph-name="hyphen" horiz-adv-x="1565" d="M246 1098V1343H1319V1098H246Z" />
<glyph unicode="." glyph-name="period" horiz-adv-x="1245" d="M459 0V377H786V0H459Z" />
<glyph unicode="/" glyph-name="slash" horiz-adv-x="1864" d="M102 0L1499 3080H1761L365 0H102Z" />
<glyph unicode="0" glyph-name="zero" horiz-adv-x="2646" d="M1319 -41Q952 -41 716 145T369 670T258 1479Q258 1945 372 2286T725 2817T1327 3006Q1694 3006 1930 2820T2277 2296T2388 1487Q2388 1021 2274 679T1921 148T1319 -41ZM1323 180Q1597 180 1774 336T2034
783T2118 1483Q2118 1892 2035 2182T1774 2628T1323 2785Q1049 2785 872 2629T612 2182T528 1483Q528 1074 611 784T872 337T1323 180Z" />
<glyph unicode="1" glyph-name="one" horiz-adv-x="2646" d="M1389 0V2740L610 2540V2761L1413 2966H1647V0H1389Z" />
<glyph unicode="2" glyph-name="two" horiz-adv-x="2646" d="M332 0V221L1155 1040Q1411 1297 1565 1487T1798 1848T1876 2187Q1876 2368 1803 2502T1580 2710T1204 2785Q1001 2785 803 2740T430 2617V2847Q593 2920 796 2963T1217 3006Q1529 3006 1736 2910T2045
2633T2146 2195Q2146 1972 2047 1764T1775 1354T1323 885L635 221H2265V0H332Z" />
<glyph unicode="3" glyph-name="three" horiz-adv-x="2646" d="M336 340Q510 264 692 222T1106 180Q1375 180 1549 262T1803 487T1884 819Q1884 1014 1805 1148T1551 1353T1094 1425H852V1642H1081Q1289 1642 1438 1710T1666 1906T1745 2212Q1745 2376 1670 2506T1449
2710T1098 2785Q926 2785 744 2739T418 2617V2843Q560 2920 740 2963T1106 3006Q1385 3006 1590 2912T1905 2641T2015 2220Q2015 1988 1907 1820T1593 1569Q1883 1492 2018 1297T2154 823Q2154 564 2039 370T1687 67T1102 -41Q866 -41 674 -1T336 111V340Z" />
<glyph unicode="4" glyph-name="four" horiz-adv-x="2646" d="M1700 0V705H127V926L1667 2966H1958V926H2474V705H1958V0H1700ZM1700 2347Q1700 2477 1708 2675Q1611 2530 1507 2392L401 926H1700V2347Z" />
<glyph unicode="5" glyph-name="five" horiz-adv-x="2646" d="M381 344Q562 273 779 227T1229 180Q1494 180 1662 260T1908 490T1987 856Q1987 1075 1860 1214T1521 1426T1065 1526T512 1561L565 2966H2126V2744H795L758 1774Q1033 1765 1286 1723T1760 1582T2119
1303T2257 856Q2257 589 2145 388T1801 73T1221 -41Q982 -41 766 3T381 119V344Z" />
<glyph unicode="6" glyph-name="six" horiz-adv-x="2646" d="M2253 2703Q2096 2741 1948 2763T1651 2785Q1313 2785 1085 2651T733 2244T586 1556Q757 1683 973 1763T1430 1843Q1750 1843 1969 1726T2298 1396T2408 901Q2408 651 2298 437T1963 91T1409 -41Q1051
-41 806 116T436 582T311 1348Q311 1888 457 2256T901 2815T1655 3006Q1810 3006 1967 2984T2253 2925V2703ZM582 1323Q588 912 691 659T976 293T1413 180Q1636 180 1799 267T2050 517T2138 897Q2138 1119 2059 1281T1819 1533T1421 1622Q1201 1622 983 1544T582
1323Z" />
<glyph unicode="7" glyph-name="seven" horiz-adv-x="2646" d="M569 0L2028 2736H336V2966H2310V2736L864 0H569Z" />
<glyph unicode="8" glyph-name="eight" horiz-adv-x="2646" d="M1786 1552Q2067 1467 2221 1272T2376 811Q2376 561 2264 370T1914 69T1319 -41Q958 -41 723 67T379 364T270 795Q270 1066 425 1260T860 1552Q628 1649 507 1823T385 2220Q385 2463 492 2639T812
2911T1331 3006Q1641 3006 1850 2914T2162 2651T2265 2241Q2265 2008 2143 1833T1786 1552ZM2105 803Q2105 977 2020 1119T1760 1345T1327 1430Q1069 1430 892 1346T628 1119T541 803Q541 614 625 475T884 258T1323 180Q1588 180 1763 258T2021 476T2105 803ZM1995
2232Q1995 2409 1915 2533T1683 2721T1323 2785Q1113 2785 963 2721T734 2532T655 2232Q655 2061 734 1930T964 1725T1327 1651Q1486 1651 1611 1692T1821 1810T1951 1994T1995 2232Z" />
<glyph unicode="9" glyph-name="nine" horiz-adv-x="2646" d="M393 262Q550 224 698 202T995 180Q1337 180 1569 318T1925 745T2064 1483Q1894 1353 1674 1271T1221 1188Q901 1188 680 1304T348 1624T238 2089Q238 2330 350 2539T688 2877T1237 3006Q1595 3006
1840 2849T2210 2383T2335 1618Q2335 1078 2189 709T1745 150T991 -41Q837 -41 680 -18T393 41V262ZM2064 1712Q2050 2092 1947 2330T1664 2676T1233 2785Q1013 2785 849 2698T597 2454T508 2093Q508 1892 588 1738T830 1497T1229 1409Q1440 1409 1661 1489T2064
1712Z" />
<glyph unicode=":" glyph-name="colon" horiz-adv-x="1274" d="M459 1724V2101H786V1724H459ZM459 0V377H786V0H459Z" />
<glyph unicode=";" glyph-name="semicolon" horiz-adv-x="1274" d="M459 1724V2101H786V1724H459ZM205 -590L516 0L455 377H651Q738 377 782 329T827 193Q827 66 771 -58T545 -426L430 -590H205Z" />
<glyph unicode="&lt;" glyph-name="less" horiz-adv-x="2458" d="M1729 180L360 1212L1729 2245H2097L725 1212L2097 180H1729Z" />
<glyph unicode="=" glyph-name="equal" horiz-adv-x="2458" d="M295 717V918H2163V717H295ZM295 1532V1733H2163V1532H295Z" />
<glyph unicode="&gt;" glyph-name="greater" horiz-adv-x="2458" d="M729 180H360L1733 1212L360 2245H729L2097 1212L729 180Z" />
<glyph unicode="?" glyph-name="question" horiz-adv-x="2085" d="M717 766L688 1266L1061 1618Q1287 1830 1405 2008T1524 2372Q1524 2486 1463 2581T1278 2732T975 2789Q787 2789 612 2747T258 2621V2839Q414 2917 607 2961T991 3006Q1234 3006 1414 2931T1692
2720T1790 2404Q1790 2163 1674 1967T1315 1548L922 1184L897 766H717ZM647 0V377H975V0H647Z" />
<glyph unicode="@" glyph-name="at" horiz-adv-x="4276" d="M1855 131Q1647 131 1490 214T1246 460T1159 856Q1159 1159 1290 1437T1672 1889T2265 2064Q2408 2064 2545 2026T2777 1917L2830 2023H3027L2707 614Q2678 484 2720 414T2908 344Q3093 344 3291 468T3627
857T3764 1516Q3764 1850 3609 2141T3135 2613T2351 2793Q1791 2793 1374 2548T732 1869T508 881Q508 417 687 83T1227 -430T2122 -610Q2297 -610 2468 -589T2789 -524V-729Q2633 -773 2459 -796T2097 -819Q1489 -819 1083 -606T480 -17T283 856Q283 1486 538 1973T1265
2731T2363 3002Q2903 3002 3269 2789T3813 2240T3990 1532Q3990 1055 3818 739T3393 277T2896 131Q2714 131 2603 198T2466 377Q2366 267 2200 199T1855 131ZM1872 344Q2060 344 2196 414T2454 614L2707 1737Q2620 1790 2514 1820T2277 1851Q2011 1851 1817 1715T1522
1353T1421 868Q1421 688 1478 571T1636 399T1872 344Z" />
<glyph unicode="A" glyph-name="A" horiz-adv-x="2720" d="M2343 0L2036 836H668L360 0H90L1212 2966H1511L2630 0H2343ZM1442 2462Q1390 2604 1356 2720Q1314 2581 1270 2462L750 1053H1958L1442 2462Z" />
<glyph unicode="B" glyph-name="B" horiz-adv-x="2654" d="M451 0V2966H1253Q1570 2966 1789 2876T2122 2611T2236 2183Q2236 2027 2187 1898T2046 1678T1827 1544Q2013 1496 2135 1391T2317 1136T2376 807Q2376 557 2264 377T1921 98T1348 0H451ZM1356 221Q1616
221 1782 291T2027 491T2105 807Q2105 993 2026 1123T1779 1323T1352 1393H709V221H1356ZM1225 1610Q1481 1610 1646 1678T1888 1872T1966 2175Q1966 2352 1889 2479T1645 2675T1217 2744H709V1610H1225Z" />
<glyph unicode="C" glyph-name="C" horiz-adv-x="2519" d="M2298 119Q2143 53 1929 6T1507 -41Q1100 -41 829 143T427 668T295 1479Q295 1949 431 2291T841 2820T1516 3006Q1715 3006 1920 2961T2257 2847V2617Q2079 2697 1891 2741T1511 2785Q1196 2785 985 2632T669
2188T565 1483Q565 1076 667 785T982 337T1516 180Q1717 180 1920 222T2298 336V119Z" />
<glyph unicode="D" glyph-name="D" horiz-adv-x="2900" d="M451 0V2966H1311Q1768 2966 2056 2780T2474 2264T2605 1487Q2605 1037 2471 706T2040 188T1270 0H451ZM1282 221Q1653 221 1886 370T2227 797T2335 1479Q2335 1886 2230 2165T1890 2594T1270 2744H709V221H1282Z"
/>
<glyph unicode="E" glyph-name="E" horiz-adv-x="2462" d="M451 0V2966H2273V2744H709V1626H2052V1409H709V221H2273V0H451Z" />
<glyph unicode="F" glyph-name="F" horiz-adv-x="2318" d="M451 0V2966H2163V2744H709V1561H2056V1339H709V0H451Z" />
<glyph unicode="G" glyph-name="G" horiz-adv-x="2908" d="M1516 -41Q1096 -41 824 149T423 678T295 1479Q295 1967 443 2309T881 2828T1585 3006Q1778 3006 2000 2964T2380 2851V2634Q2193 2704 1977 2744T1569 2785Q1238 2785 1015 2641T678 2207T565 1483Q565
1085 664 794T976 342T1524 180Q1885 180 2241 307V1380H1454V1597H2499V180Q2008 -41 1516 -41Z" />
<glyph unicode="H" glyph-name="H" horiz-adv-x="3047" d="M2339 0V1409H709V0H451V2966H709V1630H2339V2966H2597V0H2339Z" />
<glyph unicode="I" glyph-name="I" horiz-adv-x="1159" d="M451 0V2966H709V0H451Z" />
<glyph unicode="J" glyph-name="J" horiz-adv-x="1421" d="M4 -291Q86 -307 176 -307Q350 -307 468 -236T650 -6T713 410V2744H250V2966H971V426Q971 90 872 -122T597 -431T184 -528Q79 -528 4 -508V-291Z" />
<glyph unicode="K" glyph-name="K" horiz-adv-x="2666" d="M2220 0L709 1421V0H451V2966H709V1577L2208 2966H2556L1208 1720L963 1520L1171 1335L2601 0H2220Z" />
<glyph unicode="L" glyph-name="L" horiz-adv-x="2146" d="M451 0V2966H709V221H2064V0H451Z" />
<glyph unicode="M" glyph-name="M" horiz-adv-x="3617" d="M451 2966H766L1692 1434Q1770 1307 1819 1196Q1865 1304 1946 1434L2871 2966H3166V0H2908V2302Q2908 2472 2920 2638Q2855 2484 2761 2331L1901 905H1716L856 2331Q759 2489 696 2638Q709 2478 709
2302V0H451V2966Z" />
<glyph unicode="N" glyph-name="N" horiz-adv-x="3129" d="M2400 0L958 2171Q793 2426 692 2638Q709 2434 709 2150V0H451V2966H733L2171 803Q2336 548 2437 336Q2421 544 2421 823V2966H2679V0H2400Z" />
<glyph unicode="O" glyph-name="O" horiz-adv-x="2994" d="M1491 -41Q1081 -41 814 152T421 686T295 1479Q295 1927 424 2270T824 2810T1503 3006Q1913 3006 2180 2813T2573 2279T2699 1487Q2699 1038 2570 695T2170 155T1491 -41ZM1499 180Q1817 180 2024 344T2330
800T2429 1483Q2429 1874 2331 2165T2024 2621T1495 2785Q1177 2785 970 2621T664 2166T565 1483Q565 1092 663 800T970 344T1499 180Z" />
<glyph unicode="P" glyph-name="P" horiz-adv-x="2486" d="M451 0V2966H1352Q1678 2966 1896 2856T2220 2546T2327 2073Q2327 1818 2225 1617T1900 1296T1331 1176H709V0H451ZM1343 1397Q1587 1397 1746 1481T1981 1716T2056 2068Q2056 2276 1980 2426T1740 2660T1319
2744H709V1397H1343Z" />
<glyph unicode="Q" glyph-name="Q" horiz-adv-x="2994" d="M2331 -516Q2304 -516 2286 -508T2249 -479L1774 -12Q1643 -41 1491 -41Q1081 -41 814 152T421 686T295 1479Q295 1927 424 2270T824 2810T1503 3006Q1913 3006 2180 2813T2573 2279T2699 1487Q2699 1140
2623 858T2394 374T2015 66Q2108 6 2167 -53L2642 -516H2331ZM1499 180Q1817 180 2024 344T2330 800T2429 1483Q2429 1874 2331 2165T2024 2621T1495 2785Q1177 2785 970 2621T664 2166T565 1483Q565 1092 663 800T970 344T1499 180Z" />
<glyph unicode="R" glyph-name="R" horiz-adv-x="2724" d="M2208 0L1491 1032Q1396 1168 1308 1225T1090 1282H709V0H451V2966H1294Q1629 2966 1851 2862T2179 2570T2286 2126Q2286 1886 2193 1712T1932 1437T1544 1311Q1600 1279 1662 1214T1786 1061L2527 0H2208ZM1294
1499Q1517 1499 1678 1565T1927 1771T2015 2122Q2015 2310 1939 2449T1701 2666T1286 2744H709V1499H1294Z" />
<glyph unicode="S" glyph-name="S" horiz-adv-x="2400" d="M254 389Q424 301 667 241T1139 180Q1404 180 1572 253T1816 456T1892 758Q1892 947 1812 1063T1586 1249T1188 1384Q889 1462 695 1560T390 1823T279 2245Q279 2462 385 2634T708 2906T1241 3006Q1441
3006 1644 2957T1995 2826V2593Q1830 2680 1632 2732T1237 2785Q1004 2785 848 2719T617 2535T541 2257Q541 2068 621 1952T847 1766T1245 1630Q1543 1552 1737 1455T2043 1192T2154 770Q2154 533 2037 350T1688 63T1130 -41Q871 -41 646 10T254 152V389Z" />
<glyph unicode="T" glyph-name="T" horiz-adv-x="2454" d="M1098 0V2744H127V2966H2327V2744H1356V0H1098Z" />
<glyph unicode="U" glyph-name="U" horiz-adv-x="2916" d="M2241 2966H2499V967Q2499 613 2374 389T2017 62T1454 -41Q1119 -41 890 60T539 380T418 942V2966H676V967Q676 569 868 375T1462 180Q1857 180 2049 372T2241 954V2966Z" />
<glyph unicode="V" glyph-name="V" horiz-adv-x="2679" d="M1188 0L82 2966H369L1257 504Q1309 362 1343 246Q1381 369 1430 504L2327 2966H2597L1487 0H1188Z" />
<glyph unicode="W" glyph-name="W" horiz-adv-x="4407" d="M3047 0L2277 2290Q2217 2472 2187 2621Q2151 2439 2101 2290L1364 0H1085L90 2966H369L1122 676Q1196 456 1233 307Q1278 494 1339 676L2077 2966H2327L3080 676Q3154 456 3191 307Q3236 494 3297 676L4051
2966H4317L3322 0H3047Z" />
<glyph unicode="X" glyph-name="X" horiz-adv-x="2499" d="M2105 0L1397 1090Q1313 1216 1249 1327Q1225 1288 1094 1085L377 0H82L1094 1520L139 2966H451L1102 1970Q1211 1805 1253 1724Q1297 1806 1405 1970L2060 2966H2355L1405 1536L2417 0H2105Z" />
<glyph unicode="Y" glyph-name="Y" horiz-adv-x="2441" d="M1090 0V1176L49 2966H348L1110 1634Q1189 1498 1229 1417Q1269 1498 1348 1634L2109 2966H2392L1348 1167V0H1090Z" />
<glyph unicode="Z" glyph-name="Z" horiz-adv-x="2507" d="M176 0V221L1966 2744H221V2966H2269V2744L479 221H2331V0H176Z" />
<glyph unicode="[" glyph-name="bracketleft" horiz-adv-x="1495" d="M512 -381V3105H1262V2900H758V-176H1262V-381H512Z" />
<glyph unicode="\" glyph-name="backslash" horiz-adv-x="1864" d="M1499 0L102 3080H365L1761 0H1499Z" />
<glyph unicode="]" glyph-name="bracketright" horiz-adv-x="1495" d="M233 -381V-176H737V2900H233V3105H983V-381H233Z" />
<glyph unicode="^" glyph-name="asciicircum" horiz-adv-x="1819" d="M1438 1794L909 2781L385 1794H143L754 2966H1069L1675 1794H1438Z" />
<glyph unicode="_" glyph-name="underscore" horiz-adv-x="1675" d="M-29 -209V0H1704V-209H-29Z" />
<glyph unicode="`" glyph-name="grave" horiz-adv-x="1790" d="M1044 2454L524 3006H872L1294 2454H1044Z" />
<glyph unicode="a" glyph-name="a" horiz-adv-x="2335" d="M1704 0L1692 201Q1550 92 1369 26T987 -41Q769 -41 607 28T358 226T270 532Q270 747 393 892T769 1113T1405 1188Q1536 1188 1683 1184V1376Q1683 1570 1626 1691T1446 1871T1126 1929Q911 1929 740
1881T418 1761V1974Q570 2050 751 2096T1143 2142Q1379 2142 1554 2073T1831 1845T1933 1430V0H1704ZM1683 979H1405Q1092 979 899 929T617 783T528 541Q528 431 580 348T743 219T1024 172Q1198 172 1365 231T1683 406V979Z" />
<glyph unicode="b" glyph-name="b" horiz-adv-x="2540" d="M418 0V3080H668V1901Q819 2017 983 2079T1327 2142Q1619 2142 1828 2019T2149 1655T2261 1065Q2261 708 2143 460T1813 85T1319 -41Q1133 -41 968 13T659 164L647 0H418ZM668 381Q811 279 969 226T1298
172Q1525 172 1681 270T1918 565T1999 1057Q1999 1346 1919 1540T1684 1831T1303 1929Q1133 1929 980 1869T668 1688V381Z" />
<glyph unicode="c" glyph-name="c" horiz-adv-x="2073" d="M1839 119Q1721 47 1561 3T1217 -41Q919 -41 708 90T388 466T279 1049Q279 1368 385 1614T708 2001T1245 2142Q1398 2142 1546 2109T1798 2023V1798Q1695 1852 1538 1890T1233 1929Q1001 1929 847 1821T617
1518T541 1057Q541 771 620 573T853 274T1225 172Q1391 172 1543 213T1839 332V119Z" />
<glyph unicode="d" glyph-name="d" horiz-adv-x="2540" d="M1892 0L1876 205Q1722 86 1558 23T1212 -41Q921 -41 712 82T391 446T279 1036Q279 1393 397 1641T727 2016T1221 2142Q1406 2142 1571 2089T1872 1942V3080H2122V0H1892ZM1872 1720Q1729 1822 1570 1875T1241
1929Q1015 1929 859 1831T622 1536T541 1044Q541 755 620 561T855 270T1237 172Q1406 172 1559 232T1872 414V1720Z" />
<glyph unicode="e" glyph-name="e" horiz-adv-x="2343" d="M1970 127Q1842 55 1654 7T1229 -41Q900 -41 689 90T378 466T279 1057Q279 1374 384 1619T696 2003T1196 2142Q1480 2142 1677 2014T1974 1661T2073 1151Q2073 1084 2064 1028H541Q547 733 619 546T846
265T1253 172Q1462 172 1615 208T1970 328V127ZM1815 1237Q1806 1447 1731 1603T1519 1844T1192 1929Q1008 1929 867 1844T642 1602T545 1237H1815Z" />
<glyph unicode="f" glyph-name="f" horiz-adv-x="1647" d="M643 0V1892H90V2101H643V2363Q643 2735 827 2928T1364 3121Q1477 3121 1598 3103T1819 3052V2847Q1716 2875 1595 2891T1364 2908Q1091 2908 992 2774T893 2339V2101H1634V1892H893V0H643Z" />
<glyph unicode="g" glyph-name="g" horiz-adv-x="2540" d="M1872 201Q1720 85 1556 22T1212 -41Q921 -41 712 82T391 446T279 1036Q279 1393 397 1641T727 2016T1221 2142Q1407 2142 1572 2088T1880 1937L1892 2101H2122V0Q2122 -311 2011 -523T1682 -842T1143
-950Q936 -950 753 -914T430 -819V-602Q572 -661 753 -699T1143 -737Q1400 -737 1560 -655T1796 -405T1872 25V201ZM1872 1720Q1729 1822 1570 1875T1241 1929Q1015 1929 859 1831T622 1536T541 1044Q541 755 620 561T855 270T1237 172Q1406 172 1559 232T1872
414V1720Z" />
<glyph unicode="h" glyph-name="h" horiz-adv-x="2540" d="M1888 0V1438Q1888 1620 1829 1728T1656 1882T1372 1929Q1171 1929 1000 1870T668 1688V0H418V3080H668V1901Q810 2010 994 2076T1384 2142Q1620 2142 1788 2074T2047 1861T2138 1487V0H1888Z" />
<glyph unicode="i" glyph-name="i" horiz-adv-x="1085" d="M418 0V2101H668V0H418ZM418 2605V2966H668V2605H418Z" />
<glyph unicode="j" glyph-name="j" horiz-adv-x="1085" d="M-197 -721Q-123 -737 -37 -737Q124 -737 224 -660T371 -420T418 0V2101H668V-45Q668 -351 587 -553T353 -852T-16 -950Q-114 -950 -197 -930V-721ZM418 2605V2966H668V2605H418Z" />
<glyph unicode="k" glyph-name="k" horiz-adv-x="2154" d="M1769 0L668 1024V0H418V3080H668V1151L1708 2101H2028L1073 1233Q994 1160 922 1106Q1046 1012 1122 942L2142 0H1769Z" />
<glyph unicode="l" glyph-name="l" horiz-adv-x="1245" d="M1163 29Q991 -20 848 -20Q632 -20 521 82T410 430V3080H659V455Q659 323 703 258T864 193Q1013 193 1163 225V29Z" />
<glyph unicode="m" glyph-name="m" horiz-adv-x="3977" d="M3326 0V1438Q3326 1620 3267 1728T3097 1882T2818 1929Q2685 1929 2566 1903T2334 1821T2105 1675Q2114 1638 2118 1589T2122 1487V0H1872V1438Q1872 1620 1813 1728T1643 1882T1364 1929Q1168 1929
998 1870T668 1688V0H418V2101H647L664 1896Q808 2008 991 2075T1376 2142Q1624 2142 1791 2067T2044 1839Q2218 1989 2417 2065T2830 2142Q3062 2142 3228 2074T3485 1861T3576 1487V0H3326Z" />
<glyph unicode="n" glyph-name="n" horiz-adv-x="2540" d="M1888 0V1438Q1888 1620 1829 1728T1656 1882T1372 1929Q1171 1929 1000 1870T668 1688V0H418V2101H647L664 1896Q808 2008 992 2075T1384 2142Q1620 2142 1788 2074T2047 1861T2138 1487V0H1888Z" />
<glyph unicode="o" glyph-name="o" horiz-adv-x="2494" d="M1245 -41Q919 -41 703 98T383 481T279 1049Q279 1368 385 1614T710 2001T1249 2142Q1575 2142 1791 2004T2112 1620T2216 1053Q2216 733 2110 487T1785 100T1245 -41ZM1245 172Q1489 172 1647 280T1879
584T1954 1053Q1954 1322 1879 1517T1647 1821T1249 1929Q1006 1929 848 1821T616 1517T541 1049Q541 780 616 584T848 280T1245 172Z" />
<glyph unicode="p" glyph-name="p" horiz-adv-x="2540" d="M418 -922V2101H647L664 1896Q818 2015 982 2078T1327 2142Q1619 2142 1828 2019T2149 1655T2261 1065Q2261 708 2143 460T1813 85T1319 -41Q1136 -41 970 12T668 160V-922H418ZM668 381Q811 279 969
226T1298 172Q1525 172 1681 270T1918 565T1999 1057Q1999 1346 1919 1540T1684 1831T1303 1929Q1133 1929 980 1869T668 1688V381Z" />
<glyph unicode="q" glyph-name="q" horiz-adv-x="2548" d="M1872 -922V201Q1720 85 1556 22T1212 -41Q921 -41 712 82T391 446T279 1036Q279 1393 397 1641T727 2016T1221 2142Q1407 2142 1572 2088T1880 1937L1892 2101H2122V-922H1872ZM1872 1720Q1729 1822
1570 1875T1241 1929Q1015 1929 859 1831T622 1536T541 1044Q541 755 620 561T855 270T1237 172Q1406 172 1559 232T1872 414V1720Z" />
<glyph unicode="r" glyph-name="r" horiz-adv-x="1720" d="M418 0V2101H647L664 1782Q728 1882 818 1962T1031 2092T1307 2142Q1400 2142 1476 2126T1614 2085V1847Q1539 1870 1450 1885T1286 1901Q1139 1901 1029 1850T833 1697T668 1438V0H418Z" />
<glyph unicode="s" glyph-name="s" horiz-adv-x="2048" d="M262 319Q397 257 587 215T958 172Q1163 172 1294 218T1487 350T1548 553Q1548 674 1485 747T1313 862T1008 950Q759 1009 605 1078T367 1263T283 1561Q283 1729 364 1859T619 2066T1057 2142Q1222 2142
1385 2106T1667 2007V1794Q1535 1855 1374 1892T1053 1929Q871 1929 755 1886T586 1765T532 1577Q532 1456 595 1383T768 1267T1073 1180Q1322 1121 1476 1052T1714 867T1798 569Q1798 387 1705 250T1422 36T950 -41Q755 -41 575 -3T262 102V319Z" />
<glyph unicode="t" glyph-name="t" horiz-adv-x="1749" d="M1597 49Q1520 12 1393 -14T1135 -41Q951 -41 822 6T617 177T541 520V1892H111V2101H541L553 2724H791V2101H1638V1892H791V549Q791 394 837 312T963 201T1167 172Q1287 172 1396 195T1597 258V49Z" />
<glyph unicode="u" glyph-name="u" horiz-adv-x="2523" d="M1876 0L1860 205Q1715 93 1532 26T1147 -41Q915 -41 749 27T492 240T401 614V2101H651V664Q651 482 710 374T880 219T1159 172Q1355 172 1525 231T1855 414V2101H2105V0H1876Z" />
<glyph unicode="v" glyph-name="v" horiz-adv-x="2044" d="M881 0L61 2101H336L930 524Q996 348 1028 205Q1068 351 1130 520L1712 2101H1982L1159 0H881Z" />
<glyph unicode="w" glyph-name="w" horiz-adv-x="3310" d="M2224 0L1741 1487Q1704 1587 1655 1782Q1628 1679 1569 1487L1085 0H791L78 2101H348L868 500Q896 415 954 205Q976 312 1032 500L1552 2101H1769L2290 500Q2346 312 2367 205Q2433 436 2454 500L2961
2101H3232L2519 0H2224Z" />
<glyph unicode="x" glyph-name="x" horiz-adv-x="2122" d="M1692 0L1065 905L414 0H111L909 1077L152 2101H467L1057 1253L1667 2101H1962L1208 1081L2011 0H1692Z" />
<glyph unicode="y" glyph-name="y" horiz-adv-x="2044" d="M12 -725Q68 -737 156 -737Q318 -737 446 -675T681 -468T877 -78L893 -33L61 2101H336L930 524Q996 348 1028 205Q1068 351 1130 520L1712 2101H1982L1098 -156Q991 -433 859 -608T561 -866T184 -950Q87
-950 12 -930V-725Z" />
<glyph unicode="z" glyph-name="z" horiz-adv-x="2097" d="M225 0V209L1536 1892H270V2101H1827V1896L516 209H1872V0H225Z" />
<glyph unicode="{" glyph-name="braceleft" horiz-adv-x="1638" d="M1176 -381Q985 -381 872 -326T707 -151T655 172V979Q655 1090 624 1151T527 1237T352 1262H233V1466H352Q461 1466 526 1490T623 1576T655 1749V2552Q655 2755 707 2875T872 3050T1176 3105H1405V2900H1176Q1060
2900 1002 2864T922 2750T901 2527V1753Q901 1610 839 1514T647 1368Q775 1324 838 1223T901 979V197Q901 52 922 -26T1001 -140T1176 -176H1405V-381H1176Z" />
<glyph unicode="|" glyph-name="bar" horiz-adv-x="1450" d="M606 -922V3080H844V-922H606Z" />
<glyph unicode="}" glyph-name="braceright" horiz-adv-x="1638" d="M233 -381V-176H463Q579 -176 637 -140T716 -26T737 197V975Q737 1118 799 1214T991 1360Q863 1404 800 1505T737 1749V2527Q737 2672 717 2750T638 2864T463 2900H233V3105H463Q654 3105 767
3050T931 2875T983 2552V1749Q983 1638 1014 1577T1111 1491T1286 1466H1405V1262H1286Q1177 1262 1112 1238T1015 1152T983 979V172Q983 -31 932 -151T767 -326T463 -381H233Z" />
<glyph unicode="~" glyph-name="asciitilde" horiz-adv-x="1749" d="M1634 1462Q1634 1362 1608 1278T1529 1131T1394 1034T1200 999Q1126 999 1063 1018T945 1066T839 1128T740 1190T642 1238T541 1257Q482 1257 443 1241T378 1193T343 1112T332 999H115Q115
1099 141 1184T220 1330T355 1427T549 1462Q623 1462 686 1443T804 1395T910 1333T1009 1271T1107 1223T1208 1204Q1266 1204 1306 1220T1371 1268T1406 1349T1417 1462H1634Z" />
<glyph unicode="&#xa0;" glyph-name="uni00A0" horiz-adv-x="1057" />
<glyph unicode="&#xa1;" glyph-name="exclamdown" horiz-adv-x="1360" d="M545 -864V-33Q545 522 565 881L590 1335H770L795 881Q815 522 815 -33V-864H545ZM516 1724V2101H844V1724H516Z" />
<glyph unicode="&#xa2;" glyph-name="cent" horiz-adv-x="2646" d="M1303 -143V319Q1001 338 780 472T437 860T315 1479Q315 1812 431 2064T769 2465T1303 2638V3109H1540V2642Q1700 2633 1847 2601T2101 2519V2290Q1976 2349 1786 2391T1417 2433Q1136 2433 948
2315T669 1984T578 1487Q578 1177 674 963T956 638T1405 528Q1606 528 1789 572T2150 700V487Q2026 416 1868 374T1540 319V-143H1303Z" />
<glyph unicode="&#xa3;" glyph-name="sterling" horiz-adv-x="2646" d="M393 0V221H438Q549 221 629 278T752 447T795 721V1356H426V1573H795V2114Q795 2446 897 2644T1171 2924T1569 3006Q1704 3006 1835 2983T2089 2916V2695Q1970 2736 1833 2760T1561 2785Q1388
2785 1277 2719T1109 2502T1053 2101V1573H1974V1356H1053V733Q1053 544 994 419T836 221H2339V0H393Z" />
<glyph unicode="&#xa4;" glyph-name="currency" horiz-adv-x="2646" d="M1876 782Q1759 693 1616 646T1323 598Q1173 598 1030 645T770 782L492 483L303 664L610 942Q520 1051 469 1194T418 1495Q418 1652 469 1795T610 2048L303 2327L492 2507L770 2208Q887 2297
1029 2344T1323 2392Q1474 2392 1616 2345T1876 2208L2154 2507L2343 2327L2036 2048Q2126 1939 2177 1796T2228 1495Q2228 1338 2177 1195T2036 942L2343 664L2154 483L1876 782ZM1323 819Q1504 819 1655 910T1894 1157T1982 1495Q1982 1677 1894 1832T1655 2079T1323
2171Q1142 2171 991 2080T752 1833T664 1495Q664 1313 752 1158T991 911T1323 819Z" />
<glyph unicode="&#xa5;" glyph-name="yen" horiz-adv-x="2646" d="M1450 659V0H1192V659H295V877H1192V1233L1139 1327H295V1544H1012L184 2966H483L1212 1692Q1286 1563 1331 1475Q1376 1563 1450 1692L2179 2966H2462L1634 1544H2347V1327H1507L1450 1225V877H2347V659H1450Z"
/>
<glyph unicode="&#xa6;" glyph-name="brokenbar" horiz-adv-x="1450" d="M606 -381V991H844V-381H606ZM606 1733V3105H844V1733H606Z" />
<glyph unicode="&#xa7;" glyph-name="section" horiz-adv-x="2646" d="M1245 -319Q1031 -319 825 -270T471 -139V94Q638 6 838 -46T1253 -98Q1490 -98 1637 -57T1851 58T1917 238Q1917 345 1866 415T1670 552T1229 709Q856 820 667 921T411 1137T344 1425Q344
1603 457 1763T700 2003Q586 2079 525 2179T463 2437Q463 2605 559 2733T853 2933T1343 3006Q1537 3006 1740 2961T2097 2847V2613Q1921 2689 1726 2737T1339 2785Q1126 2785 989 2744T789 2628T725 2449Q725 2342 776 2272T972 2134T1413 1978Q1786 1867 1975
1766T2231 1550T2298 1262Q2298 1084 2185 924T1942 684Q2060 606 2119 504T2179 250Q2179 81 2080 -47T1772 -247T1245 -319ZM2036 1253Q2036 1371 1983 1445T1787 1586T1348 1741Q1183 1791 1071 1830T893 1901Q757 1797 682 1669T606 1434Q606 1316 659 1242T855
1101T1294 946Q1448 900 1560 861T1749 786Q1885 890 1960 1018T2036 1253Z" />
<glyph unicode="&#xa8;" glyph-name="dieresis" horiz-adv-x="1790" d="M356 2605V2966H606V2605H356ZM1176 2605V2966H1425V2605H1176Z" />
<glyph unicode="&#xa9;" glyph-name="copyright" horiz-adv-x="3564" d="M2281 737Q2184 680 2057 645T1782 610Q1541 610 1372 712T1116 1009T1028 1483Q1028 1739 1112 1935T1371 2243T1806 2355Q1928 2355 2046 2329T2249 2261V2044Q2172 2084 2052 2113T1819
2142Q1641 2142 1523 2060T1348 1831T1290 1487Q1290 1273 1351 1125T1528 900T1810 823Q1939 823 2056 853T2281 942V737ZM1790 3006Q2247 3006 2580 2810T3089 2269T3265 1483Q3265 1049 3085 703T2566 158T1774 -41Q1317 -41 984 155T475 696T299 1483Q299 1917
479 2263T998 2807T1790 3006ZM1778 2798Q1389 2798 1106 2631T673 2166T524 1483Q524 1098 673 800T1108 335T1786 168Q2175 168 2458 335T2890 800T3039 1483Q3039 1868 2890 2166T2456 2631T1778 2798Z" />
<glyph unicode="&#xaa;" glyph-name="ordfeminine" horiz-adv-x="2036" d="M1491 1286L1479 1446Q1365 1361 1221 1312T918 1262Q724 1262 587 1315T379 1469T307 1716Q307 1888 410 2005T726 2184T1262 2245H1470V2388Q1470 2531 1424 2618T1278 2747T1016 2789Q840
2789 694 2751T430 2658V2855Q553 2915 702 2952T1028 2990Q1228 2990 1376 2934T1610 2749T1696 2408V1286H1491ZM307 565V762H1708V565H307ZM1470 2052H1241Q993 2052 839 2014T615 1904T545 1724Q545 1595 641 1527T922 1458Q1071 1458 1206 1507T1470 1647V2052Z"
/>
<glyph unicode="&#xab;" glyph-name="guillemotleft" horiz-adv-x="2310" d="M983 467L295 1229L983 1991H1253L606 1229L1253 467H983ZM1745 467L1057 1229L1745 1991H2015L1368 1229L2015 467H1745Z" />
<glyph unicode="&#xac;" glyph-name="logicalnot" horiz-adv-x="2458" d="M1958 532V1122H233V1323H2179V532H1958Z" />
<glyph unicode="&#xad;" glyph-name="uni00AD" horiz-adv-x="1565" d="M246 1098V1343H1319V1098H246Z" />
<glyph unicode="&#xae;" glyph-name="registered" horiz-adv-x="2761" d="M2486 2028Q2486 1732 2336 1481T1931 1082T1380 934Q1084 934 830 1081T425 1480T274 2028Q274 2323 424 2574T829 2973T1380 3121Q1669 3121 1924 2973T2332 2574T2486 2028ZM1380 1098Q1631
1098 1842 1223T2175 1562T2298 2028Q2298 2280 2176 2493T1843 2832T1380 2957Q1129 2957 919 2832T586 2494T463 2028Q463 1776 585 1563T918 1224T1380 1098ZM1688 1434L1438 1823Q1397 1885 1374 1901T1298 1917H1143V1434H938V2634H1384Q1520 2634 1623 2598T1784
2484T1843 2290Q1843 2190 1804 2119T1701 2009T1561 1958Q1612 1929 1659 1855L1937 1434H1688ZM1364 2081Q1451 2081 1510 2101T1602 2168T1634 2290Q1634 2380 1571 2425T1372 2470H1143V2081H1364Z" />
<glyph unicode="&#xaf;" glyph-name="macron" horiz-adv-x="1790" d="M348 2605V2810H1442V2605H348Z" />
<glyph unicode="&#xb0;" glyph-name="degree" horiz-adv-x="1720" d="M1536 2343Q1536 2162 1448 2013T1206 1778T860 1692Q669 1692 515 1778T272 2013T184 2343Q184 2523 272 2672T514 2907T860 2994Q1051 2994 1205 2908T1448 2672T1536 2343ZM860 1901Q989
1901 1088 1960T1240 2120T1294 2343Q1294 2464 1241 2565T1088 2726T860 2785Q731 2785 632 2726T480 2566T426 2343Q426 2222 479 2121T632 1960T860 1901Z" />
<glyph unicode="&#xb1;" glyph-name="plusminus" horiz-adv-x="2458" d="M1343 1389V528H1114V1389H287V1589H1114V2429H1343V1589H2171V1389H1343ZM287 0V201H2171V0H287Z" />
<glyph unicode="&#xb2;" glyph-name="twosuperior" horiz-adv-x="1630" d="M217 1478V1670L651 2030Q802 2156 896 2257T1035 2448T1081 2625Q1081 2713 1045 2777T932 2877T737 2912Q621 2912 500 2889T274 2822V3018Q375 3057 495 3080T737 3104Q935 3104 1064
3046T1254 2882T1315 2633Q1315 2487 1244 2361T1061 2130T762 1879L496 1670H1384V1478H217Z" />
<glyph unicode="&#xb3;" glyph-name="threesuperior" horiz-adv-x="1630" d="M238 1736Q327 1698 458 1672T729 1646Q853 1646 938 1680T1067 1776T1110 1921Q1110 2053 1004 2132T684 2212H516V2404H684Q863 2404 958 2472T1053 2670Q1053 2748 1012 2802T895
2884T717 2912Q617 2912 500 2888T279 2822V3018Q379 3057 497 3080T725 3104Q909 3104 1034 3056T1222 2915T1286 2686Q1286 2565 1222 2472T1040 2326Q1188 2275 1265 2169T1343 1925Q1343 1784 1273 1678T1064 1513T729 1454Q587 1454 458 1480T238 1548V1736Z"
/>
<glyph unicode="&#xb4;" glyph-name="acute" horiz-adv-x="1790" d="M508 2454L930 3006H1278L758 2454H508Z" />
<glyph unicode="&#xb5;" glyph-name="mu" horiz-adv-x="2580" d="M2249 -33Q2125 -33 2028 31T1896 209Q1743 95 1554 27T1163 -41Q1000 -41 875 -5T651 115Q668 -51 668 -250V-922H418V2101H668V664Q668 482 727 374T897 219T1176 172Q1372 172 1542 231T1872
414V2101H2122V422Q2122 291 2162 236T2286 180Q2390 180 2499 205V12Q2387 -33 2249 -33Z" />
<glyph unicode="&#xb6;" glyph-name="paragraph" horiz-adv-x="3006" d="M2298 -922V2757H1671V-922H1413V1130H1360Q961 1130 699 1246T313 1568T188 2048Q188 2323 311 2528T696 2850T1364 2966H2556V-922H2298Z" />
<glyph unicode="&#xb7;" glyph-name="periodcentered" horiz-adv-x="1245" d="M459 1044V1421H786V1044H459Z" />
<glyph unicode="&#xb8;" glyph-name="cedilla" horiz-adv-x="1790" d="M782 -938Q657 -938 549 -905V-729Q640 -750 770 -750Q822 -750 869 -736T947 -686T979 -586Q979 -519 937 -474T831 -402T680 -356L901 41H1098L938 -246Q1072 -294 1148 -378T1225 -578Q1225
-703 1164 -783T1002 -901T782 -938Z" />
<glyph unicode="&#xb9;" glyph-name="onesuperior" horiz-adv-x="1630" d="M729 1478V2871L360 2781V2977L774 3080H963V1478H729Z" />
<glyph unicode="&#xba;" glyph-name="ordmasculine" horiz-adv-x="2302" d="M1151 1262Q877 1262 699 1371T436 1674T352 2126Q352 2379 437 2573T702 2879T1151 2990Q1425 2990 1603 2881T1866 2578T1950 2126Q1950 1872 1865 1678T1600 1373T1151 1262ZM1151
1463Q1344 1463 1469 1544T1653 1773T1712 2122Q1712 2322 1653 2471T1468 2705T1151 2789Q958 2789 833 2707T649 2478T590 2130Q590 1928 649 1779T834 1546T1151 1463ZM352 565V762H1950V565H352Z" />
<glyph unicode="&#xbb;" glyph-name="guillemotright" horiz-adv-x="2310" d="M295 467L942 1229L295 1991H565L1253 1229L565 467H295ZM1057 467L1704 1229L1057 1991H1327L2015 1229L1327 467H1057Z" />
<glyph unicode="&#xbc;" glyph-name="onequarter" horiz-adv-x="3719" d="M639 -20L2642 2986H2896L893 -20H639ZM729 1364V2757L360 2667V2863L774 2966H963V1364H729ZM3080 0V361H2200V553L3031 1602H3314V553H3588V361H3314V0H3080ZM3080 1364L2441 553H3080V1364Z" />
<glyph unicode="&#xbd;" glyph-name="onehalf" horiz-adv-x="3719" d="M729 1364V2757L360 2667V2863L774 2966H963V1364H729ZM606 -20L2609 2986H2863L860 -20H606ZM2306 0V192L2740 552Q2891 678 2985 779T3124 970T3170 1147Q3170 1235 3134 1299T3021 1399T2826
1434Q2710 1434 2589 1411T2363 1344V1540Q2464 1579 2584 1602T2826 1626Q3024 1626 3153 1568T3343 1404T3404 1155Q3404 1009 3333 883T3150 652T2851 401L2585 192H3473V0H2306Z" />
<glyph unicode="&#xbe;" glyph-name="threequarters" horiz-adv-x="3969" d="M860 -20L2863 2986H3117L1114 -20H860ZM238 1622Q327 1584 458 1558T729 1532Q853 1532 938 1566T1067 1662T1110 1807Q1110 1939 1004 2018T684 2098H516V2290H684Q863 2290 958 2358T1053
2556Q1053 2634 1012 2688T895 2770T717 2798Q617 2798 500 2774T279 2708V2904Q379 2943 497 2966T725 2990Q909 2990 1034 2942T1222 2801T1286 2572Q1286 2451 1222 2358T1040 2212Q1188 2161 1265 2055T1343 1811Q1343 1670 1273 1564T1064 1399T729 1340Q587
1340 458 1366T238 1434V1622ZM3330 0V361H2450V553L3281 1602H3564V553H3838V361H3564V0H3330ZM3330 1364L2691 553H3330V1364Z" />
<glyph unicode="&#xbf;" glyph-name="questiondown" horiz-adv-x="2085" d="M1827 -737Q1671 -815 1478 -860T1094 -905Q851 -905 671 -830T393 -619T295 -303Q295 -62 411 134T770 553L1163 918L1188 1335H1368L1397 836L1024 483Q798 271 680 93T561 -270Q561
-385 622 -480T807 -631T1110 -688Q1298 -688 1473 -646T1827 -520V-737ZM1110 1724V2101H1438V1724H1110Z" />
<glyph unicode="&#xc0;" glyph-name="Agrave" horiz-adv-x="2720" d="M2343 0L2036 836H668L360 0H90L1212 2966H1511L2630 0H2343ZM1442 2462Q1390 2604 1356 2720Q1314 2581 1270 2462L750 1053H1958L1442 2462ZM1228 3215L708 3768H1056L1478 3215H1228Z" />
<glyph unicode="&#xc1;" glyph-name="Aacute" horiz-adv-x="2720" d="M2343 0L2036 836H668L360 0H90L1212 2966H1511L2630 0H2343ZM1442 2462Q1390 2604 1356 2720Q1314 2581 1270 2462L750 1053H1958L1442 2462ZM1663 3768H2011L1491 3215H1241L1663 3768Z" />
<glyph unicode="&#xc2;" glyph-name="Acircumflex" horiz-adv-x="2720" d="M2343 0L2036 836H668L360 0H90L1212 2966H1511L2630 0H2343ZM1442 2462Q1390 2604 1356 2720Q1314 2581 1270 2462L750 1053H1958L1442 2462ZM1700 3215L1360 3584L1020 3215H778L1212
3768H1511L1946 3215H1700Z" />
<glyph unicode="&#xc3;" glyph-name="Atilde" horiz-adv-x="2720" d="M2343 0L2036 836H668L360 0H90L1212 2966H1511L2630 0H2343ZM1442 2462Q1390 2604 1356 2720Q1314 2581 1270 2462L750 1053H1958L1442 2462ZM2031 3678Q2031 3578 2009 3494T1940 3347T1823
3250T1655 3215Q1589 3215 1533 3234T1426 3282T1331 3344T1244 3406T1162 3454T1081 3473Q994 3473 956 3409T917 3215H712Q712 3315 734 3400T803 3546T921 3643T1089 3678Q1154 3678 1211 3659T1318 3611T1413 3549T1499 3487T1581 3439T1663 3420Q1749 3420
1788 3484T1827 3678H2031Z" />
<glyph unicode="&#xc4;" glyph-name="Adieresis" horiz-adv-x="2720" d="M2343 0L2036 836H668L360 0H90L1212 2966H1511L2630 0H2343ZM1442 2462Q1390 2604 1356 2720Q1314 2581 1270 2462L750 1053H1958L1442 2462ZM827 3342V3703H1077V3342H827ZM1647 3342V3703H1896V3342H1647Z"
/>
<glyph unicode="&#xc5;" glyph-name="Aring" horiz-adv-x="2720" d="M2343 0L2036 836H668L360 0H90L1212 2966H1511L2630 0H2343ZM1442 2462Q1390 2604 1356 2720Q1314 2581 1270 2462L750 1053H1958L1442 2462ZM1819 3596Q1819 3484 1766 3388T1609 3233T1360
3174Q1213 3174 1109 3231T953 3384T901 3592Q901 3704 954 3800T1111 3955T1360 4014Q1507 4014 1611 3957T1767 3804T1819 3596ZM1614 3592Q1614 3657 1585 3713T1499 3804T1360 3838Q1278 3838 1221 3804T1135 3715T1106 3596Q1106 3531 1135 3475T1221 3385T1360
3351Q1442 3351 1499 3384T1585 3473T1614 3592Z" />
<glyph unicode="&#xc6;" glyph-name="AE" horiz-adv-x="3891" d="M1921 0V836H733L352 0H74L1454 2966H3703V2744H2179V1626H3482V1409H2179V221H3703V0H1921ZM1921 2744H1602L831 1053H1921V2744Z" />
<glyph unicode="&#xc7;" glyph-name="Ccedilla" horiz-adv-x="2519" d="M1090 -729Q1181 -750 1311 -750Q1363 -750 1410 -736T1488 -686T1520 -586Q1520 -519 1478 -474T1372 -402T1221 -356L1397 -37Q1039 -15 793 169T421 684T295 1479Q295 1949 431 2291T841
2820T1516 3006Q1715 3006 1920 2961T2257 2847V2617Q2079 2697 1891 2741T1511 2785Q1196 2785 985 2632T669 2188T565 1483Q565 1076 667 785T982 337T1516 180Q1717 180 1920 222T2298 336V119Q2151 57 1960 13T1593 -37L1479 -246Q1567 -277 1631 -324T1730
-436T1765 -578Q1765 -703 1704 -783T1543 -901T1323 -938Q1198 -938 1090 -905V-729Z" />
<glyph unicode="&#xc8;" glyph-name="Egrave" horiz-adv-x="2462" d="M451 0V2966H2273V2744H709V1626H2052V1409H709V221H2273V0H451ZM1314 3215L794 3768H1142L1564 3215H1314Z" />
<glyph unicode="&#xc9;" glyph-name="Eacute" horiz-adv-x="2462" d="M451 0V2966H2273V2744H709V1626H2052V1409H709V221H2273V0H451ZM1671 3768H2019L1499 3215H1249L1671 3768Z" />
<glyph unicode="&#xca;" glyph-name="Ecircumflex" horiz-adv-x="2462" d="M451 0V2966H2273V2744H709V1626H2052V1409H709V221H2273V0H451ZM1712 3215L1372 3584L1032 3215H790L1224 3768H1523L1958 3215H1712Z" />
<glyph unicode="&#xcb;" glyph-name="Edieresis" horiz-adv-x="2462" d="M451 0V2966H2273V2744H709V1626H2052V1409H709V221H2273V0H451ZM835 3342V3703H1085V3342H835ZM1655 3342V3703H1904V3342H1655Z" />
<glyph unicode="&#xcc;" glyph-name="Igrave" horiz-adv-x="1159" d="M451 0V2966H709V0H451ZM471 3215L-49 3768H299L721 3215H471Z" />
<glyph unicode="&#xcd;" glyph-name="Iacute" horiz-adv-x="1159" d="M451 0V2966H709V0H451ZM1120 3768H1468L948 3215H698L1120 3768Z" />
<glyph unicode="&#xce;" glyph-name="Icircumflex" horiz-adv-x="1159" d="M451 0V2966H709V0H451ZM918 3215L578 3584L238 3215H-4L430 3768H729L1164 3215H918Z" />
<glyph unicode="&#xcf;" glyph-name="Idieresis" horiz-adv-x="1159" d="M451 0V2966H709V0H451ZM45 3342V3703H295V3342H45ZM865 3342V3703H1114V3342H865Z" />
<glyph unicode="&#xd0;" glyph-name="Eth" horiz-adv-x="2933" d="M483 0V1409H188V1626H483V2966H1343Q1801 2966 2089 2780T2507 2264T2638 1487Q2638 1038 2504 707T2073 188T1303 0H483ZM1315 221Q1686 221 1919 370T2260 797T2367 1479Q2367 1887 2262 2166T1922
2594T1303 2744H741V1626H1499V1409H741V221H1315Z" />
<glyph unicode="&#xd1;" glyph-name="Ntilde" horiz-adv-x="3129" d="M2400 0L958 2171Q793 2426 692 2638Q709 2434 709 2150V0H451V2966H733L2171 803Q2336 548 2437 336Q2421 544 2421 823V2966H2679V0H2400ZM2261 3678Q2261 3578 2239 3494T2170 3347T2053
3250T1885 3215Q1819 3215 1763 3234T1656 3282T1561 3344T1474 3406T1392 3454T1311 3473Q1224 3473 1186 3409T1147 3215H942Q942 3315 964 3400T1033 3546T1151 3643T1319 3678Q1384 3678 1441 3659T1548 3611T1643 3549T1729 3487T1811 3439T1893 3420Q1979
3420 2018 3484T2057 3678H2261Z" />
<glyph unicode="&#xd2;" glyph-name="Ograve" horiz-adv-x="2994" d="M1491 -41Q1081 -41 814 152T421 686T295 1479Q295 1927 424 2270T824 2810T1503 3006Q1913 3006 2180 2813T2573 2279T2699 1487Q2699 1038 2570 695T2170 155T1491 -41ZM1499 180Q1817 180
2024 344T2330 800T2429 1483Q2429 1874 2331 2165T2024 2621T1495 2785Q1177 2785 970 2621T664 2166T565 1483Q565 1092 663 800T970 344T1499 180ZM1413 3215L893 3768H1241L1663 3215H1413Z" />
<glyph unicode="&#xd3;" glyph-name="Oacute" horiz-adv-x="2994" d="M1491 -41Q1081 -41 814 152T421 686T295 1479Q295 1927 424 2270T824 2810T1503 3006Q1913 3006 2180 2813T2573 2279T2699 1487Q2699 1038 2570 695T2170 155T1491 -41ZM1499 180Q1817 180
2024 344T2330 800T2429 1483Q2429 1874 2331 2165T2024 2621T1495 2785Q1177 2785 970 2621T664 2166T565 1483Q565 1092 663 800T970 344T1499 180ZM1798 3768H2146L1626 3215H1376L1798 3768Z" />
<glyph unicode="&#xd4;" glyph-name="Ocircumflex" horiz-adv-x="2994" d="M1491 -41Q1081 -41 814 152T421 686T295 1479Q295 1927 424 2270T824 2810T1503 3006Q1913 3006 2180 2813T2573 2279T2699 1487Q2699 1038 2570 695T2170 155T1491 -41ZM1499 180Q1817
180 2024 344T2330 800T2429 1483Q2429 1874 2331 2165T2024 2621T1495 2785Q1177 2785 970 2621T664 2166T565 1483Q565 1092 663 800T970 344T1499 180ZM1835 3215L1495 3584L1155 3215H913L1347 3768H1646L2081 3215H1835Z" />
<glyph unicode="&#xd5;" glyph-name="Otilde" horiz-adv-x="2994" d="M1491 -41Q1081 -41 814 152T421 686T295 1479Q295 1927 424 2270T824 2810T1503 3006Q1913 3006 2180 2813T2573 2279T2699 1487Q2699 1038 2570 695T2170 155T1491 -41ZM1499 180Q1817 180
2024 344T2330 800T2429 1483Q2429 1874 2331 2165T2024 2621T1495 2785Q1177 2785 970 2621T664 2166T565 1483Q565 1092 663 800T970 344T1499 180ZM2154 3678Q2154 3578 2132 3494T2063 3347T1946 3250T1778 3215Q1712 3215 1656 3234T1549 3282T1454 3344T1367
3406T1285 3454T1204 3473Q1117 3473 1079 3409T1040 3215H835Q835 3315 857 3400T926 3546T1044 3643T1212 3678Q1277 3678 1334 3659T1441 3611T1536 3549T1622 3487T1704 3439T1786 3420Q1872 3420 1911 3484T1950 3678H2154Z" />
<glyph unicode="&#xd6;" glyph-name="Odieresis" horiz-adv-x="2994" d="M1491 -41Q1081 -41 814 152T421 686T295 1479Q295 1927 424 2270T824 2810T1503 3006Q1913 3006 2180 2813T2573 2279T2699 1487Q2699 1038 2570 695T2170 155T1491 -41ZM1499 180Q1817
180 2024 344T2330 800T2429 1483Q2429 1874 2331 2165T2024 2621T1495 2785Q1177 2785 970 2621T664 2166T565 1483Q565 1092 663 800T970 344T1499 180ZM962 3342V3703H1212V3342H962ZM1782 3342V3703H2031V3342H1782Z" />
<glyph unicode="&#xd7;" glyph-name="multiply" horiz-adv-x="2458" d="M1229 1077L504 356L365 496L1085 1221L365 1942L508 2085L1229 1364L1954 2085L2093 1946L1372 1221L2093 500L1950 356L1229 1077Z" />
<glyph unicode="&#xd8;" glyph-name="Oslash" horiz-adv-x="2994" d="M295 -33L586 381Q444 577 370 859T295 1479Q295 1927 424 2270T824 2810T1503 3006Q1729 3006 1916 2944T2253 2753L2425 2998H2699L2408 2585Q2555 2377 2627 2104T2699 1487Q2699 1038 2570
695T2170 155T1491 -41Q1257 -41 1071 24T741 213L569 -33H295ZM2109 2548Q1999 2664 1843 2724T1495 2785Q1177 2785 970 2621T664 2166T565 1483Q565 1224 608 999T741 606L2109 2548ZM885 418Q992 304 1148 242T1499 180Q1817 180 2024 344T2330 800T2429 1483Q2429
1750 2384 1971T2253 2359L885 418Z" />
<glyph unicode="&#xd9;" glyph-name="Ugrave" horiz-adv-x="2892" d="M2241 2966H2499V967Q2499 613 2374 389T2017 62T1454 -41Q1119 -41 890 60T539 380T418 942V2966H676V967Q676 569 868 375T1462 180Q1857 180 2049 372T2241 954V2966ZM1392 3215L872 3768H1220L1642
3215H1392Z" />
<glyph unicode="&#xda;" glyph-name="Uacute" horiz-adv-x="2892" d="M2241 2966H2499V967Q2499 613 2374 389T2017 62T1454 -41Q1119 -41 890 60T539 380T418 942V2966H676V967Q676 569 868 375T1462 180Q1857 180 2049 372T2241 954V2966ZM1745 3768H2093L1573
3215H1323L1745 3768Z" />
<glyph unicode="&#xdb;" glyph-name="Ucircumflex" horiz-adv-x="2916" d="M2241 2966H2499V967Q2499 613 2374 389T2017 62T1454 -41Q1119 -41 890 60T539 380T418 942V2966H676V967Q676 569 868 375T1462 180Q1857 180 2049 372T2241 954V2966ZM1798 3215L1458
3584L1118 3215H876L1310 3768H1609L2044 3215H1798Z" />
<glyph unicode="&#xdc;" glyph-name="Udieresis" horiz-adv-x="2916" d="M2241 2966H2499V967Q2499 613 2374 389T2017 62T1454 -41Q1119 -41 890 60T539 380T418 942V2966H676V967Q676 569 868 375T1462 180Q1857 180 2049 372T2241 954V2966ZM925 3342V3703H1175V3342H925ZM1745
3342V3703H1994V3342H1745Z" />
<glyph unicode="&#xdd;" glyph-name="Yacute" horiz-adv-x="2441" d="M1090 0V1176L49 2966H348L1110 1634Q1189 1498 1229 1417Q1269 1498 1348 1634L2109 2966H2392L1348 1167V0H1090ZM1520 3768H1868L1348 3215H1098L1520 3768Z" />
<glyph unicode="&#xde;" glyph-name="Thorn" horiz-adv-x="2486" d="M451 0V2966H709V2433H1352Q1678 2433 1896 2324T2220 2014T2327 1540Q2327 1286 2225 1084T1899 763T1331 643H709V0H451ZM1343 864Q1587 864 1746 949T1981 1184T2056 1536Q2056 1743 1980
1894T1740 2128T1319 2212H709V864H1343Z" />
<glyph unicode="&#xdf;" glyph-name="germandbls" horiz-adv-x="2601" d="M1655 -41Q1481 -41 1313 -5T1032 90V303Q1145 250 1318 211T1655 172Q1838 172 1954 227T2125 381T2179 614Q2179 749 2117 845T1945 1015T1630 1196L1032 1507V1778L1286 1884Q1518 1980
1641 2064T1812 2240T1860 2458Q1860 2594 1791 2696T1592 2853T1286 2908Q1091 2908 953 2839T741 2631T668 2290V0H418V2306Q418 2577 529 2759T836 3031T1290 3121Q1549 3121 1736 3038T2020 2808T2118 2470Q2118 2290 2043 2157T1803 1913T1352 1692L1257 1655L1729
1413Q1982 1283 2125 1185T2352 951T2437 623Q2437 428 2351 279T2089 44T1655 -41Z" />
<glyph unicode="&#xe0;" glyph-name="agrave" horiz-adv-x="2335" d="M1704 0L1692 201Q1550 92 1369 26T987 -41Q769 -41 607 28T358 226T270 532Q270 747 393 892T769 1113T1405 1188Q1536 1188 1683 1184V1376Q1683 1570 1626 1691T1446 1871T1126 1929Q911
1929 740 1881T418 1761V1974Q570 2050 751 2096T1143 2142Q1379 2142 1554 2073T1831 1845T1933 1430V0H1704ZM1683 979H1405Q1092 979 899 929T617 783T528 541Q528 431 580 348T743 219T1024 172Q1198 172 1365 231T1683 406V979ZM1150 2454L630 3006H978L1400
2454H1150Z" />
<glyph unicode="&#xe1;" glyph-name="aacute" horiz-adv-x="2335" d="M1704 0L1692 201Q1550 92 1369 26T987 -41Q769 -41 607 28T358 226T270 532Q270 747 393 892T769 1113T1405 1188Q1536 1188 1683 1184V1376Q1683 1570 1626 1691T1446 1871T1126 1929Q911
1929 740 1881T418 1761V1974Q570 2050 751 2096T1143 2142Q1379 2142 1554 2073T1831 1845T1933 1430V0H1704ZM1683 979H1405Q1092 979 899 929T617 783T528 541Q528 431 580 348T743 219T1024 172Q1198 172 1365 231T1683 406V979ZM1008 2454L1430 3006H1778L1258
2454H1008Z" />
<glyph unicode="&#xe2;" glyph-name="acircumflex" horiz-adv-x="2335" d="M1704 0L1692 201Q1550 92 1369 26T987 -41Q769 -41 607 28T358 226T270 532Q270 747 393 892T769 1113T1405 1188Q1536 1188 1683 1184V1376Q1683 1570 1626 1691T1446 1871T1126 1929Q911
1929 740 1881T418 1761V1974Q570 2050 751 2096T1143 2142Q1379 2142 1554 2073T1831 1845T1933 1430V0H1704ZM1683 979H1405Q1092 979 899 929T617 783T528 541Q528 431 580 348T743 219T1024 172Q1198 172 1365 231T1683 406V979ZM1507 2454L1167 2822L827 2454H585L1019
3006H1318L1753 2454H1507Z" />
<glyph unicode="&#xe3;" glyph-name="atilde" horiz-adv-x="2335" d="M1704 0L1692 201Q1550 92 1369 26T987 -41Q769 -41 607 28T358 226T270 532Q270 747 393 892T769 1113T1405 1188Q1536 1188 1683 1184V1376Q1683 1570 1626 1691T1446 1871T1126 1929Q911
1929 740 1881T418 1761V1974Q570 2050 751 2096T1143 2142Q1379 2142 1554 2073T1831 1845T1933 1430V0H1704ZM1683 979H1405Q1092 979 899 929T617 783T528 541Q528 431 580 348T743 219T1024 172Q1198 172 1365 231T1683 406V979ZM1859 2941Q1859 2841 1837
2757T1768 2610T1651 2513T1483 2478Q1417 2478 1361 2497T1254 2545T1159 2607T1072 2669T990 2717T909 2736Q822 2736 784 2672T745 2478H540Q540 2578 562 2662T631 2809T749 2906T917 2941Q982 2941 1039 2922T1146 2874T1241 2812T1327 2750T1409 2702T1491
2683Q1577 2683 1616 2747T1655 2941H1859Z" />
<glyph unicode="&#xe4;" glyph-name="adieresis" horiz-adv-x="2335" d="M1704 0L1692 201Q1550 92 1369 26T987 -41Q769 -41 607 28T358 226T270 532Q270 747 393 892T769 1113T1405 1188Q1536 1188 1683 1184V1376Q1683 1570 1626 1691T1446 1871T1126 1929Q911
1929 740 1881T418 1761V1974Q570 2050 751 2096T1143 2142Q1379 2142 1554 2073T1831 1845T1933 1430V0H1704ZM1683 979H1405Q1092 979 899 929T617 783T528 541Q528 431 580 348T743 219T1024 172Q1198 172 1365 231T1683 406V979ZM614 2605V2966H864V2605H614ZM1434
2605V2966H1683V2605H1434Z" />
<glyph unicode="&#xe5;" glyph-name="aring" horiz-adv-x="2335" d="M1704 0L1692 201Q1550 92 1369 26T987 -41Q769 -41 607 28T358 226T270 532Q270 747 393 892T769 1113T1405 1188Q1536 1188 1683 1184V1376Q1683 1570 1626 1691T1446 1871T1126 1929Q911
1929 740 1881T418 1761V1974Q570 2050 751 2096T1143 2142Q1379 2142 1554 2073T1831 1845T1933 1430V0H1704ZM1683 979H1405Q1092 979 899 929T617 783T528 541Q528 431 580 348T743 219T1024 172Q1198 172 1365 231T1683 406V979ZM1630 2867Q1630 2745 1577
2642T1421 2476T1171 2413Q1023 2413 920 2474T764 2638T712 2863Q712 2985 765 3089T921 3255T1171 3318Q1319 3318 1422 3257T1578 3093T1630 2867ZM1425 2863Q1425 2937 1396 3000T1309 3103T1171 3142Q1089 3142 1032 3104T946 3002T917 2867Q917 2793 946
2730T1032 2628T1171 2589Q1253 2589 1310 2627T1396 2728T1425 2863Z" />
<glyph unicode="&#xe6;" glyph-name="ae" horiz-adv-x="3727" d="M987 -41Q773 -41 611 28T359 226T270 532Q270 747 393 892T769 1113T1405 1188Q1536 1188 1683 1184V1376Q1683 1570 1626 1691T1446 1871T1126 1929Q911 1929 740 1881T418 1761V1974Q570 2050
751 2096T1143 2142Q1316 2142 1455 2105T1698 1983T1860 1761Q1937 1882 2042 1967T2283 2097T2580 2142Q2864 2142 3061 2014T3358 1661T3457 1151Q3457 1113 3455 1077T3449 1028H1925Q1931 733 2004 546T2231 265T2638 172Q2847 172 2999 208T3355 328V127Q3226
55 3038 7T2613 -41Q2097 -41 1860 307Q1658 137 1443 48T987 -41ZM1405 979Q1092 979 899 929T617 783T528 541Q528 431 580 348T743 219T1024 172Q1215 172 1406 250T1769 479Q1726 592 1704 717T1675 979H1405ZM2576 1929Q2392 1929 2251 1844T2027 1602T1929
1237H3199Q3191 1447 3116 1603T2903 1844T2576 1929Z" />
<glyph unicode="&#xe7;" glyph-name="ccedilla" horiz-adv-x="2073" d="M766 -729Q858 -750 987 -750Q1039 -750 1086 -736T1164 -686T1196 -586Q1196 -519 1154 -474T1048 -402T897 -356L1077 -33Q839 -8 660 121T380 485T279 1049Q279 1368 385 1614T708 2001T1245
2142Q1398 2142 1546 2109T1798 2023V1798Q1695 1852 1538 1890T1233 1929Q1001 1929 847 1821T617 1518T541 1057Q541 771 620 573T853 274T1225 172Q1391 172 1543 213T1839 332V119Q1727 50 1583 9T1270 -41L1155 -246Q1243 -277 1307 -324T1406 -436T1442 -578Q1442
-703 1381 -783T1219 -901T999 -938Q876 -938 766 -905V-729Z" />
<glyph unicode="&#xe8;" glyph-name="egrave" horiz-adv-x="2343" d="M1970 127Q1842 55 1654 7T1229 -41Q900 -41 689 90T378 466T279 1057Q279 1374 384 1619T696 2003T1196 2142Q1480 2142 1677 2014T1974 1661T2073 1151Q2073 1084 2064 1028H541Q547 733
619 546T846 265T1253 172Q1462 172 1615 208T1970 328V127ZM1815 1237Q1806 1447 1731 1603T1519 1844T1192 1929Q1008 1929 867 1844T642 1602T545 1237H1815ZM1085 2454L565 3006H913L1335 2454H1085Z" />
<glyph unicode="&#xe9;" glyph-name="eacute" horiz-adv-x="2343" d="M1970 127Q1842 55 1654 7T1229 -41Q900 -41 689 90T378 466T279 1057Q279 1374 384 1619T696 2003T1196 2142Q1480 2142 1677 2014T1974 1661T2073 1151Q2073 1084 2064 1028H541Q547 733
619 546T846 265T1253 172Q1462 172 1615 208T1970 328V127ZM1815 1237Q1806 1447 1731 1603T1519 1844T1192 1929Q1008 1929 867 1844T642 1602T545 1237H1815ZM1040 2454L1462 3006H1810L1290 2454H1040Z" />
<glyph unicode="&#xea;" glyph-name="ecircumflex" horiz-adv-x="2343" d="M1970 127Q1842 55 1654 7T1229 -41Q900 -41 689 90T378 466T279 1057Q279 1374 384 1619T696 2003T1196 2142Q1480 2142 1677 2014T1974 1661T2073 1151Q2073 1084 2064 1028H541Q547
733 619 546T846 265T1253 172Q1462 172 1615 208T1970 328V127ZM1815 1237Q1806 1447 1731 1603T1519 1844T1192 1929Q1008 1929 867 1844T642 1602T545 1237H1815ZM1524 2454L1184 2822L844 2454H602L1036 3006H1335L1770 2454H1524Z" />
<glyph unicode="&#xeb;" glyph-name="edieresis" horiz-adv-x="2343" d="M1970 127Q1842 55 1654 7T1229 -41Q900 -41 689 90T378 466T279 1057Q279 1374 384 1619T696 2003T1196 2142Q1480 2142 1677 2014T1974 1661T2073 1151Q2073 1084 2064 1028H541Q547 733
619 546T846 265T1253 172Q1462 172 1615 208T1970 328V127ZM1815 1237Q1806 1447 1731 1603T1519 1844T1192 1929Q1008 1929 867 1844T642 1602T545 1237H1815ZM659 2605V2966H909V2605H659ZM1479 2605V2966H1728V2605H1479Z" />
<glyph unicode="&#xec;" glyph-name="igrave" horiz-adv-x="1085" d="M418 0V2101H668V0H418ZM426 2454L-94 3006H254L676 2454H426Z" />
<glyph unicode="&#xed;" glyph-name="iacute" horiz-adv-x="1085" d="M418 0V2101H668V0H418ZM666 2454L1088 3006H1436L916 2454H666Z" />
<glyph unicode="&#xee;" glyph-name="icircumflex" horiz-adv-x="1085" d="M418 0V2101H668V0H418ZM881 2454L541 2822L201 2454H-41L393 3006H692L1127 2454H881Z" />
<glyph unicode="&#xef;" glyph-name="idieresis" horiz-adv-x="1085" d="M418 0V2101H668V0H418ZM8 2605V2966H258V2605H8ZM828 2605V2966H1077V2605H828Z" />
<glyph unicode="&#xf0;" glyph-name="eth" horiz-adv-x="2494" d="M1483 2658Q1705 2436 1868 2174T2122 1626T2212 1053Q2212 733 2107 487T1784 100T1245 -41Q919 -41 703 98T383 481T279 1049Q279 1365 387 1611T713 1997T1249 2138Q1399 2138 1537 2091T1774
1950Q1639 2141 1516 2294T1262 2564L672 2310V2515L1114 2703Q969 2825 745 2970L909 3121Q1129 2982 1335 2798L1921 3047V2843L1483 2658ZM1245 172Q1489 172 1647 280T1879 584T1954 1053Q1954 1322 1879 1517T1647 1821T1249 1929Q1006 1929 848 1821T616
1517T541 1049Q541 780 616 584T848 280T1245 172Z" />
<glyph unicode="&#xf1;" glyph-name="ntilde" horiz-adv-x="2540" d="M1888 0V1438Q1888 1620 1829 1728T1656 1882T1372 1929Q1171 1929 1000 1870T668 1688V0H418V2101H647L664 1896Q808 2008 992 2075T1384 2142Q1620 2142 1788 2074T2047 1861T2138 1487V0H1888ZM1970
2941Q1970 2841 1948 2757T1879 2610T1762 2513T1594 2478Q1528 2478 1472 2497T1365 2545T1270 2607T1183 2669T1101 2717T1020 2736Q933 2736 895 2672T856 2478H651Q651 2578 673 2662T742 2809T860 2906T1028 2941Q1093 2941 1150 2922T1257 2874T1352 2812T1438
2750T1520 2702T1602 2683Q1688 2683 1727 2747T1766 2941H1970Z" />
<glyph unicode="&#xf2;" glyph-name="ograve" horiz-adv-x="2494" d="M1245 -41Q919 -41 703 98T383 481T279 1049Q279 1368 385 1614T710 2001T1249 2142Q1575 2142 1791 2004T2112 1620T2216 1053Q2216 733 2110 487T1785 100T1245 -41ZM1245 172Q1489 172 1647
280T1879 584T1954 1053Q1954 1322 1879 1517T1647 1821T1249 1929Q1006 1929 848 1821T616 1517T541 1049Q541 780 616 584T848 280T1245 172ZM1167 2454L647 3006H995L1417 2454H1167Z" />
<glyph unicode="&#xf3;" glyph-name="oacute" horiz-adv-x="2494" d="M1245 -41Q919 -41 703 98T383 481T279 1049Q279 1368 385 1614T710 2001T1249 2142Q1575 2142 1791 2004T2112 1620T2216 1053Q2216 733 2110 487T1785 100T1245 -41ZM1245 172Q1489 172 1647
280T1879 584T1954 1053Q1954 1322 1879 1517T1647 1821T1249 1929Q1006 1929 848 1821T616 1517T541 1049Q541 780 616 584T848 280T1245 172ZM1110 2454L1532 3006H1880L1360 2454H1110Z" />
<glyph unicode="&#xf4;" glyph-name="ocircumflex" horiz-adv-x="2494" d="M1245 -41Q919 -41 703 98T383 481T279 1049Q279 1368 385 1614T710 2001T1249 2142Q1575 2142 1791 2004T2112 1620T2216 1053Q2216 733 2110 487T1785 100T1245 -41ZM1245 172Q1489
172 1647 280T1879 584T1954 1053Q1954 1322 1879 1517T1647 1821T1249 1929Q1006 1929 848 1821T616 1517T541 1049Q541 780 616 584T848 280T1245 172ZM1585 2454L1245 2822L905 2454H663L1097 3006H1396L1831 2454H1585Z" />
<glyph unicode="&#xf5;" glyph-name="otilde" horiz-adv-x="2494" d="M1245 -41Q919 -41 703 98T383 481T279 1049Q279 1368 385 1614T710 2001T1249 2142Q1575 2142 1791 2004T2112 1620T2216 1053Q2216 733 2110 487T1785 100T1245 -41ZM1245 172Q1489 172 1647
280T1879 584T1954 1053Q1954 1322 1879 1517T1647 1821T1249 1929Q1006 1929 848 1821T616 1517T541 1049Q541 780 616 584T848 280T1245 172ZM1904 2941Q1904 2841 1882 2757T1813 2610T1696 2513T1528 2478Q1462 2478 1406 2497T1299 2545T1204 2607T1117 2669T1035
2717T954 2736Q867 2736 829 2672T790 2478H585Q585 2578 607 2662T676 2809T794 2906T962 2941Q1027 2941 1084 2922T1191 2874T1286 2812T1372 2750T1454 2702T1536 2683Q1622 2683 1661 2747T1700 2941H1904Z" />
<glyph unicode="&#xf6;" glyph-name="odieresis" horiz-adv-x="2494" d="M1245 -41Q919 -41 703 98T383 481T279 1049Q279 1368 385 1614T710 2001T1249 2142Q1575 2142 1791 2004T2112 1620T2216 1053Q2216 733 2110 487T1785 100T1245 -41ZM1245 172Q1489 172
1647 280T1879 584T1954 1053Q1954 1322 1879 1517T1647 1821T1249 1929Q1006 1929 848 1821T616 1517T541 1049Q541 780 616 584T848 280T1245 172ZM712 2605V2966H962V2605H712ZM1532 2605V2966H1781V2605H1532Z" />
<glyph unicode="&#xf7;" glyph-name="divide" horiz-adv-x="2458" d="M233 1122V1323H2224V1122H233ZM1065 1851V2228H1393V1851H1065ZM1065 217V594H1393V217H1065Z" />
<glyph unicode="&#xf8;" glyph-name="oslash" horiz-adv-x="2494" d="M225 -33L492 295Q386 437 333 629T279 1049Q279 1368 385 1614T710 2001T1249 2142Q1431 2142 1581 2096T1847 1962L1987 2134H2269L2003 1806Q2109 1664 2162 1472T2216 1053Q2216 733 2110
487T1785 100T1245 -41Q1064 -41 914 5T647 139L508 -33H225ZM795 319Q881 245 992 209T1245 172Q1489 172 1647 280T1879 584T1954 1053Q1954 1219 1927 1360T1843 1610L795 319ZM1700 1782Q1613 1856 1502 1892T1249 1929Q1006 1929 848 1821T616 1517T541 1049Q541
882 567 741T651 492L1700 1782Z" />
<glyph unicode="&#xf9;" glyph-name="ugrave" horiz-adv-x="2523" d="M1876 0L1860 205Q1715 93 1532 26T1147 -41Q915 -41 749 27T492 240T401 614V2101H651V664Q651 482 710 374T880 219T1159 172Q1355 172 1525 231T1855 414V2101H2105V0H1876ZM1163 2454L643
3006H991L1413 2454H1163Z" />
<glyph unicode="&#xfa;" glyph-name="uacute" horiz-adv-x="2523" d="M1876 0L1860 205Q1715 93 1532 26T1147 -41Q915 -41 749 27T492 240T401 614V2101H651V664Q651 482 710 374T880 219T1159 172Q1355 172 1525 231T1855 414V2101H2105V0H1876ZM1126 2454L1548
3006H1896L1376 2454H1126Z" />
<glyph unicode="&#xfb;" glyph-name="ucircumflex" horiz-adv-x="2523" d="M1876 0L1860 205Q1715 93 1532 26T1147 -41Q915 -41 749 27T492 240T401 614V2101H651V664Q651 482 710 374T880 219T1159 172Q1355 172 1525 231T1855 414V2101H2105V0H1876ZM1602 2454L1262
2822L922 2454H680L1114 3006H1413L1848 2454H1602Z" />
<glyph unicode="&#xfc;" glyph-name="udieresis" horiz-adv-x="2523" d="M1876 0L1860 205Q1715 93 1532 26T1147 -41Q915 -41 749 27T492 240T401 614V2101H651V664Q651 482 710 374T880 219T1159 172Q1355 172 1525 231T1855 414V2101H2105V0H1876ZM725 2605V2966H975V2605H725ZM1545
2605V2966H1794V2605H1545Z" />
<glyph unicode="&#xfd;" glyph-name="yacute" horiz-adv-x="2044" d="M12 -725Q68 -737 156 -737Q318 -737 446 -675T681 -468T877 -78L893 -33L61 2101H336L930 524Q996 348 1028 205Q1068 351 1130 520L1712 2101H1982L1098 -156Q991 -433 859 -608T561 -866T184
-950Q87 -950 12 -930V-725ZM897 2454L1319 3006H1667L1147 2454H897Z" />
<glyph unicode="&#xfe;" glyph-name="thorn" horiz-adv-x="2540" d="M418 3080H668V1901Q819 2017 983 2079T1327 2142Q1619 2142 1828 2019T2149 1655T2261 1065Q2261 708 2143 460T1813 85T1319 -41Q1136 -41 970 12T668 160V-922H418V3080ZM1298 172Q1525 172
1681 270T1918 565T1999 1057Q1999 1346 1919 1540T1684 1831T1303 1929Q1133 1929 980 1869T668 1688V381Q811 279 969 226T1298 172Z" />
<glyph unicode="&#xff;" glyph-name="ydieresis" horiz-adv-x="2044" d="M12 -725Q68 -737 156 -737Q318 -737 446 -675T681 -468T877 -78L893 -33L61 2101H336L930 524Q996 348 1028 205Q1068 351 1130 520L1712 2101H1982L1098 -156Q991 -433 859 -608T561 -866T184
-950Q87 -950 12 -930V-725ZM483 2605V2966H733V2605H483ZM1303 2605V2966H1552V2605H1303Z" />
<glyph unicode="&#x100;" glyph-name="Amacron" horiz-adv-x="2720" d="M2343 0L2036 836H668L360 0H90L1212 2966H1511L2630 0H2343ZM1442 2462Q1390 2604 1356 2720Q1314 2581 1270 2462L750 1053H1958L1442 2462ZM815 3342V3547H1909V3342H815Z" />
<glyph unicode="&#x101;" glyph-name="amacron" horiz-adv-x="2335" d="M1704 0L1692 201Q1550 92 1369 26T987 -41Q769 -41 607 28T358 226T270 532Q270 747 393 892T769 1113T1405 1188Q1536 1188 1683 1184V1376Q1683 1570 1626 1691T1446 1871T1126 1929Q911
1929 740 1881T418 1761V1974Q570 2050 751 2096T1143 2142Q1379 2142 1554 2073T1831 1845T1933 1430V0H1704ZM1683 979H1405Q1092 979 899 929T617 783T528 541Q528 431 580 348T743 219T1024 172Q1198 172 1365 231T1683 406V979ZM606 2605V2810H1700V2605H606Z"
/>
<glyph unicode="&#x102;" glyph-name="Abreve" horiz-adv-x="2720" d="M2343 0L2036 836H668L360 0H90L1212 2966H1511L2630 0H2343ZM1442 2462Q1390 2604 1356 2720Q1314 2581 1270 2462L750 1053H1958L1442 2462ZM1360 3207Q1196 3207 1065 3275T858 3471T782
3768H987Q993 3656 1042 3577T1174 3457T1364 3416Q1473 3416 1554 3456T1683 3576T1737 3768H1942Q1942 3598 1866 3471T1658 3276T1360 3207Z" />
<glyph unicode="&#x103;" glyph-name="abreve" horiz-adv-x="2335" d="M1704 0L1692 201Q1550 92 1369 26T987 -41Q769 -41 607 28T358 226T270 532Q270 747 393 892T769 1113T1405 1188Q1536 1188 1683 1184V1376Q1683 1570 1626 1691T1446 1871T1126 1929Q911
1929 740 1881T418 1761V1974Q570 2050 751 2096T1143 2142Q1379 2142 1554 2073T1831 1845T1933 1430V0H1704ZM1683 979H1405Q1092 979 899 929T617 783T528 541Q528 431 580 348T743 219T1024 172Q1198 172 1365 231T1683 406V979ZM1745 3006Q1745 2836 1669
2709T1461 2514T1163 2445Q999 2445 868 2513T661 2709T585 3006H790Q796 2894 845 2815T977 2695T1167 2654Q1276 2654 1357 2694T1486 2814T1540 3006H1745Z" />
<glyph unicode="&#x104;" glyph-name="Aogonek" horiz-adv-x="2720" d="M2679 -901Q2558 -938 2425 -938Q2287 -938 2191 -888T2047 -753T1999 -565Q1999 -407 2093 -258T2343 0L2036 836H668L360 0H90L1212 2966H1511L2630 0Q2413 -144 2329 -275T2245 -549Q2245
-646 2303 -698T2466 -750Q2574 -750 2679 -721V-901ZM1442 2462Q1390 2604 1356 2720Q1314 2581 1270 2462L750 1053H1958L1442 2462Z" />
<glyph unicode="&#x105;" glyph-name="aogonek" horiz-adv-x="2335" d="M2028 -901Q1907 -938 1774 -938Q1636 -938 1540 -888T1396 -753T1348 -565Q1348 -406 1447 -249T1704 16L1692 201Q1550 92 1369 26T987 -41Q773 -41 611 28T359 226T270 532Q270 747 393
892T769 1113T1405 1188Q1536 1188 1683 1184V1376Q1683 1570 1626 1691T1446 1871T1126 1929Q911 1929 740 1881T418 1761V1974Q570 2050 751 2096T1143 2142Q1379 2142 1554 2073T1831 1845T1933 1430V0Q1740 -169 1667 -292T1593 -549Q1593 -646 1651 -698T1815
-750Q1923 -750 2028 -721V-901ZM1683 979H1405Q1092 979 899 929T617 783T528 541Q528 431 580 348T743 219T1024 172Q1198 172 1365 231T1683 406V979Z" />
<glyph unicode="&#x106;" glyph-name="Cacute" horiz-adv-x="2519" d="M2298 119Q2143 53 1929 6T1507 -41Q1100 -41 829 143T427 668T295 1479Q295 1949 431 2291T841 2820T1516 3006Q1715 3006 1920 2961T2257 2847V2617Q2079 2697 1891 2741T1511 2785Q1196
2785 985 2632T669 2188T565 1483Q565 1076 667 785T982 337T1516 180Q1717 180 1920 222T2298 336V119ZM1778 3768H2126L1606 3215H1356L1778 3768Z" />
<glyph unicode="&#x107;" glyph-name="cacute" horiz-adv-x="2073" d="M1839 119Q1721 47 1561 3T1217 -41Q919 -41 708 90T388 466T279 1049Q279 1368 385 1614T708 2001T1245 2142Q1398 2142 1546 2109T1798 2023V1798Q1695 1852 1538 1890T1233 1929Q1001 1929
847 1821T617 1518T541 1057Q541 771 620 573T853 274T1225 172Q1391 172 1543 213T1839 332V119ZM1024 2454L1446 3006H1794L1274 2454H1024Z" />
<glyph unicode="&#x108;" glyph-name="Ccircumflex" horiz-adv-x="2519" d="M2298 119Q2143 53 1929 6T1507 -41Q1100 -41 829 143T427 668T295 1479Q295 1949 431 2291T841 2820T1516 3006Q1715 3006 1920 2961T2257 2847V2617Q2079 2697 1891 2741T1511 2785Q1196
2785 985 2632T669 2188T565 1483Q565 1076 667 785T982 337T1516 180Q1717 180 1920 222T2298 336V119ZM1823 3215L1483 3584L1143 3215H901L1335 3768H1634L2069 3215H1823Z" />
<glyph unicode="&#x109;" glyph-name="ccircumflex" horiz-adv-x="2073" d="M1839 119Q1721 47 1561 3T1217 -41Q919 -41 708 90T388 466T279 1049Q279 1368 385 1614T708 2001T1245 2142Q1398 2142 1546 2109T1798 2023V1798Q1695 1852 1538 1890T1233 1929Q1001
1929 847 1821T617 1518T541 1057Q541 771 620 573T853 274T1225 172Q1391 172 1543 213T1839 332V119ZM1528 2454L1188 2822L848 2454H606L1040 3006H1339L1774 2454H1528Z" />
<glyph unicode="&#x10a;" glyph-name="Cdotaccent" horiz-adv-x="2519" d="M2298 119Q2143 53 1929 6T1507 -41Q1100 -41 829 143T427 668T295 1479Q295 1949 431 2291T841 2820T1516 3006Q1715 3006 1920 2961T2257 2847V2617Q2079 2697 1891 2741T1511 2785Q1196
2785 985 2632T669 2188T565 1483Q565 1076 667 785T982 337T1516 180Q1717 180 1920 222T2298 336V119ZM1356 3342V3703H1606V3342H1356Z" />
<glyph unicode="&#x10b;" glyph-name="cdotaccent" horiz-adv-x="2073" d="M1839 119Q1721 47 1561 3T1217 -41Q919 -41 708 90T388 466T279 1049Q279 1368 385 1614T708 2001T1245 2142Q1398 2142 1546 2109T1798 2023V1798Q1695 1852 1538 1890T1233 1929Q1001
1929 847 1821T617 1518T541 1057Q541 771 620 573T853 274T1225 172Q1391 172 1543 213T1839 332V119ZM1073 2605V2966H1323V2605H1073Z" />
<glyph unicode="&#x10c;" glyph-name="Ccaron" horiz-adv-x="2519" d="M2298 119Q2143 53 1929 6T1507 -41Q1100 -41 829 143T427 668T295 1479Q295 1949 431 2291T841 2820T1516 3006Q1715 3006 1920 2961T2257 2847V2617Q2079 2697 1891 2741T1511 2785Q1196
2785 985 2632T669 2188T565 1483Q565 1076 667 785T982 337T1516 180Q1717 180 1920 222T2298 336V119ZM1351 3215L917 3768H1163L1503 3400L1843 3768H2085L1650 3215H1351Z" />
<glyph unicode="&#x10d;" glyph-name="ccaron" horiz-adv-x="2073" d="M1839 119Q1721 47 1561 3T1217 -41Q919 -41 708 90T388 466T279 1049Q279 1368 385 1614T708 2001T1245 2142Q1398 2142 1546 2109T1798 2023V1798Q1695 1852 1538 1890T1233 1929Q1001 1929
847 1821T617 1518T541 1057Q541 771 620 573T853 274T1225 172Q1391 172 1543 213T1839 332V119ZM1052 2454L618 3006H864L1204 2638L1544 3006H1786L1351 2454H1052Z" />
<glyph unicode="&#x10e;" glyph-name="Dcaron" horiz-adv-x="2900" d="M451 0V2966H1311Q1768 2966 2056 2780T2474 2264T2605 1487Q2605 1037 2471 706T2040 188T1270 0H451ZM1282 221Q1653 221 1886 370T2227 797T2335 1479Q2335 1886 2230 2165T1890 2594T1270
2744H709V221H1282ZM1151 3215L717 3768H963L1303 3400L1643 3768H1885L1450 3215H1151Z" />
<glyph unicode="&#x10f;" glyph-name="dcaron" horiz-adv-x="2531" d="M1892 0L1876 205Q1722 86 1558 23T1212 -41Q921 -41 712 82T391 446T279 1036Q279 1393 397 1641T727 2016T1221 2142Q1406 2142 1571 2089T1872 1942V3080H2122V0H1892ZM1872 1720Q1729
1822 1570 1875T1241 1929Q1015 1929 859 1831T622 1536T541 1044Q541 755 620 561T855 270T1237 172Q1406 172 1559 232T1872 414V1720ZM2351 2257L2445 2691L2396 3080H2527Q2623 3080 2667 3027T2711 2867Q2711 2797 2687 2706T2617 2486L2535 2257H2351Z" />
<glyph unicode="&#x110;" glyph-name="Dcroat" horiz-adv-x="2933" d="M483 0V1409H188V1626H483V2966H1343Q1801 2966 2089 2780T2507 2264T2638 1487Q2638 1038 2504 707T2073 188T1303 0H483ZM1315 221Q1686 221 1919 370T2260 797T2367 1479Q2367 1887 2262
2166T1922 2594T1303 2744H741V1626H1499V1409H741V221H1315Z" />
<glyph unicode="&#x111;" glyph-name="dcroat" horiz-adv-x="2540" d="M1892 0L1876 205Q1722 86 1558 23T1212 -41Q921 -41 712 82T391 446T279 1036Q279 1393 397 1641T727 2016T1221 2142Q1406 2142 1571 2089T1872 1942V2494H1413V2699H1872V3080H2122V2699H2384V2494H2122V0H1892ZM1872
1720Q1729 1822 1570 1875T1241 1929Q1015 1929 859 1831T622 1536T541 1044Q541 755 620 561T855 270T1237 172Q1406 172 1559 232T1872 414V1720Z" />
<glyph unicode="&#x112;" glyph-name="Emacron" horiz-adv-x="2462" d="M451 0V2966H2273V2744H709V1626H2052V1409H709V221H2273V0H451ZM827 3342V3547H1921V3342H827Z" />
<glyph unicode="&#x113;" glyph-name="emacron" horiz-adv-x="2343" d="M1970 127Q1842 55 1654 7T1229 -41Q900 -41 689 90T378 466T279 1057Q279 1374 384 1619T696 2003T1196 2142Q1480 2142 1677 2014T1974 1661T2073 1151Q2073 1084 2064 1028H541Q547 733
619 546T846 265T1253 172Q1462 172 1615 208T1970 328V127ZM1815 1237Q1806 1447 1731 1603T1519 1844T1192 1929Q1008 1929 867 1844T642 1602T545 1237H1815ZM651 2605V2810H1745V2605H651Z" />
<glyph unicode="&#x114;" glyph-name="Ebreve" horiz-adv-x="2462" d="M451 0V2966H2273V2744H709V1626H2052V1409H709V221H2273V0H451ZM1380 3207Q1216 3207 1085 3275T878 3471T802 3768H1007Q1013 3656 1062 3577T1194 3457T1384 3416Q1493 3416 1574 3456T1703
3576T1757 3768H1962Q1962 3598 1886 3471T1678 3276T1380 3207Z" />
<glyph unicode="&#x115;" glyph-name="ebreve" horiz-adv-x="2343" d="M1970 127Q1842 55 1654 7T1229 -41Q900 -41 689 90T378 466T279 1057Q279 1374 384 1619T696 2003T1196 2142Q1480 2142 1677 2014T1974 1661T2073 1151Q2073 1084 2064 1028H541Q547 733
619 546T846 265T1253 172Q1462 172 1615 208T1970 328V127ZM1815 1237Q1806 1447 1731 1603T1519 1844T1192 1929Q1008 1929 867 1844T642 1602T545 1237H1815ZM1782 3006Q1782 2836 1706 2709T1498 2514T1200 2445Q1036 2445 905 2513T698 2709T622 3006H827Q833
2894 882 2815T1014 2695T1204 2654Q1313 2654 1394 2694T1523 2814T1577 3006H1782Z" />
<glyph unicode="&#x116;" glyph-name="Edotaccent" horiz-adv-x="2462" d="M451 0V2966H2273V2744H709V1626H2052V1409H709V221H2273V0H451ZM1245 3342V3703H1495V3342H1245Z" />
<glyph unicode="&#x117;" glyph-name="edotaccent" horiz-adv-x="2343" d="M1970 127Q1842 55 1654 7T1229 -41Q900 -41 689 90T378 466T279 1057Q279 1374 384 1619T696 2003T1196 2142Q1480 2142 1677 2014T1974 1661T2073 1151Q2073 1084 2064 1028H541Q547
733 619 546T846 265T1253 172Q1462 172 1615 208T1970 328V127ZM1815 1237Q1806 1447 1731 1603T1519 1844T1192 1929Q1008 1929 867 1844T642 1602T545 1237H1815ZM1077 2605V2966H1327V2605H1077Z" />
<glyph unicode="&#x118;" glyph-name="Eogonek" horiz-adv-x="2462" d="M2302 -901Q2181 -938 2048 -938Q1843 -938 1733 -832T1622 -565Q1622 -406 1713 -262T1970 0H451V2966H2273V2744H709V1626H2052V1409H709V221H2273V20Q2047 -129 1958 -267T1868 -549Q1868
-646 1926 -698T2089 -750Q2199 -750 2302 -721V-901Z" />
<glyph unicode="&#x119;" glyph-name="eogonek" horiz-adv-x="2343" d="M1978 -901Q1857 -938 1724 -938Q1586 -938 1490 -888T1346 -753T1298 -565Q1298 -413 1385 -264T1606 0Q1517 -19 1421 -30T1229 -41Q900 -41 689 90T378 466T279 1057Q279 1374 384 1619T696
2003T1196 2142Q1480 2142 1677 2014T1974 1661T2073 1151Q2073 1081 2064 1028H541Q547 733 619 546T846 265T1253 172Q1462 172 1615 208T1970 328V127Q1724 -105 1634 -257T1544 -549Q1544 -646 1602 -698T1765 -750Q1875 -750 1978 -721V-901ZM1815 1237Q1806
1447 1731 1603T1519 1844T1192 1929Q1008 1929 867 1844T642 1602T545 1237H1815Z" />
<glyph unicode="&#x11a;" glyph-name="Ecaron" horiz-adv-x="2462" d="M451 0V2966H2273V2744H709V1626H2052V1409H709V221H2273V0H451ZM1228 3215L794 3768H1040L1380 3400L1720 3768H1962L1527 3215H1228Z" />
<glyph unicode="&#x11b;" glyph-name="ecaron" horiz-adv-x="2343" d="M1970 127Q1842 55 1654 7T1229 -41Q900 -41 689 90T378 466T279 1057Q279 1374 384 1619T696 2003T1196 2142Q1480 2142 1677 2014T1974 1661T2073 1151Q2073 1084 2064 1028H541Q547 733
619 546T846 265T1253 172Q1462 172 1615 208T1970 328V127ZM1815 1237Q1806 1447 1731 1603T1519 1844T1192 1929Q1008 1929 867 1844T642 1602T545 1237H1815ZM1056 2454L622 3006H868L1208 2638L1548 3006H1790L1355 2454H1056Z" />
<glyph unicode="&#x11c;" glyph-name="Gcircumflex" horiz-adv-x="2908" d="M1516 -41Q1096 -41 824 149T423 678T295 1479Q295 1967 443 2309T881 2828T1585 3006Q1778 3006 2000 2964T2380 2851V2634Q2193 2704 1977 2744T1569 2785Q1238 2785 1015 2641T678
2207T565 1483Q565 1085 664 794T976 342T1524 180Q1885 180 2241 307V1380H1454V1597H2499V180Q2008 -41 1516 -41ZM1905 3215L1565 3584L1225 3215H983L1417 3768H1716L2151 3215H1905Z" />
<glyph unicode="&#x11d;" glyph-name="gcircumflex" horiz-adv-x="2540" d="M1872 201Q1720 85 1556 22T1212 -41Q921 -41 712 82T391 446T279 1036Q279 1393 397 1641T727 2016T1221 2142Q1407 2142 1572 2088T1880 1937L1892 2101H2122V0Q2122 -311 2011 -523T1682
-842T1143 -950Q936 -950 753 -914T430 -819V-602Q572 -661 753 -699T1143 -737Q1400 -737 1560 -655T1796 -405T1872 25V201ZM1872 1720Q1729 1822 1570 1875T1241 1929Q1015 1929 859 1831T622 1536T541 1044Q541 755 620 561T855 270T1237 172Q1406 172 1559
232T1872 414V1720ZM1569 2454L1229 2822L889 2454H647L1081 3006H1380L1815 2454H1569Z" />
<glyph unicode="&#x11e;" glyph-name="Gbreve" horiz-adv-x="2908" d="M1516 -41Q1096 -41 824 149T423 678T295 1479Q295 1967 443 2309T881 2828T1585 3006Q1778 3006 2000 2964T2380 2851V2634Q2193 2704 1977 2744T1569 2785Q1238 2785 1015 2641T678 2207T565
1483Q565 1085 664 794T976 342T1524 180Q1885 180 2241 307V1380H1454V1597H2499V180Q2008 -41 1516 -41ZM1561 3207Q1397 3207 1266 3275T1059 3471T983 3768H1188Q1194 3656 1243 3577T1375 3457T1565 3416Q1674 3416 1755 3456T1884 3576T1938 3768H2143Q2143
3598 2067 3471T1859 3276T1561 3207Z" />
<glyph unicode="&#x11f;" glyph-name="gbreve" horiz-adv-x="2540" d="M1872 201Q1720 85 1556 22T1212 -41Q921 -41 712 82T391 446T279 1036Q279 1393 397 1641T727 2016T1221 2142Q1407 2142 1572 2088T1880 1937L1892 2101H2122V0Q2122 -311 2011 -523T1682
-842T1143 -950Q936 -950 753 -914T430 -819V-602Q572 -661 753 -699T1143 -737Q1400 -737 1560 -655T1796 -405T1872 25V201ZM1872 1720Q1729 1822 1570 1875T1241 1929Q1015 1929 859 1831T622 1536T541 1044Q541 755 620 561T855 270T1237 172Q1406 172 1559
232T1872 414V1720ZM1835 3006Q1835 2836 1759 2709T1551 2514T1253 2445Q1089 2445 958 2513T751 2709T675 3006H880Q886 2894 935 2815T1067 2695T1257 2654Q1366 2654 1447 2694T1576 2814T1630 3006H1835Z" />
<glyph unicode="&#x120;" glyph-name="Gdotaccent" horiz-adv-x="2908" d="M1516 -41Q1096 -41 824 149T423 678T295 1479Q295 1967 443 2309T881 2828T1585 3006Q1778 3006 2000 2964T2380 2851V2634Q2193 2704 1977 2744T1569 2785Q1238 2785 1015 2641T678
2207T565 1483Q565 1085 664 794T976 342T1524 180Q1885 180 2241 307V1380H1454V1597H2499V180Q2008 -41 1516 -41ZM1421 3342V3703H1671V3342H1421Z" />
<glyph unicode="&#x121;" glyph-name="gdotaccent" horiz-adv-x="2540" d="M1872 201Q1720 85 1556 22T1212 -41Q921 -41 712 82T391 446T279 1036Q279 1393 397 1641T727 2016T1221 2142Q1407 2142 1572 2088T1880 1937L1892 2101H2122V0Q2122 -311 2011 -523T1682
-842T1143 -950Q936 -950 753 -914T430 -819V-602Q572 -661 753 -699T1143 -737Q1400 -737 1560 -655T1796 -405T1872 25V201ZM1872 1720Q1729 1822 1570 1875T1241 1929Q1015 1929 859 1831T622 1536T541 1044Q541 755 620 561T855 270T1237 172Q1406 172 1559
232T1872 414V1720ZM1106 2605V2966H1356V2605H1106Z" />
<glyph unicode="&#x122;" glyph-name="Gcommaaccent" horiz-adv-x="2908" d="M1516 -41Q1096 -41 824 149T423 678T295 1479Q295 1967 443 2309T881 2828T1585 3006Q1778 3006 2000 2964T2380 2851V2634Q2193 2704 1977 2744T1569 2785Q1238 2785 1015 2641T678
2207T565 1483Q565 1085 664 794T976 342T1524 180Q1885 180 2241 307V1380H1454V1597H2499V180Q2008 -41 1516 -41ZM1212 -844L1438 -573L1376 -246H1524Q1625 -246 1672 -293T1720 -426Q1720 -524 1685 -594T1561 -754L1352 -963L1212 -844Z" />
<glyph unicode="&#x123;" glyph-name="gcommaaccent" horiz-adv-x="2540" d="M1872 201Q1720 85 1556 22T1212 -41Q921 -41 712 82T391 446T279 1036Q279 1393 397 1641T727 2016T1221 2142Q1407 2142 1572 2088T1880 1937L1892 2101H2122V0Q2122 -311 2011 -523T1682
-842T1143 -950Q936 -950 753 -914T430 -819V-602Q572 -661 753 -699T1143 -737Q1400 -737 1560 -655T1796 -405T1872 25V201ZM1872 1720Q1729 1822 1570 1875T1241 1929Q1015 1929 859 1831T622 1536T541 1044Q541 755 620 561T855 270T1237 172Q1406 172 1559
232T1872 414V1720ZM1217 2454Q1115 2454 1068 2500T1020 2634Q1020 2734 1056 2808T1180 2970L1389 3178L1528 3060L1303 2789L1364 2454H1217Z" />
<glyph unicode="&#x124;" glyph-name="Hcircumflex" horiz-adv-x="3047" d="M2339 0V1409H709V0H451V2966H709V1630H2339V2966H2597V0H2339ZM1864 3215L1524 3584L1184 3215H942L1376 3768H1675L2110 3215H1864Z" />
<glyph unicode="&#x125;" glyph-name="hcircumflex" horiz-adv-x="2540" d="M1888 0V1438Q1888 1620 1829 1728T1656 1882T1372 1929Q1171 1929 1000 1870T668 1688V0H418V3080H668V1901Q810 2010 994 2076T1384 2142Q1620 2142 1788 2074T2047 1861T2138 1487V0H1888ZM889
3261L549 3629L209 3261H-33L401 3813H700L1135 3261H889Z" />
<glyph unicode="&#x126;" glyph-name="Hbar" horiz-adv-x="3113" d="M2372 0V1409H741V0H483V2154H188V2372H483V2966H741V2372H2372V2966H2630V2372H2925V2154H2630V0H2372ZM2372 2154H741V1630H2372V2154Z" />
<glyph unicode="&#x127;" glyph-name="hbar" horiz-adv-x="2540" d="M1888 0V1438Q1888 1620 1829 1728T1656 1882T1372 1929Q1171 1929 1000 1870T668 1688V0H418V2494H156V2699H418V3080H668V2699H1126V2494H668V1901Q810 2010 994 2076T1384 2142Q1620 2142
1788 2074T2047 1861T2138 1487V0H1888Z" />
<glyph unicode="&#x128;" glyph-name="Itilde" horiz-adv-x="1159" d="M451 0V2966H709V0H451ZM1237 3678Q1237 3578 1215 3494T1146 3347T1029 3250T861 3215Q795 3215 739 3234T632 3282T537 3344T450 3406T368 3454T287 3473Q200 3473 162 3409T123 3215H-82Q-82
3315 -60 3400T9 3546T127 3643T295 3678Q360 3678 417 3659T524 3611T619 3549T705 3487T787 3439T869 3420Q955 3420 994 3484T1033 3678H1237Z" />
<glyph unicode="&#x129;" glyph-name="itilde" horiz-adv-x="1085" d="M418 0V2101H668V0H418ZM1200 2941Q1200 2841 1178 2757T1109 2610T992 2513T824 2478Q758 2478 702 2497T595 2545T500 2607T413 2669T331 2717T250 2736Q163 2736 125 2672T86 2478H-119Q-119
2578 -97 2662T-28 2809T90 2906T258 2941Q323 2941 380 2922T487 2874T582 2812T668 2750T750 2702T832 2683Q918 2683 957 2747T996 2941H1200Z" />
<glyph unicode="&#x12a;" glyph-name="Imacron" horiz-adv-x="1159" d="M451 0V2966H709V0H451ZM33 3342V3547H1127V3342H33Z" />
<glyph unicode="&#x12b;" glyph-name="imacron" horiz-adv-x="1085" d="M418 0V2101H668V0H418ZM-4 2605V2810H1090V2605H-4Z" />
<glyph unicode="&#x12c;" glyph-name="Ibreve" horiz-adv-x="1159" d="M451 0V2966H709V0H451ZM578 3207Q414 3207 283 3275T76 3471T0 3768H205Q211 3656 260 3577T392 3457T582 3416Q691 3416 772 3456T901 3576T955 3768H1160Q1160 3598 1084 3471T876 3276T578 3207Z" />
<glyph unicode="&#x12d;" glyph-name="ibreve" horiz-adv-x="1085" d="M418 0V2101H668V0H418ZM1123 3006Q1123 2836 1047 2709T839 2514T541 2445Q377 2445 246 2513T39 2709T-37 3006H168Q174 2894 223 2815T355 2695T545 2654Q654 2654 735 2694T864 2814T918
3006H1123Z" />
<glyph unicode="&#x12e;" glyph-name="Iogonek" horiz-adv-x="1159" d="M852 -901Q731 -938 598 -938Q393 -938 283 -832T172 -565Q172 -427 241 -290T451 0V2966H709V0Q541 -182 480 -308T418 -549Q418 -646 476 -698T639 -750Q749 -750 852 -721V-901Z" />
<glyph unicode="&#x12f;" glyph-name="iogonek" horiz-adv-x="1085" d="M811 -901Q690 -938 557 -938Q419 -938 323 -888T179 -753T131 -565Q131 -426 202 -289T418 0V2101H668V0Q498 -189 438 -313T377 -549Q377 -646 435 -698T598 -750Q708 -750 811 -721V-901ZM418
2605V2966H668V2605H418Z" />
<glyph unicode="&#x130;" glyph-name="Idotaccent" horiz-adv-x="1159" d="M451 0V2966H709V0H451ZM455 3342V3703H705V3342H455Z" />
<glyph unicode="&#x131;" glyph-name="dotlessi" horiz-adv-x="1085" d="M418 0V2101H668V0H418Z" />
<glyph unicode="&#x132;" glyph-name="IJ" horiz-adv-x="2580" d="M451 0V2966H709V0H451ZM1163 -291Q1245 -307 1335 -307Q1509 -307 1627 -236T1809 -6T1872 410V2744H1409V2966H2130V426Q2130 90 2031 -122T1756 -431T1343 -528Q1238 -528 1163 -508V-291Z" />
<glyph unicode="&#x133;" glyph-name="ij" horiz-adv-x="2171" d="M418 0V2101H668V0H418ZM418 2605V2966H668V2605H418ZM888 -721Q962 -737 1048 -737Q1209 -737 1309 -660T1456 -420T1503 0V2101H1753V-45Q1753 -351 1672 -553T1438 -852T1069 -950Q971 -950
888 -930V-721ZM1503 2605V2966H1753V2605H1503Z" />
<glyph unicode="&#x134;" glyph-name="Jcircumflex" horiz-adv-x="1421" d="M4 -291Q86 -307 176 -307Q350 -307 468 -236T650 -6T713 410V2744H250V2966H971V426Q971 90 872 -122T597 -431T184 -528Q79 -528 4 -508V-291ZM1387 3215L1047 3584L707 3215H465L899
3768H1198L1633 3215H1387Z" />
<glyph unicode="&#x135;" glyph-name="jcircumflex" horiz-adv-x="1085" d="M-172 -721Q-98 -737 -12 -737Q149 -737 249 -660T396 -420T443 0V2101H693V-45Q693 -351 612 -553T378 -852T9 -950Q-89 -950 -172 -930V-721ZM909 2454L569 2822L229 2454H-13L421
3006H720L1155 2454H909Z" />
<glyph unicode="&#x136;" glyph-name="Kcommaaccent" horiz-adv-x="2666" d="M2220 0L709 1421V0H451V2966H709V1577L2208 2966H2556L1208 1720L963 1520L1171 1335L2601 0H2220ZM1069 -844L1295 -573L1233 -246H1381Q1482 -246 1529 -293T1577 -426Q1577 -524
1542 -594T1418 -754L1209 -963L1069 -844Z" />
<glyph unicode="&#x137;" glyph-name="kcommaaccent" horiz-adv-x="2154" d="M1769 0L668 1024V0H418V3080H668V1151L1708 2101H2028L1073 1233Q994 1160 922 1106Q1046 1012 1122 942L2142 0H1769ZM864 -844L1090 -573L1028 -246H1176Q1277 -246 1324 -293T1372
-426Q1372 -524 1337 -594T1213 -754L1004 -963L864 -844Z" />
<glyph unicode="&#x139;" glyph-name="Lacute" horiz-adv-x="2146" d="M451 0V2966H709V221H2064V0H451ZM1145 3768H1493L973 3215H723L1145 3768Z" />
<glyph unicode="&#x13a;" glyph-name="lacute" horiz-adv-x="1245" d="M1163 29Q991 -20 848 -20Q632 -20 521 82T410 430V3080H659V455Q659 323 703 258T864 193Q1013 193 1163 225V29ZM406 3261L828 3813H1176L656 3261H406Z" />
<glyph unicode="&#x13b;" glyph-name="Lcommaaccent" horiz-adv-x="2146" d="M451 0V2966H709V221H2064V0H451ZM942 -844L1168 -573L1106 -246H1254Q1355 -246 1402 -293T1450 -426Q1450 -524 1415 -594T1291 -754L1082 -963L942 -844Z" />
<glyph unicode="&#x13c;" glyph-name="lcommaaccent" horiz-adv-x="1245" d="M1163 29Q991 -20 848 -20Q632 -20 521 82T410 430V3080H659V455Q659 323 703 258T864 193Q1013 193 1163 225V29ZM475 -844L701 -573L639 -246H787Q888 -246 935 -293T983 -426Q983
-524 948 -594T824 -754L615 -963L475 -844Z" />
<glyph unicode="&#x13d;" glyph-name="Lcaron" horiz-adv-x="2146" d="M451 0V2966H709V221H2064V0H451ZM1110 2257L1204 2691L1155 3080H1286Q1382 3080 1426 3027T1470 2867Q1470 2797 1446 2706T1376 2486L1294 2257H1110Z" />
<glyph unicode="&#x13e;" glyph-name="lcaron" horiz-adv-x="1245" d="M1163 29Q991 -20 848 -20Q632 -20 521 82T410 430V3080H659V455Q659 323 703 258T864 193Q1013 193 1163 225V29ZM889 2257L983 2691L934 3080H1065Q1161 3080 1205 3027T1249 2867Q1249
2797 1225 2706T1155 2486L1073 2257H889Z" />
<glyph unicode="&#x13f;" glyph-name="Ldot" horiz-adv-x="2146" d="M451 0V2966H709V221H2064V0H451ZM1479 1360V1737H1806V1360H1479Z" />
<glyph unicode="&#x140;" glyph-name="ldot" horiz-adv-x="1290" d="M1163 29Q991 -20 848 -20Q632 -20 521 82T410 430V3080H659V455Q659 323 703 258T864 193Q1013 193 1163 225V29ZM1040 1245V1605H1351V1245H1040Z" />
<glyph unicode="&#x141;" glyph-name="Lslash" horiz-adv-x="2179" d="M483 0V1237L127 1077V1286L483 1446V2966H741V1565L1458 1888V1679L741 1356V221H2097V0H483Z" />
<glyph unicode="&#x142;" glyph-name="lslash" horiz-adv-x="1311" d="M1204 29Q1032 -20 889 -20Q673 -20 562 82T451 430V1290L119 1143V1348L451 1495V3080H700V1610L1102 1790V1585L700 1405V455Q700 323 744 258T905 193Q1054 193 1204 225V29Z" />
<glyph unicode="&#x143;" glyph-name="Nacute" horiz-adv-x="3129" d="M2400 0L958 2171Q793 2426 692 2638Q709 2434 709 2150V0H451V2966H733L2171 803Q2336 548 2437 336Q2421 544 2421 823V2966H2679V0H2400ZM1864 3768H2212L1692 3215H1442L1864 3768Z" />
<glyph unicode="&#x144;" glyph-name="nacute" horiz-adv-x="2540" d="M1888 0V1438Q1888 1620 1829 1728T1656 1882T1372 1929Q1171 1929 1000 1870T668 1688V0H418V2101H647L664 1896Q808 2008 992 2075T1384 2142Q1620 2142 1788 2074T2047 1861T2138 1487V0H1888ZM1188
2454L1610 3006H1958L1438 2454H1188Z" />
<glyph unicode="&#x145;" glyph-name="Ncommaaccent" horiz-adv-x="3129" d="M2400 0L958 2171Q793 2426 692 2638Q709 2434 709 2150V0H451V2966H733L2171 803Q2336 548 2437 336Q2421 544 2421 823V2966H2679V0H2400ZM1257 -844L1483 -573L1421 -246H1569Q1670
-246 1717 -293T1765 -426Q1765 -524 1730 -594T1606 -754L1397 -963L1257 -844Z" />
<glyph unicode="&#x146;" glyph-name="ncommaaccent" horiz-adv-x="2540" d="M1888 0V1438Q1888 1620 1829 1728T1656 1882T1372 1929Q1171 1929 1000 1870T668 1688V0H418V2101H647L664 1896Q808 2008 992 2075T1384 2142Q1620 2142 1788 2074T2047 1861T2138
1487V0H1888ZM958 -844L1184 -573L1122 -246H1270Q1371 -246 1418 -293T1466 -426Q1466 -524 1431 -594T1307 -754L1098 -963L958 -844Z" />
<glyph unicode="&#x147;" glyph-name="Ncaron" horiz-adv-x="3129" d="M2400 0L958 2171Q793 2426 692 2638Q709 2434 709 2150V0H451V2966H733L2171 803Q2336 548 2437 336Q2421 544 2421 823V2966H2679V0H2400ZM1437 3215L1003 3768H1249L1589 3400L1929 3768H2171L1736
3215H1437Z" />
<glyph unicode="&#x148;" glyph-name="ncaron" horiz-adv-x="2540" d="M1888 0V1438Q1888 1620 1829 1728T1656 1882T1372 1929Q1171 1929 1000 1870T668 1688V0H418V2101H647L664 1896Q808 2008 992 2075T1384 2142Q1620 2142 1788 2074T2047 1861T2138 1487V0H1888ZM1163
2454L729 3006H975L1315 2638L1655 3006H1897L1462 2454H1163Z" />
<glyph unicode="&#x149;" glyph-name="napostrophe" horiz-adv-x="2793" d="M33 2187L266 2662L221 3080H418Q505 3080 549 3032T594 2896Q594 2773 547 2663T364 2351L254 2187H33ZM2142 0V1438Q2142 1620 2083 1728T1910 1882T1626 1929Q1425 1929 1254 1870T922
1688V0H672V2101H901L918 1896Q1062 2008 1246 2075T1638 2142Q1874 2142 2042 2074T2301 1861T2392 1487V0H2142Z" />
<glyph unicode="&#x14a;" glyph-name="Eng" horiz-adv-x="3129" d="M2679 4Q2679 -332 2580 -544T2305 -853T1892 -950Q1787 -950 1712 -930V-713Q1794 -729 1884 -729Q2057 -729 2176 -659T2358 -433T2421 -29L958 2171Q793 2426 692 2638Q709 2434 709 2150V0H451V2966H733L2171
803Q2336 548 2437 336Q2421 544 2421 823V2966H2679V4Z" />
<glyph unicode="&#x14b;" glyph-name="eng" horiz-adv-x="2540" d="M418 0V2101H647L664 1896Q808 2008 992 2075T1384 2142Q1620 2142 1788 2074T2047 1861T2138 1487V-45Q2138 -351 2057 -553T1823 -852T1454 -950Q1356 -950 1274 -930V-721Q1348 -737 1434
-737Q1594 -737 1694 -660T1841 -420T1888 0V1438Q1888 1620 1829 1728T1656 1882T1372 1929Q1171 1929 1000 1870T668 1688V0H418Z" />
<glyph unicode="&#x14c;" glyph-name="Omacron" horiz-adv-x="2994" d="M1491 -41Q1081 -41 814 152T421 686T295 1479Q295 1927 424 2270T824 2810T1503 3006Q1913 3006 2180 2813T2573 2279T2699 1487Q2699 1038 2570 695T2170 155T1491 -41ZM1499 180Q1817
180 2024 344T2330 800T2429 1483Q2429 1874 2331 2165T2024 2621T1495 2785Q1177 2785 970 2621T664 2166T565 1483Q565 1092 663 800T970 344T1499 180ZM950 3342V3547H2044V3342H950Z" />
<glyph unicode="&#x14d;" glyph-name="omacron" horiz-adv-x="2494" d="M1245 -41Q919 -41 703 98T383 481T279 1049Q279 1368 385 1614T710 2001T1249 2142Q1575 2142 1791 2004T2112 1620T2216 1053Q2216 733 2110 487T1785 100T1245 -41ZM1245 172Q1489 172
1647 280T1879 584T1954 1053Q1954 1322 1879 1517T1647 1821T1249 1929Q1006 1929 848 1821T616 1517T541 1049Q541 780 616 584T848 280T1245 172ZM700 2605V2810H1794V2605H700Z" />
<glyph unicode="&#x14e;" glyph-name="Obreve" horiz-adv-x="2994" d="M1491 -41Q1081 -41 814 152T421 686T295 1479Q295 1927 424 2270T824 2810T1503 3006Q1913 3006 2180 2813T2573 2279T2699 1487Q2699 1038 2570 695T2170 155T1491 -41ZM1499 180Q1817 180
2024 344T2330 800T2429 1483Q2429 1874 2331 2165T2024 2621T1495 2785Q1177 2785 970 2621T664 2166T565 1483Q565 1092 663 800T970 344T1499 180ZM1495 3207Q1331 3207 1200 3275T993 3471T917 3768H1122Q1128 3656 1177 3577T1309 3457T1499 3416Q1608 3416
1689 3456T1818 3576T1872 3768H2077Q2077 3598 2001 3471T1793 3276T1495 3207Z" />
<glyph unicode="&#x14f;" glyph-name="obreve" horiz-adv-x="2494" d="M1245 -41Q919 -41 703 98T383 481T279 1049Q279 1368 385 1614T710 2001T1249 2142Q1575 2142 1791 2004T2112 1620T2216 1053Q2216 733 2110 487T1785 100T1245 -41ZM1245 172Q1489 172
1647 280T1879 584T1954 1053Q1954 1322 1879 1517T1647 1821T1249 1929Q1006 1929 848 1821T616 1517T541 1049Q541 780 616 584T848 280T1245 172ZM1827 3006Q1827 2836 1751 2709T1543 2514T1245 2445Q1081 2445 950 2513T743 2709T667 3006H872Q878 2894 927
2815T1059 2695T1249 2654Q1358 2654 1439 2694T1568 2814T1622 3006H1827Z" />
<glyph unicode="&#x150;" glyph-name="Ohungarumlaut" horiz-adv-x="2994" d="M1491 -41Q1081 -41 814 152T421 686T295 1479Q295 1927 424 2270T824 2810T1503 3006Q1913 3006 2180 2813T2573 2279T2699 1487Q2699 1038 2570 695T2170 155T1491 -41ZM1499 180Q1817
180 2024 344T2330 800T2429 1483Q2429 1874 2331 2165T2024 2621T1495 2785Q1177 2785 970 2621T664 2166T565 1483Q565 1092 663 800T970 344T1499 180ZM1041 3215L1299 3768H1598L1258 3215H1041ZM1704 3215L1962 3768H2261L1921 3215H1704Z" />
<glyph unicode="&#x151;" glyph-name="ohungarumlaut" horiz-adv-x="2494" d="M1245 -41Q919 -41 703 98T383 481T279 1049Q279 1368 385 1614T710 2001T1249 2142Q1575 2142 1791 2004T2112 1620T2216 1053Q2216 733 2110 487T1785 100T1245 -41ZM1245 172Q1489
172 1647 280T1879 584T1954 1053Q1954 1322 1879 1517T1647 1821T1249 1929Q1006 1929 848 1821T616 1517T541 1049Q541 780 616 584T848 280T1245 172ZM811 2454L1069 3006H1368L1028 2454H811ZM1474 2454L1732 3006H2031L1691 2454H1474Z" />
<glyph unicode="&#x152;" glyph-name="OE" horiz-adv-x="4116" d="M2146 0Q1838 -41 1548 -41Q1111 -41 832 152T424 684T295 1479Q295 1930 427 2272T842 2810T1561 3006Q1794 3006 2146 2966H3928V2744H2404V1630H3707V1409H2404V221H3928V0H2146ZM2146 2744Q1810
2785 1548 2785Q1205 2785 986 2622T666 2168T565 1483Q565 1089 666 798T988 344T1556 180Q1893 180 2146 221V2744Z" />
<glyph unicode="&#x153;" glyph-name="oe" horiz-adv-x="4006" d="M3633 127Q3505 55 3317 7T2892 -41Q2577 -41 2367 84T2073 459Q1972 219 1764 89T1245 -41Q919 -41 703 98T383 481T279 1049Q279 1368 385 1614T710 2001T1249 2142Q1570 2142 1780 2007T2081
1634Q2177 1878 2377 2010T2859 2142Q3143 2142 3340 2014T3637 1661T3736 1151Q3736 1064 3727 1028H2204Q2210 733 2282 546T2509 265T2916 172Q3125 172 3277 208T3633 328V127ZM1245 172Q1489 172 1647 280T1879 584T1954 1053Q1954 1322 1879 1517T1647 1821T1249
1929Q1006 1929 848 1821T616 1517T541 1049Q541 780 616 584T848 280T1245 172ZM3478 1237Q3469 1447 3394 1603T3182 1844T2855 1929Q2671 1929 2530 1844T2305 1602T2208 1237H3478Z" />
<glyph unicode="&#x154;" glyph-name="Racute" horiz-adv-x="2724" d="M2208 0L1491 1032Q1396 1168 1308 1225T1090 1282H709V0H451V2966H1294Q1629 2966 1851 2862T2179 2570T2286 2126Q2286 1886 2193 1712T1932 1437T1544 1311Q1600 1279 1662 1214T1786 1061L2527
0H2208ZM1294 1499Q1517 1499 1678 1565T1927 1771T2015 2122Q2015 2310 1939 2449T1701 2666T1286 2744H709V1499H1294ZM1565 3768H1913L1393 3215H1143L1565 3768Z" />
<glyph unicode="&#x155;" glyph-name="racute" horiz-adv-x="1720" d="M418 0V2101H647L664 1782Q728 1882 818 1962T1031 2092T1307 2142Q1400 2142 1476 2126T1614 2085V1847Q1539 1870 1450 1885T1286 1901Q1139 1901 1029 1850T833 1697T668 1438V0H418ZM848
2454L1270 3006H1618L1098 2454H848Z" />
<glyph unicode="&#x156;" glyph-name="Rcommaaccent" horiz-adv-x="2724" d="M2208 0L1491 1032Q1396 1168 1308 1225T1090 1282H709V0H451V2966H1294Q1629 2966 1851 2862T2179 2570T2286 2126Q2286 1886 2193 1712T1932 1437T1544 1311Q1600 1279 1662 1214T1786
1061L2527 0H2208ZM1294 1499Q1517 1499 1678 1565T1927 1771T2015 2122Q2015 2310 1939 2449T1701 2666T1286 2744H709V1499H1294ZM1065 -844L1291 -573L1229 -246H1377Q1478 -246 1525 -293T1573 -426Q1573 -524 1538 -594T1414 -754L1205 -963L1065 -844Z" />
<glyph unicode="&#x157;" glyph-name="rcommaaccent" horiz-adv-x="1720" d="M418 0V2101H647L664 1782Q728 1882 818 1962T1031 2092T1307 2142Q1400 2142 1476 2126T1614 2085V1847Q1539 1870 1450 1885T1286 1901Q1139 1901 1029 1850T833 1697T668 1438V0H418ZM237
-844L463 -573L401 -246H549Q650 -246 697 -293T745 -426Q745 -524 710 -594T586 -754L377 -963L237 -844Z" />
<glyph unicode="&#x158;" glyph-name="Rcaron" horiz-adv-x="2724" d="M2208 0L1491 1032Q1396 1168 1308 1225T1090 1282H709V0H451V2966H1294Q1629 2966 1851 2862T2179 2570T2286 2126Q2286 1886 2193 1712T1932 1437T1544 1311Q1600 1279 1662 1214T1786 1061L2527
0H2208ZM1294 1499Q1517 1499 1678 1565T1927 1771T2015 2122Q2015 2310 1939 2449T1701 2666T1286 2744H709V1499H1294ZM1097 3215L663 3768H909L1249 3400L1589 3768H1831L1396 3215H1097Z" />
<glyph unicode="&#x159;" glyph-name="rcaron" horiz-adv-x="1720" d="M418 0V2101H647L664 1782Q728 1882 818 1962T1031 2092T1307 2142Q1400 2142 1476 2126T1614 2085V1847Q1539 1870 1450 1885T1286 1901Q1139 1901 1029 1850T833 1697T668 1438V0H418ZM872
2454L438 3006H684L1024 2638L1364 3006H1606L1171 2454H872Z" />
<glyph unicode="&#x15a;" glyph-name="Sacute" horiz-adv-x="2400" d="M254 389Q424 301 667 241T1139 180Q1404 180 1572 253T1816 456T1892 758Q1892 947 1812 1063T1586 1249T1188 1384Q889 1462 695 1560T390 1823T279 2245Q279 2462 385 2634T708 2906T1241
3006Q1441 3006 1644 2957T1995 2826V2593Q1830 2680 1632 2732T1237 2785Q1004 2785 848 2719T617 2535T541 2257Q541 2068 621 1952T847 1766T1245 1630Q1543 1552 1737 1455T2043 1192T2154 770Q2154 533 2037 350T1688 63T1130 -41Q871 -41 646 10T254 152V389ZM1479
3768H1827L1307 3215H1057L1479 3768Z" />
<glyph unicode="&#x15b;" glyph-name="sacute" horiz-adv-x="2048" d="M262 319Q397 257 587 215T958 172Q1163 172 1294 218T1487 350T1548 553Q1548 674 1485 747T1313 862T1008 950Q759 1009 605 1078T367 1263T283 1561Q283 1729 364 1859T619 2066T1057 2142Q1222
2142 1385 2106T1667 2007V1794Q1535 1855 1374 1892T1053 1929Q871 1929 755 1886T586 1765T532 1577Q532 1456 595 1383T768 1267T1073 1180Q1322 1121 1476 1052T1714 867T1798 569Q1798 387 1705 250T1422 36T950 -41Q755 -41 575 -3T262 102V319ZM873 2454L1295
3006H1643L1123 2454H873Z" />
<glyph unicode="&#x15c;" glyph-name="Scircumflex" horiz-adv-x="2400" d="M254 389Q424 301 667 241T1139 180Q1404 180 1572 253T1816 456T1892 758Q1892 947 1812 1063T1586 1249T1188 1384Q889 1462 695 1560T390 1823T279 2245Q279 2462 385 2634T708 2906T1241
3006Q1441 3006 1644 2957T1995 2826V2593Q1830 2680 1632 2732T1237 2785Q1004 2785 848 2719T617 2535T541 2257Q541 2068 621 1952T847 1766T1245 1630Q1543 1552 1737 1455T2043 1192T2154 770Q2154 533 2037 350T1688 63T1130 -41Q871 -41 646 10T254 152V389ZM1544
3215L1204 3584L864 3215H622L1056 3768H1355L1790 3215H1544Z" />
<glyph unicode="&#x15d;" glyph-name="scircumflex" horiz-adv-x="2048" d="M262 319Q397 257 587 215T958 172Q1163 172 1294 218T1487 350T1548 553Q1548 674 1485 747T1313 862T1008 950Q759 1009 605 1078T367 1263T283 1561Q283 1729 364 1859T619 2066T1057
2142Q1222 2142 1385 2106T1667 2007V1794Q1535 1855 1374 1892T1053 1929Q871 1929 755 1886T586 1765T532 1577Q532 1456 595 1383T768 1267T1073 1180Q1322 1121 1476 1052T1714 867T1798 569Q1798 387 1705 250T1422 36T950 -41Q755 -41 575 -3T262 102V319ZM1372
2454L1032 2822L692 2454H450L884 3006H1183L1618 2454H1372Z" />
<glyph unicode="&#x15e;" glyph-name="Scedilla" horiz-adv-x="2400" d="M795 -729Q886 -750 1016 -750Q1101 -750 1163 -714T1225 -586Q1225 -489 1143 -438T926 -356L1102 -41Q859 -38 638 13T254 152V389Q424 301 667 241T1139 180Q1404 180 1572 253T1816
456T1892 758Q1892 947 1812 1063T1586 1249T1188 1384Q889 1462 695 1560T390 1823T279 2245Q279 2462 385 2634T708 2906T1241 3006Q1441 3006 1644 2957T1995 2826V2593Q1830 2680 1632 2732T1237 2785Q1004 2785 848 2719T617 2535T541 2257Q541 2068 621 1952T847
1766T1245 1630Q1543 1552 1737 1455T2043 1192T2154 770Q2154 540 2049 368T1752 94T1303 -33L1184 -246Q1318 -294 1394 -378T1470 -578Q1470 -761 1343 -849T1028 -938Q903 -938 795 -905V-729Z" />
<glyph unicode="&#x15f;" glyph-name="scedilla" horiz-adv-x="2048" d="M590 -729Q681 -750 811 -750Q896 -750 958 -714T1020 -586Q1020 -489 938 -438T721 -356L897 -41Q698 -33 538 6T262 102V319Q397 257 587 215T958 172Q1163 172 1294 218T1487 350T1548
553Q1548 674 1485 747T1313 862T1008 950Q759 1009 605 1078T367 1263T283 1561Q283 1729 364 1859T619 2066T1057 2142Q1222 2142 1385 2106T1667 2007V1794Q1535 1855 1374 1892T1053 1929Q871 1929 755 1886T586 1765T532 1577Q532 1456 595 1383T768 1267T1073
1180Q1322 1121 1476 1052T1714 867T1798 569Q1798 405 1723 277T1491 67T1094 -37L979 -246Q1113 -294 1189 -378T1266 -578Q1266 -761 1139 -849T823 -938Q698 -938 590 -905V-729Z" />
<glyph unicode="&#x160;" glyph-name="Scaron" horiz-adv-x="2400" d="M254 389Q424 301 667 241T1139 180Q1404 180 1572 253T1816 456T1892 758Q1892 947 1812 1063T1586 1249T1188 1384Q889 1462 695 1560T390 1823T279 2245Q279 2462 385 2634T708 2906T1241
3006Q1441 3006 1644 2957T1995 2826V2593Q1830 2680 1632 2732T1237 2785Q1004 2785 848 2719T617 2535T541 2257Q541 2068 621 1952T847 1766T1245 1630Q1543 1552 1737 1455T2043 1192T2154 770Q2154 533 2037 350T1688 63T1130 -41Q871 -41 646 10T254 152V389ZM1077
3215L643 3768H889L1229 3400L1569 3768H1811L1376 3215H1077Z" />
<glyph unicode="&#x161;" glyph-name="scaron" horiz-adv-x="2048" d="M262 319Q397 257 587 215T958 172Q1163 172 1294 218T1487 350T1548 553Q1548 674 1485 747T1313 862T1008 950Q759 1009 605 1078T367 1263T283 1561Q283 1729 364 1859T619 2066T1057 2142Q1222
2142 1385 2106T1667 2007V1794Q1535 1855 1374 1892T1053 1929Q871 1929 755 1886T586 1765T532 1577Q532 1456 595 1383T768 1267T1073 1180Q1322 1121 1476 1052T1714 867T1798 569Q1798 387 1705 250T1422 36T950 -41Q755 -41 575 -3T262 102V319ZM884 2454L450
3006H696L1036 2638L1376 3006H1618L1183 2454H884Z" />
<glyph unicode="&#x162;" glyph-name="Tcommaaccent" horiz-adv-x="2454" d="M1098 0V2744H127V2966H2327V2744H1356V0H1098ZM901 -844L1127 -573L1065 -246H1213Q1314 -246 1361 -293T1409 -426Q1409 -524 1374 -594T1250 -754L1041 -963L901 -844Z" />
<glyph unicode="&#x163;" glyph-name="tcommaaccent" horiz-adv-x="1749" d="M1597 49Q1520 12 1393 -14T1135 -41Q951 -41 822 6T617 177T541 520V1892H111V2101H541L553 2724H791V2101H1638V1892H791V549Q791 394 837 312T963 201T1167 172Q1287 172 1396 195T1597
258V49ZM725 -844L951 -573L889 -246H1037Q1138 -246 1185 -293T1233 -426Q1233 -524 1198 -594T1074 -754L865 -963L725 -844Z" />
<glyph unicode="&#x164;" glyph-name="Tcaron" horiz-adv-x="2454" d="M1098 0V2744H127V2966H2327V2744H1356V0H1098ZM1077 3215L643 3768H889L1229 3400L1569 3768H1811L1376 3215H1077Z" />
<glyph unicode="&#x165;" glyph-name="tcaron" horiz-adv-x="1749" d="M1597 49Q1520 12 1393 -14T1135 -41Q951 -41 822 6T617 177T541 520V1892H111V2101H541L553 2724H791V2101H1638V1892H791V549Q791 394 837 312T963 201T1167 172Q1287 172 1396 195T1597
258V49ZM1118 2445L1212 2879L1163 3268H1294Q1390 3268 1434 3215T1478 3055Q1478 2985 1454 2894T1384 2674L1302 2445H1118Z" />
<glyph unicode="&#x166;" glyph-name="Tbar" horiz-adv-x="2454" d="M1098 0V1270H385V1487H1098V2744H127V2966H2327V2744H1356V1487H2068V1270H1356V0H1098Z" />
<glyph unicode="&#x167;" glyph-name="tbar" horiz-adv-x="1749" d="M1597 49Q1520 12 1393 -14T1135 -41Q951 -41 822 6T617 177T541 520V958H295V1180H541V1892H111V2101H541L553 2724H791V2101H1638V1892H791V1180H1290V958H791V549Q791 394 837 312T963 201T1167
172Q1287 172 1396 195T1597 258V49Z" />
<glyph unicode="&#x168;" glyph-name="Utilde" horiz-adv-x="2916" d="M2241 2966H2499V967Q2499 613 2374 389T2017 62T1454 -41Q1119 -41 890 60T539 380T418 942V2966H676V967Q676 569 868 375T1462 180Q1857 180 2049 372T2241 954V2966ZM2154 3678Q2154 3578
2132 3494T2063 3347T1946 3250T1778 3215Q1712 3215 1656 3234T1549 3282T1454 3344T1367 3406T1285 3454T1204 3473Q1117 3473 1079 3409T1040 3215H835Q835 3315 857 3400T926 3546T1044 3643T1212 3678Q1277 3678 1334 3659T1441 3611T1536 3549T1622 3487T1704
3439T1786 3420Q1872 3420 1911 3484T1950 3678H2154Z" />
<glyph unicode="&#x169;" glyph-name="utilde" horiz-adv-x="2523" d="M1876 0L1860 205Q1715 93 1532 26T1147 -41Q915 -41 749 27T492 240T401 614V2101H651V664Q651 482 710 374T880 219T1159 172Q1355 172 1525 231T1855 414V2101H2105V0H1876ZM1921 2941Q1921
2841 1899 2757T1830 2610T1713 2513T1545 2478Q1479 2478 1423 2497T1316 2545T1221 2607T1134 2669T1052 2717T971 2736Q884 2736 846 2672T807 2478H602Q602 2578 624 2662T693 2809T811 2906T979 2941Q1044 2941 1101 2922T1208 2874T1303 2812T1389 2750T1471
2702T1553 2683Q1639 2683 1678 2747T1717 2941H1921Z" />
<glyph unicode="&#x16a;" glyph-name="Umacron" horiz-adv-x="2916" d="M2241 2966H2499V967Q2499 613 2374 389T2017 62T1454 -41Q1119 -41 890 60T539 380T418 942V2966H676V967Q676 569 868 375T1462 180Q1857 180 2049 372T2241 954V2966ZM913 3342V3547H2007V3342H913Z"
/>
<glyph unicode="&#x16b;" glyph-name="umacron" horiz-adv-x="2523" d="M1876 0L1860 205Q1715 93 1532 26T1147 -41Q915 -41 749 27T492 240T401 614V2101H651V664Q651 482 710 374T880 219T1159 172Q1355 172 1525 231T1855 414V2101H2105V0H1876ZM717 2605V2810H1811V2605H717Z"
/>
<glyph unicode="&#x16c;" glyph-name="Ubreve" horiz-adv-x="2916" d="M2241 2966H2499V967Q2499 613 2374 389T2017 62T1454 -41Q1119 -41 890 60T539 380T418 942V2966H676V967Q676 569 868 375T1462 180Q1857 180 2049 372T2241 954V2966ZM1458 3207Q1294 3207
1163 3275T956 3471T880 3768H1085Q1091 3656 1140 3577T1272 3457T1462 3416Q1571 3416 1652 3456T1781 3576T1835 3768H2040Q2040 3598 1964 3471T1756 3276T1458 3207Z" />
<glyph unicode="&#x16d;" glyph-name="ubreve" horiz-adv-x="2523" d="M1876 0L1860 205Q1715 93 1532 26T1147 -41Q915 -41 749 27T492 240T401 614V2101H651V664Q651 482 710 374T880 219T1159 172Q1355 172 1525 231T1855 414V2101H2105V0H1876ZM1844 3006Q1844
2836 1768 2709T1560 2514T1262 2445Q1098 2445 967 2513T760 2709T684 3006H889Q895 2894 944 2815T1076 2695T1266 2654Q1375 2654 1456 2694T1585 2814T1639 3006H1844Z" />
<glyph unicode="&#x16e;" glyph-name="Uring" horiz-adv-x="2916" d="M2241 2966H2499V967Q2499 613 2374 389T2017 62T1454 -41Q1119 -41 890 60T539 380T418 942V2966H676V967Q676 569 868 375T1462 180Q1857 180 2049 372T2241 954V2966ZM1905 3596Q1905 3484
1852 3388T1695 3233T1446 3174Q1299 3174 1195 3231T1039 3384T987 3592Q987 3704 1040 3800T1197 3955T1446 4014Q1593 4014 1697 3957T1853 3804T1905 3596ZM1700 3592Q1700 3657 1671 3713T1585 3804T1446 3838Q1364 3838 1307 3804T1221 3715T1192 3596Q1192
3531 1221 3475T1307 3385T1446 3351Q1528 3351 1585 3384T1671 3473T1700 3592Z" />
<glyph unicode="&#x16f;" glyph-name="uring" horiz-adv-x="2523" d="M1876 0L1860 205Q1715 93 1532 26T1147 -41Q915 -41 749 27T492 240T401 614V2101H651V664Q651 482 710 374T880 219T1159 172Q1355 172 1525 231T1855 414V2101H2105V0H1876ZM1725 2867Q1725
2745 1672 2642T1516 2476T1266 2413Q1118 2413 1015 2474T859 2638T807 2863Q807 2985 860 3089T1016 3255T1266 3318Q1414 3318 1517 3257T1673 3093T1725 2867ZM1520 2863Q1520 2937 1491 3000T1404 3103T1266 3142Q1184 3142 1127 3104T1041 3002T1012 2867Q1012
2793 1041 2730T1127 2628T1266 2589Q1348 2589 1405 2627T1491 2728T1520 2863Z" />
<glyph unicode="&#x170;" glyph-name="Uhungarumlaut" horiz-adv-x="2916" d="M2241 2966H2499V967Q2499 613 2374 389T2017 62T1454 -41Q1119 -41 890 60T539 380T418 942V2966H676V967Q676 569 868 375T1462 180Q1857 180 2049 372T2241 954V2966ZM1004 3215L1262
3768H1561L1221 3215H1004ZM1667 3215L1925 3768H2224L1884 3215H1667Z" />
<glyph unicode="&#x171;" glyph-name="uhungarumlaut" horiz-adv-x="2523" d="M1876 0L1860 205Q1715 93 1532 26T1147 -41Q915 -41 749 27T492 240T401 614V2101H651V664Q651 482 710 374T880 219T1159 172Q1355 172 1525 231T1855 414V2101H2105V0H1876ZM807
2454L1065 3006H1364L1024 2454H807ZM1470 2454L1728 3006H2027L1687 2454H1470Z" />
<glyph unicode="&#x172;" glyph-name="Uogonek" horiz-adv-x="2916" d="M1929 -901Q1808 -938 1675 -938Q1537 -938 1441 -888T1297 -753T1249 -565Q1249 -415 1341 -258T1577 -33Q1519 -41 1454 -41Q1119 -41 890 60T539 380T418 942V2966H676V967Q676 569 868
375T1462 180Q1857 180 2049 372T2241 954V2966H2499V967Q2499 714 2436 529T2245 217Q2145 118 1935 -4T1659 -193Q1570 -281 1533 -362T1495 -549Q1495 -646 1553 -698T1716 -750Q1826 -750 1929 -721V-901Z" />
<glyph unicode="&#x173;" glyph-name="uogonek" horiz-adv-x="2523" d="M2200 -901Q2079 -938 1946 -938Q1808 -938 1712 -888T1568 -753T1520 -565Q1520 -406 1619 -249T1876 16L1860 205Q1715 93 1532 26T1147 -41Q915 -41 749 27T492 240T401 614V2101H651V664Q651
482 710 374T880 219T1159 172Q1355 172 1525 231T1855 414V2101H2105V0Q1912 -169 1839 -292T1765 -549Q1765 -646 1823 -698T1987 -750Q2095 -750 2200 -721V-901Z" />
<glyph unicode="&#x174;" glyph-name="Wcircumflex" horiz-adv-x="4407" d="M3047 0L2277 2290Q2217 2472 2187 2621Q2151 2439 2101 2290L1364 0H1085L90 2966H369L1122 676Q1196 456 1233 307Q1278 494 1339 676L2077 2966H2327L3080 676Q3154 456 3191 307Q3236
494 3297 676L4051 2966H4317L3322 0H3047ZM2544 3215L2204 3584L1864 3215H1622L2056 3768H2355L2790 3215H2544Z" />
<glyph unicode="&#x175;" glyph-name="wcircumflex" horiz-adv-x="3310" d="M2224 0L1741 1487Q1704 1587 1655 1782Q1628 1679 1569 1487L1085 0H791L78 2101H348L868 500Q896 415 954 205Q976 312 1032 500L1552 2101H1769L2290 500Q2346 312 2367 205Q2433
436 2454 500L2961 2101H3232L2519 0H2224ZM1995 2454L1655 2822L1315 2454H1073L1507 3006H1806L2241 2454H1995Z" />
<glyph unicode="&#x176;" glyph-name="Ycircumflex" horiz-adv-x="2441" d="M1090 0V1176L49 2966H348L1110 1634Q1189 1498 1229 1417Q1269 1498 1348 1634L2109 2966H2392L1348 1167V0H1090ZM1561 3215L1221 3584L881 3215H639L1073 3768H1372L1807 3215H1561Z" />
<glyph unicode="&#x177;" glyph-name="ycircumflex" horiz-adv-x="2044" d="M12 -725Q68 -737 156 -737Q318 -737 446 -675T681 -468T877 -78L893 -33L61 2101H336L930 524Q996 348 1028 205Q1068 351 1130 520L1712 2101H1982L1098 -156Q991 -433 859 -608T561
-866T184 -950Q87 -950 12 -930V-725ZM1360 2454L1020 2822L680 2454H438L872 3006H1171L1606 2454H1360Z" />
<glyph unicode="&#x178;" glyph-name="Ydieresis" horiz-adv-x="2441" d="M1090 0V1176L49 2966H348L1110 1634Q1189 1498 1229 1417Q1269 1498 1348 1634L2109 2966H2392L1348 1167V0H1090ZM688 3342V3703H938V3342H688ZM1508 3342V3703H1757V3342H1508Z" />
<glyph unicode="&#x179;" glyph-name="Zacute" horiz-adv-x="2507" d="M176 0V221L1966 2744H221V2966H2269V2744L479 221H2331V0H176ZM1548 3768H1896L1376 3215H1126L1548 3768Z" />
<glyph unicode="&#x17a;" glyph-name="zacute" horiz-adv-x="2097" d="M225 0V209L1536 1892H270V2101H1827V1896L516 209H1872V0H225ZM893 2454L1315 3006H1663L1143 2454H893Z" />
<glyph unicode="&#x17b;" glyph-name="Zdotaccent" horiz-adv-x="2507" d="M176 0V221L1966 2744H221V2966H2269V2744L479 221H2331V0H176ZM1139 3342V3703H1389V3342H1139Z" />
<glyph unicode="&#x17c;" glyph-name="zdotaccent" horiz-adv-x="2097" d="M225 0V209L1536 1892H270V2101H1827V1896L516 209H1872V0H225ZM922 2605V2966H1172V2605H922Z" />
<glyph unicode="&#x17d;" glyph-name="Zcaron" horiz-adv-x="2507" d="M176 0V221L1966 2744H221V2966H2269V2744L479 221H2331V0H176ZM1122 3215L688 3768H934L1274 3400L1614 3768H1856L1421 3215H1122Z" />
<glyph unicode="&#x17e;" glyph-name="zcaron" horiz-adv-x="2097" d="M225 0V209L1536 1892H270V2101H1827V1896L516 209H1872V0H225ZM901 2454L467 3006H713L1053 2638L1393 3006H1635L1200 2454H901Z" />
<glyph unicode="&#x18f;" glyph-name="Schwa" horiz-adv-x="2949" d="M549 1266Q549 967 645 722T945 328T1454 180Q1765 180 1964 328T2261 718T2384 1266H549ZM401 2761Q643 2876 881 2941T1393 3006Q1814 3006 2096 2812T2516 2277T2654 1487Q2654 1039 2525
696T2127 156T1450 -41Q1049 -41 787 141T402 631T279 1323V1483H2384Q2384 1880 2278 2171T1948 2623T1376 2785Q1124 2785 891 2720T401 2527V2761Z" />
<glyph unicode="&#x192;" glyph-name="florin" horiz-adv-x="2646" d="M1409 1446L1245 442Q1197 139 1084 -48T798 -321T393 -406Q313 -406 217 -389L242 -184Q334 -193 406 -193Q567 -193 684 -129T878 76T991 442L1155 1446H532L569 1655H1188L1282 2236Q1321
2493 1419 2664T1672 2921T2032 3006Q2149 3006 2259 2989T2462 2937L2429 2732Q2342 2760 2236 2776T2032 2793Q1871 2793 1771 2729T1618 2544T1536 2236L1442 1655H2253L2220 1446H1409Z" />
<glyph unicode="&#x218;" glyph-name="Scommaaccent" horiz-adv-x="2400" d="M254 389Q424 301 667 241T1139 180Q1404 180 1572 253T1816 456T1892 758Q1892 947 1812 1063T1586 1249T1188 1384Q889 1462 695 1560T390 1823T279 2245Q279 2462 385 2634T708 2906T1241
3006Q1441 3006 1644 2957T1995 2826V2593Q1830 2680 1632 2732T1237 2785Q1004 2785 848 2719T617 2535T541 2257Q541 2068 621 1952T847 1766T1245 1630Q1543 1552 1737 1455T2043 1192T2154 770Q2154 533 2037 350T1688 63T1130 -41Q871 -41 646 10T254 152V389ZM876
-844L1102 -573L1040 -246H1188Q1289 -246 1336 -293T1384 -426Q1384 -524 1349 -594T1225 -754L1016 -963L876 -844Z" />
<glyph unicode="&#x219;" glyph-name="scommaaccent" horiz-adv-x="2048" d="M262 319Q397 257 587 215T958 172Q1163 172 1294 218T1487 350T1548 553Q1548 674 1485 747T1313 862T1008 950Q759 1009 605 1078T367 1263T283 1561Q283 1729 364 1859T619 2066T1057
2142Q1222 2142 1385 2106T1667 2007V1794Q1535 1855 1374 1892T1053 1929Q871 1929 755 1886T586 1765T532 1577Q532 1456 595 1383T768 1267T1073 1180Q1322 1121 1476 1052T1714 867T1798 569Q1798 387 1705 250T1422 36T950 -41Q755 -41 575 -3T262 102V319ZM680
-844L906 -573L844 -246H992Q1093 -246 1140 -293T1188 -426Q1188 -524 1153 -594T1029 -754L820 -963L680 -844Z" />
<glyph unicode="&#x21a;" glyph-name="uni021A" horiz-adv-x="2454" d="M1098 0V2744H127V2966H2327V2744H1356V0H1098ZM901 -844L1127 -573L1065 -246H1213Q1314 -246 1361 -293T1409 -426Q1409 -524 1374 -594T1250 -754L1041 -963L901 -844Z" />
<glyph unicode="&#x21b;" glyph-name="uni021B" horiz-adv-x="1749" d="M1597 49Q1520 12 1393 -14T1135 -41Q951 -41 822 6T617 177T541 520V1892H111V2101H541L553 2724H791V2101H1638V1892H791V549Q791 394 837 312T963 201T1167 172Q1287 172 1396 195T1597
258V49ZM725 -844L951 -573L889 -246H1037Q1138 -246 1185 -293T1233 -426Q1233 -524 1198 -594T1074 -754L865 -963L725 -844Z" />
<glyph unicode="&#x237;" glyph-name="dotlessj" horiz-adv-x="1085" d="M-197 -721Q-123 -737 -37 -737Q124 -737 224 -660T371 -420T418 0V2101H668V-45Q668 -351 587 -553T353 -852T-16 -950Q-114 -950 -197 -930V-721Z" />
<glyph unicode="&#x259;" glyph-name="schwa" horiz-adv-x="2343" d="M1114 2142Q1443 2142 1654 2011T1965 1635T2064 1044Q2064 727 1959 482T1647 98T1147 -41Q863 -41 666 87T369 440T270 950Q270 1013 279 1073H1802Q1796 1368 1723 1555T1496 1836T1090
1929Q882 1929 729 1893T373 1774V1974Q501 2046 689 2094T1114 2142ZM1151 172Q1335 172 1476 257T1701 499T1798 864H528Q537 654 612 498T824 257T1151 172Z" />
<glyph unicode="&#x2c6;" glyph-name="circumflex" horiz-adv-x="1790" d="M1233 2454L893 2822L553 2454H311L745 3006H1044L1479 2454H1233Z" />
<glyph unicode="&#x2c7;" glyph-name="caron" horiz-adv-x="1790" d="M745 2454L311 3006H557L897 2638L1237 3006H1479L1044 2454H745Z" />
<glyph unicode="&#x2d8;" glyph-name="breve" horiz-adv-x="1790" d="M1475 3006Q1475 2836 1399 2709T1191 2514T893 2445Q729 2445 598 2513T391 2709T315 3006H520Q526 2894 575 2815T707 2695T897 2654Q1006 2654 1087 2694T1216 2814T1270 3006H1475Z" />
<glyph unicode="&#x2d9;" glyph-name="dotaccent" horiz-adv-x="1790" d="M766 2605V2966H1016V2605H766Z" />
<glyph unicode="&#x2da;" glyph-name="ring" horiz-adv-x="1794" d="M1356 2867Q1356 2745 1303 2642T1147 2476T897 2413Q749 2413 646 2474T490 2638T438 2863Q438 2985 491 3089T647 3255T897 3318Q1045 3318 1148 3257T1304 3093T1356 2867ZM1151 2863Q1151
2937 1122 3000T1035 3103T897 3142Q815 3142 758 3104T672 3002T643 2867Q643 2793 672 2730T758 2628T897 2589Q979 2589 1036 2627T1122 2728T1151 2863Z" />
<glyph unicode="&#x2db;" glyph-name="ogonek" horiz-adv-x="1790" d="M1225 -901Q1104 -938 971 -938Q833 -938 737 -888T593 -753T545 -565Q545 -404 648 -241T926 41H1176Q1019 -96 936 -195T822 -376T791 -549Q791 -647 848 -698T1012 -750Q1120 -750 1225
-721V-901Z" />
<glyph unicode="&#x2dc;" glyph-name="tilde" horiz-adv-x="1790" d="M1552 2941Q1552 2841 1530 2757T1461 2610T1344 2513T1176 2478Q1110 2478 1054 2497T947 2545T852 2607T765 2669T683 2717T602 2736Q515 2736 477 2672T438 2478H233Q233 2578 255 2662T324
2809T442 2906T610 2941Q675 2941 732 2922T839 2874T934 2812T1020 2750T1102 2702T1184 2683Q1270 2683 1309 2747T1348 2941H1552Z" />
<glyph unicode="&#x2dd;" glyph-name="hungarumlaut" horiz-adv-x="1790" d="M283 2454L541 3006H840L500 2454H283ZM946 2454L1204 3006H1503L1163 2454H946Z" />
<glyph unicode="&#x312;" glyph-name="commatop" horiz-adv-x="1790" d="M877 2454Q775 2454 728 2500T680 2634Q680 2734 716 2808T840 2970L1049 3178L1188 3060L963 2789L1024 2454H877Z" />
<glyph unicode="&#x315;" glyph-name="caronslovak" horiz-adv-x="1790" d="M676 2257L770 2691L721 3080H852Q948 3080 992 3027T1036 2867Q1036 2797 1012 2706T942 2486L860 2257H676Z" />
<glyph unicode="&#x326;" glyph-name="commaaccent" horiz-adv-x="1790" d="M655 -844L881 -573L819 -246H967Q1068 -246 1115 -293T1163 -426Q1163 -524 1128 -594T1004 -754L795 -963L655 -844Z" />
<glyph unicode="&#x384;" glyph-name="tonos" horiz-adv-x="1790" d="M741 3125H1049L958 2454H831L741 3125Z" />
<glyph unicode="&#x385;" glyph-name="dieresistonos" horiz-adv-x="1790" d="M274 2966H524V2605H274V2966ZM741 3125H1049L958 2454H831L741 3125ZM1257 2966H1507V2605H1257V2966Z" />
<glyph unicode="&#x386;" glyph-name="Alphatonos" horiz-adv-x="2720" d="M2343 0L2036 836H668L360 0H90L1212 2966H1511L2630 0H2343ZM1442 2462Q1390 2604 1356 2720Q1314 2581 1270 2462L750 1053H1958L1442 2462ZM299 3092H607L516 2421H389L299 3092Z" />
<glyph unicode="&#x388;" glyph-name="Epsilontonos" horiz-adv-x="2638" d="M627 0V2966H2449V2744H885V1626H2228V1409H885V221H2449V0H627ZM-25 3092H283L192 2421H65L-25 3092Z" />
<glyph unicode="&#x389;" glyph-name="Etatonos" horiz-adv-x="3224" d="M2515 0V1409H885V0H627V2966H885V1630H2515V2966H2773V0H2515ZM-25 3092H283L192 2421H65L-25 3092Z" />
<glyph unicode="&#x38a;" glyph-name="Iotatonos" horiz-adv-x="1335" d="M627 0V2966H885V0H627ZM-25 3092H283L192 2421H65L-25 3092Z" />
<glyph unicode="&#x38c;" glyph-name="Omicrontonos" horiz-adv-x="3117" d="M1614 -41Q1204 -41 937 152T544 686T418 1479Q418 1927 547 2270T947 2810T1626 3006Q2036 3006 2303 2813T2696 2279T2822 1487Q2822 1038 2693 695T2293 155T1614 -41ZM1622 180Q1940
180 2147 344T2453 800T2552 1483Q2552 1874 2454 2165T2147 2621T1618 2785Q1300 2785 1093 2621T787 2166T688 1483Q688 1092 786 800T1093 344T1622 180ZM-25 3092H283L192 2421H65L-25 3092Z" />
<glyph unicode="&#x38e;" glyph-name="Upsilontonos" horiz-adv-x="2814" d="M1463 0V1176L422 2966H721L1483 1634Q1562 1498 1602 1417Q1642 1498 1721 1634L2482 2966H2765L1721 1167V0H1463ZM-74 3092H234L143 2421H16L-74 3092Z" />
<glyph unicode="&#x38f;" glyph-name="Omegatonos" horiz-adv-x="3158" d="M369 221H987Q701 440 562 763T422 1511Q422 1944 551 2280T952 2811T1630 3006Q2039 3006 2307 2815T2700 2289T2826 1520Q2826 1097 2675 771T2232 221H2879V0H1855V184Q2096 342 2247
517T2477 934T2556 1516Q2556 1891 2458 2176T2150 2623T1622 2785Q1305 2785 1097 2623T791 2176T692 1516Q692 1175 770 934T999 517T1393 184V0H369V221ZM-25 3092H283L192 2421H65L-25 3092Z" />
<glyph unicode="&#x390;" glyph-name="iotadieresistonos" horiz-adv-x="1245" d="M848 -20Q632 -20 521 82T410 430V2101H659V455Q659 323 703 258T864 193Q1013 193 1163 225V29Q991 -20 848 -20ZM-78 2966H172V2605H-78V2966ZM389 3125H697L606 2454H479L389
3125ZM905 2966H1155V2605H905V2966Z" />
<glyph unicode="&#x391;" glyph-name="Alpha" horiz-adv-x="2720" d="M2343 0L2036 836H668L360 0H90L1212 2966H1511L2630 0H2343ZM1442 2462Q1390 2604 1356 2720Q1314 2581 1270 2462L750 1053H1958L1442 2462Z" />
<glyph unicode="&#x392;" glyph-name="Beta" horiz-adv-x="2654" d="M451 0V2966H1253Q1570 2966 1789 2876T2122 2611T2236 2183Q2236 2027 2187 1898T2046 1678T1827 1544Q2013 1496 2135 1391T2317 1136T2376 807Q2376 557 2264 377T1921 98T1348 0H451ZM1356
221Q1616 221 1782 291T2027 491T2105 807Q2105 993 2026 1123T1779 1323T1352 1393H709V221H1356ZM1225 1610Q1481 1610 1646 1678T1888 1872T1966 2175Q1966 2352 1889 2479T1645 2675T1217 2744H709V1610H1225Z" />
<glyph unicode="&#x393;" glyph-name="Gamma" horiz-adv-x="2146" d="M451 2966H2064V2744H709V0H451V2966Z" />
<glyph unicode="&#x394;" glyph-name="uni0394" horiz-adv-x="2757" d="M152 0V225L1225 2966H1524L2605 225V0H152ZM1466 2429Q1422 2542 1368 2720Q1314 2544 1270 2425L418 225H2322L1466 2429Z" />
<glyph unicode="&#x395;" glyph-name="Epsilon" horiz-adv-x="2462" d="M451 0V2966H2273V2744H709V1626H2052V1409H709V221H2273V0H451Z" />
<glyph unicode="&#x396;" glyph-name="Zeta" horiz-adv-x="2507" d="M176 0V221L1966 2744H221V2966H2269V2744L479 221H2331V0H176Z" />
<glyph unicode="&#x397;" glyph-name="Eta" horiz-adv-x="3047" d="M2339 0V1409H709V0H451V2966H709V1630H2339V2966H2597V0H2339Z" />
<glyph unicode="&#x398;" glyph-name="Theta" horiz-adv-x="2994" d="M868 1626H2126V1409H868V1626ZM1491 -41Q1081 -41 814 152T421 686T295 1479Q295 1927 424 2270T824 2810T1503 3006Q1913 3006 2180 2813T2573 2279T2699 1487Q2699 1038 2570 695T2170 155T1491
-41ZM1499 180Q1817 180 2024 344T2330 800T2429 1483Q2429 1874 2331 2165T2024 2621T1495 2785Q1177 2785 970 2621T664 2166T565 1483Q565 1092 663 800T970 344T1499 180Z" />
<glyph unicode="&#x399;" glyph-name="Iota" horiz-adv-x="1159" d="M451 0V2966H709V0H451Z" />
<glyph unicode="&#x39a;" glyph-name="Kappa" horiz-adv-x="2666" d="M2220 0L709 1421V0H451V2966H709V1577L2208 2966H2556L1208 1720L963 1520L1171 1335L2601 0H2220Z" />
<glyph unicode="&#x39b;" glyph-name="Lambda" horiz-adv-x="2679" d="M1192 2966H1491L2597 0H2310L1421 2462Q1369 2607 1335 2720Q1301 2604 1249 2462L352 0H82L1192 2966Z" />
<glyph unicode="&#x39c;" glyph-name="Mu" horiz-adv-x="3617" d="M451 2966H766L1692 1434Q1770 1307 1819 1196Q1865 1304 1946 1434L2871 2966H3166V0H2908V2302Q2908 2472 2920 2638Q2855 2484 2761 2331L1901 905H1716L856 2331Q759 2489 696 2638Q709 2478
709 2302V0H451V2966Z" />
<glyph unicode="&#x39d;" glyph-name="Nu" horiz-adv-x="3129" d="M2400 0L958 2171Q793 2426 692 2638Q709 2434 709 2150V0H451V2966H733L2171 803Q2336 548 2437 336Q2421 544 2421 823V2966H2679V0H2400Z" />
<glyph unicode="&#x39e;" glyph-name="Xi" horiz-adv-x="2306" d="M188 229H2118V0H188V229ZM369 1630H1937V1405H369V1630ZM188 2966H2118V2736H188V2966Z" />
<glyph unicode="&#x39f;" glyph-name="Omicron" horiz-adv-x="2994" d="M1491 -41Q1081 -41 814 152T421 686T295 1479Q295 1927 424 2270T824 2810T1503 3006Q1913 3006 2180 2813T2573 2279T2699 1487Q2699 1038 2570 695T2170 155T1491 -41ZM1499 180Q1817
180 2024 344T2330 800T2429 1483Q2429 1874 2331 2165T2024 2621T1495 2785Q1177 2785 970 2621T664 2166T565 1483Q565 1092 663 800T970 344T1499 180Z" />
<glyph unicode="&#x3a0;" glyph-name="Pi" horiz-adv-x="3047" d="M2339 2744H709V0H451V2966H2597V0H2339V2744Z" />
<glyph unicode="&#x3a1;" glyph-name="Rho" horiz-adv-x="2486" d="M451 0V2966H1352Q1678 2966 1896 2856T2220 2546T2327 2073Q2327 1818 2225 1617T1900 1296T1331 1176H709V0H451ZM1343 1397Q1587 1397 1746 1481T1981 1716T2056 2068Q2056 2276 1980 2426T1740
2660T1319 2744H709V1397H1343Z" />
<glyph unicode="&#x3a3;" glyph-name="Sigma" horiz-adv-x="2355" d="M205 221L1262 1511L238 2744V2966H2081V2744H561L1511 1602V1434L520 221H2109V0H205V221Z" />
<glyph unicode="&#x3a4;" glyph-name="Tau" horiz-adv-x="2454" d="M1098 0V2744H127V2966H2327V2744H1356V0H1098Z" />
<glyph unicode="&#x3a5;" glyph-name="Upsilon" horiz-adv-x="2441" d="M1090 0V1176L49 2966H348L1110 1634Q1189 1498 1229 1417Q1269 1498 1348 1634L2109 2966H2392L1348 1167V0H1090Z" />
<glyph unicode="&#x3a6;" glyph-name="Phi" horiz-adv-x="3404" d="M1573 242Q1122 256 815 415T355 855T201 1516Q201 1891 354 2173T815 2620T1573 2802V2966V3133H1831V2966V2802Q2281 2788 2588 2629T3049 2188T3203 1528Q3203 1152 3050 870T2589 424T1831
242V0V-106H1573V0V242ZM471 1520Q471 1199 594 966T963 603T1573 463V2580Q1210 2570 964 2440T594 2075T471 1520ZM2933 1524Q2933 1844 2810 2077T2441 2440T1831 2580V463Q2194 473 2440 604T2810 969T2933 1524Z" />
<glyph unicode="&#x3a7;" glyph-name="Chi" horiz-adv-x="2499" d="M2105 0L1397 1090Q1313 1216 1249 1327Q1225 1288 1094 1085L377 0H82L1094 1520L139 2966H451L1102 1970Q1211 1805 1253 1724Q1297 1806 1405 1970L2060 2966H2355L1405 1536L2417 0H2105Z" />
<glyph unicode="&#x3a8;" glyph-name="Psi" horiz-adv-x="3174" d="M1475 995Q1109 1008 850 1117T447 1457T303 2056V2966H561V2085Q561 1797 667 1609T975 1326T1475 1217V2966H1733V1217Q2017 1235 2212 1329T2510 1608T2613 2073V2966H2871V2085Q2871 1707
2726 1472T2328 1126T1733 995V0H1475V995Z" />
<glyph unicode="&#x3a9;" glyph-name="uni03A9" horiz-adv-x="3068" d="M279 221H897Q611 440 472 763T332 1511Q332 1944 461 2280T862 2811T1540 3006Q1949 3006 2217 2815T2610 2289T2736 1520Q2736 1097 2585 771T2142 221H2789V0H1765V184Q2006 342 2157
517T2387 934T2466 1516Q2466 1891 2368 2176T2060 2623T1532 2785Q1215 2785 1007 2623T701 2176T602 1516Q602 1175 680 934T909 517T1303 184V0H279V221Z" />
<glyph unicode="&#x3aa;" glyph-name="Iotadieresis" horiz-adv-x="1159" d="M451 0V2966H709V0H451ZM45 3342V3703H295V3342H45ZM865 3342V3703H1114V3342H865Z" />
<glyph unicode="&#x3ab;" glyph-name="Upsilondieresis" horiz-adv-x="2441" d="M1090 0V1176L49 2966H348L1110 1634Q1189 1498 1229 1417Q1269 1498 1348 1634L2109 2966H2392L1348 1167V0H1090ZM688 3342V3703H938V3342H688ZM1508 3342V3703H1757V3342H1508Z" />
<glyph unicode="&#x3ac;" glyph-name="alphatonos" horiz-adv-x="2564" d="M1143 -41Q891 -41 695 89T389 463T279 1036Q279 1384 396 1634T716 2013T1167 2142Q1371 2142 1544 2049T1860 1794L1876 2101H2105V422Q2105 340 2120 288T2171 208T2269 180Q2373 180
2482 205V12Q2371 -33 2232 -33Q2138 -33 2056 5T1920 127T1860 336Q1723 164 1550 62T1143 -41ZM1167 172Q1364 172 1553 308T1855 635V1458Q1739 1660 1560 1794T1184 1929Q993 1929 848 1829T622 1529T541 1044Q541 767 617 571T833 274T1167 172ZM1044 3125H1352L1261
2454H1134L1044 3125Z" />
<glyph unicode="&#x3ad;" glyph-name="epsilontonos" horiz-adv-x="2036" d="M1114 -41Q833 -41 641 36T354 249T258 565Q258 698 309 802T454 977T680 1085Q575 1125 502 1194T390 1353T352 1544Q352 1731 447 1866T715 2071T1118 2142Q1284 2142 1478 2103T1786
2011V1790Q1667 1846 1478 1887T1114 1929Q957 1929 845 1887T673 1762T614 1561Q614 1441 674 1355T852 1223T1143 1176H1528V967H1126Q919 967 784 921T585 786T520 573Q520 450 585 360T785 221T1126 172Q1319 172 1510 209T1851 315V94Q1721 34 1523 -3T1114
-41ZM950 3125H1258L1167 2454H1040L950 3125Z" />
<glyph unicode="&#x3ae;" glyph-name="etatonos" horiz-adv-x="2540" d="M418 2101H647L664 1896Q808 2008 992 2075T1384 2142Q1620 2142 1788 2074T2047 1861T2138 1487V-922H1888V1438Q1888 1620 1829 1728T1656 1882T1372 1929Q1171 1929 1000 1870T668 1688V0H418V2101ZM1159
3125H1467L1376 2454H1249L1159 3125Z" />
<glyph unicode="&#x3af;" glyph-name="iotatonos" horiz-adv-x="1245" d="M848 -20Q632 -20 521 82T410 430V2101H659V455Q659 323 703 258T864 193Q1013 193 1163 225V29Q991 -20 848 -20ZM385 3125H693L602 2454H475L385 3125Z" />
<glyph unicode="&#x3b0;" glyph-name="upsilondieresistonos" horiz-adv-x="2425" d="M1233 -41Q943 -41 758 72T487 396T401 905V2101H651V926Q651 659 713 494T904 250T1241 172Q1451 172 1580 263T1770 555T1831 1085Q1831 1345 1790 1593T1675 2101H1909Q1988
1902 2036 1643T2085 1094Q2085 718 1986 465T1697 86T1233 -41ZM598 2966H848V2605H598V2966ZM1065 3125H1373L1282 2454H1155L1065 3125ZM1581 2966H1831V2605H1581V2966Z" />
<glyph unicode="&#x3b1;" glyph-name="alpha" horiz-adv-x="2564" d="M1143 -41Q891 -41 695 89T389 463T279 1036Q279 1384 396 1634T716 2013T1167 2142Q1371 2142 1544 2049T1860 1794L1876 2101H2105V422Q2105 340 2120 288T2171 208T2269 180Q2373 180 2482
205V12Q2371 -33 2232 -33Q2138 -33 2056 5T1920 127T1860 336Q1723 164 1550 62T1143 -41ZM1167 172Q1364 172 1553 308T1855 635V1458Q1739 1660 1560 1794T1184 1929Q993 1929 848 1829T622 1529T541 1044Q541 767 617 571T833 274T1167 172Z" />
<glyph unicode="&#x3b2;" glyph-name="beta" horiz-adv-x="2490" d="M418 2298Q418 2586 530 2768T836 3034T1286 3117Q1532 3117 1707 3036T1973 2806T2064 2458Q2064 2273 1982 2119T1750 1852T1397 1675Q1671 1622 1857 1488T2133 1169T2224 778Q2224 567 2121
380T1813 76T1319 -41Q1133 -41 969 12T668 160V-922H418V2298ZM668 381Q811 279 969 226T1298 172Q1516 172 1665 250T1888 463T1962 766Q1962 996 1857 1149T1552 1397T1049 1552V1765Q1261 1807 1430 1894T1700 2121T1802 2454Q1802 2584 1739 2686T1556 2846T1274
2904Q1085 2904 950 2837T741 2635T668 2298V381Z" />
<glyph unicode="&#x3b3;" glyph-name="gamma" horiz-adv-x="2146" d="M999 -37L373 1737Q346 1809 324 1847T269 1903T184 1921Q107 1921 41 1905V2105Q138 2134 233 2134Q334 2134 403 2102T521 2001T610 1815L1049 520Q1100 364 1130 205Q1172 358 1233 520L1815
2101H2085L1249 -37V-922H999V-37Z" />
<glyph unicode="&#x3b4;" glyph-name="delta" horiz-adv-x="2494" d="M1245 -41Q919 -41 703 98T383 481T279 1049Q279 1368 385 1614T710 2001T1249 2142Q1337 2142 1397 2126Q1306 2186 1200 2294L618 2871V3080H1896V2871H954L1831 1999Q1969 1861 2053 1724T2176
1426T2216 1053Q2216 733 2110 487T1785 100T1245 -41ZM1245 172Q1489 172 1647 280T1879 584T1954 1053Q1954 1322 1879 1517T1647 1821T1249 1929Q1006 1929 848 1821T616 1517T541 1049Q541 780 616 584T848 280T1245 172Z" />
<glyph unicode="&#x3b5;" glyph-name="epsilon" horiz-adv-x="2036" d="M1114 -41Q833 -41 641 36T354 249T258 565Q258 698 309 802T454 977T680 1085Q575 1125 502 1194T390 1353T352 1544Q352 1731 447 1866T715 2071T1118 2142Q1284 2142 1478 2103T1786 2011V1790Q1667
1846 1478 1887T1114 1929Q957 1929 845 1887T673 1762T614 1561Q614 1441 674 1355T852 1223T1143 1176H1528V967H1126Q919 967 784 921T585 786T520 573Q520 450 585 360T785 221T1126 172Q1319 172 1510 209T1851 315V94Q1721 34 1523 -3T1114 -41Z" />
<glyph unicode="&#x3b6;" glyph-name="zeta" horiz-adv-x="1827" d="M1425 -528Q1496 -227 1511 0H1335Q975 0 738 104T386 408T270 893Q270 1247 413 1625T797 2331T1323 2871H344V3080H1688V2871Q1342 2663 1078 2332T671 1627T528 913Q528 676 616 521T887
290T1356 213H1593Q1676 213 1720 167T1765 49Q1765 -41 1722 -225T1630 -528H1425Z" />
<glyph unicode="&#x3b7;" glyph-name="eta" horiz-adv-x="2540" d="M418 2101H647L664 1896Q808 2008 992 2075T1384 2142Q1620 2142 1788 2074T2047 1861T2138 1487V-922H1888V1438Q1888 1620 1829 1728T1656 1882T1372 1929Q1171 1929 1000 1870T668 1688V0H418V2101Z" />
<glyph unicode="&#x3b8;" glyph-name="theta" horiz-adv-x="2519" d="M1257 -41Q929 -41 714 152T395 697T291 1536Q291 2016 397 2371T720 2921T1262 3117Q1590 3117 1805 2924T2124 2379T2228 1540Q2228 1060 2122 705T1799 155T1257 -41ZM1257 172Q1500 172
1656 327T1887 766T1970 1446H549Q557 1052 633 769T863 329T1257 172ZM1262 2904Q1020 2904 866 2749T637 2316T549 1655H1970Q1960 2035 1884 2313T1654 2747T1262 2904Z" />
<glyph unicode="&#x3b9;" glyph-name="iota" horiz-adv-x="1245" d="M848 -20Q632 -20 521 82T410 430V2101H659V455Q659 323 703 258T864 193Q1013 193 1163 225V29Q991 -20 848 -20Z" />
<glyph unicode="&#x3ba;" glyph-name="kappa" horiz-adv-x="2154" d="M418 2101H668V1135L1724 2101H2044L1073 1217Q994 1143 922 1090Q1046 996 1122 926L2126 0H1753L668 1008V0H418V2101Z" />
<glyph unicode="&#x3bb;" glyph-name="lambda" horiz-adv-x="2134" d="M877 2118L750 2474Q683 2662 624 2756T501 2881T340 2912Q279 2912 205 2896V3097Q305 3125 389 3125Q544 3125 648 3071T830 2894T987 2552L1761 373Q1797 269 1835 229T1950 188Q2023 188
2093 205V4Q1992 -25 1901 -25Q1752 -25 1668 48T1524 295L1085 1581Q1033 1740 1004 1896Q962 1743 901 1581L319 0H49L877 2118Z" />
<glyph unicode="&#x3bc;" glyph-name="uni03BC" horiz-adv-x="2580" d="M2249 -33Q2125 -33 2028 31T1896 209Q1743 95 1554 27T1163 -41Q1000 -41 875 -5T651 115Q668 -51 668 -250V-922H418V2101H668V664Q668 482 727 374T897 219T1176 172Q1372 172 1542 231T1872
414V2101H2122V422Q2122 291 2162 236T2286 180Q2390 180 2499 205V12Q2387 -33 2249 -33Z" />
<glyph unicode="&#x3bd;" glyph-name="nu" horiz-adv-x="2044" d="M881 0L61 2101H336L930 524Q996 348 1028 205Q1068 351 1130 520L1712 2101H1982L1159 0H881Z" />
<glyph unicode="&#x3be;" glyph-name="xi" horiz-adv-x="1974" d="M1520 -528Q1594 -218 1606 0H1401Q1049 0 800 92T415 381T279 889Q279 1093 349 1256T540 1528T807 1683Q668 1731 568 1831T417 2062T365 2335Q365 2563 466 2740T761 3017T1221 3117Q1344 3117
1480 3096T1724 3035V2822Q1603 2861 1468 2882T1208 2904Q1023 2904 892 2836T694 2643T627 2351Q627 2176 700 2050T917 1857T1270 1790H1552V1581H1286Q1030 1581 864 1496T619 1257T541 897Q541 662 627 512T908 288T1425 213H1688Q1743 213 1782 191T1840
132T1860 49Q1860 -41 1816 -224T1724 -528H1520Z" />
<glyph unicode="&#x3bf;" glyph-name="omicron" horiz-adv-x="2494" d="M1245 -41Q919 -41 703 98T383 481T279 1049Q279 1368 385 1614T710 2001T1249 2142Q1575 2142 1791 2004T2112 1620T2216 1053Q2216 733 2110 487T1785 100T1245 -41ZM1245 172Q1489 172
1647 280T1879 584T1954 1053Q1954 1322 1879 1517T1647 1821T1249 1929Q1006 1929 848 1821T616 1517T541 1049Q541 780 616 584T848 280T1245 172Z" />
<glyph unicode="&#x3c0;" glyph-name="pi" horiz-adv-x="2642" d="M160 2101H2449V1892H1966V455Q1966 323 2010 258T2171 193Q2306 193 2458 225V29Q2284 -20 2154 -20Q1938 -20 1827 82T1716 430V1892H741V0H492V1892H160V2101Z" />
<glyph unicode="&#x3c1;" glyph-name="rho" horiz-adv-x="2494" d="M377 1057Q377 1380 470 1623T764 2004T1274 2142Q1588 2142 1799 2004T2113 1621T2216 1057Q2216 736 2110 489T1789 100T1257 -41Q1082 -41 922 8T627 147V-922H377V1057ZM1262 172Q1498 172
1652 280T1880 585T1954 1053Q1954 1321 1880 1517T1653 1821T1270 1929Q1036 1929 894 1818T689 1505T627 1020V369Q772 270 928 221T1262 172Z" />
<glyph unicode="&#x3c2;" glyph-name="sigma1" horiz-adv-x="2073" d="M1544 -528Q1615 -227 1630 0H1466Q1068 0 810 95T415 420T279 1049Q279 1368 385 1614T708 2001T1245 2142Q1398 2142 1546 2109T1798 2023V1798Q1695 1852 1538 1890T1233 1929Q1001 1929
847 1821T617 1517T541 1057Q541 759 625 577T915 304T1487 213H1712Q1768 213 1806 191T1864 132T1884 49Q1884 -40 1840 -223T1749 -528H1544Z" />
<glyph unicode="&#x3c3;" glyph-name="sigma" horiz-adv-x="2523" d="M1229 -41Q908 -41 695 97T381 476T279 1028Q279 1343 386 1584T719 1963T1286 2101H2408V1892H1810Q1911 1800 1995 1661T2129 1354T2179 1012Q2179 709 2074 471T1756 96T1229 -41ZM1917
1004Q1917 1173 1867 1340T1725 1649T1516 1892H1278Q1019 1892 855 1787T616 1491T541 1032Q541 773 614 581T842 280T1229 172Q1464 172 1617 276T1844 566T1917 1004Z" />
<glyph unicode="&#x3c4;" glyph-name="tau" horiz-adv-x="1835" d="M111 2101H1729V1892H967V455Q967 322 1012 258T1180 193Q1338 193 1495 225V29Q1316 -20 1167 -20Q945 -20 831 82T717 430V1892H111V2101Z" />
<glyph unicode="&#x3c5;" glyph-name="upsilon" horiz-adv-x="2425" d="M1233 -41Q943 -41 758 72T487 396T401 905V2101H651V926Q651 659 713 494T904 250T1241 172Q1451 172 1580 263T1770 555T1831 1085Q1831 1345 1790 1593T1675 2101H1909Q1988 1902 2036
1643T2085 1094Q2085 718 1986 465T1697 86T1233 -41Z" />
<glyph unicode="&#x3c6;" glyph-name="phi" horiz-adv-x="3076" d="M1413 -37Q1017 -21 760 116T380 491T258 1049Q258 1365 385 1603T770 1980T1413 2138V3080H1663V2138Q2059 2122 2316 1985T2696 1611T2818 1053Q2818 736 2691 498T2306 121T1663 -37V-922H1413V-37ZM520
1049Q520 783 614 595T907 300T1413 172V1929Q1100 1909 902 1802T612 1506T520 1049ZM2556 1053Q2556 1319 2462 1506T2169 1801T1663 1929V172Q1976 192 2174 299T2464 595T2556 1053Z" />
<glyph unicode="&#x3c7;" glyph-name="chi" horiz-adv-x="2089" d="M1970 -954Q1822 -954 1731 -884T1561 -647L1200 135Q1124 295 1069 434Q1038 333 950 160L393 -922H123L946 627L418 1720Q358 1843 307 1882T184 1921Q107 1921 41 1905V2105Q138 2134 233
2134Q381 2134 473 2064T643 1827L954 1151Q1045 952 1081 831Q1130 945 1204 1085L1724 2101H1995L1217 639L1798 -561Q1850 -670 1899 -705T2019 -741Q2097 -741 2163 -725V-926Q2065 -954 1970 -954Z" />
<glyph unicode="&#x3c8;" glyph-name="psi" horiz-adv-x="2974" d="M1364 -37Q1042 -17 828 96T507 411T401 905V2101H651V926Q651 666 733 507T971 272T1364 176V2740H1614V176Q1878 193 2045 283T2296 567T2380 1085Q2380 1345 2339 1593T2224 2101H2458Q2537
1902 2585 1643T2634 1094Q2634 724 2510 478T2157 106T1614 -37V-922H1364V-37Z" />
<glyph unicode="&#x3c9;" glyph-name="omega" horiz-adv-x="3232" d="M1016 -41Q773 -41 608 93T361 463T279 1008Q279 1329 379 1617T655 2101H942Q748 1895 645 1614T541 1024Q541 775 596 583T763 282T1040 172Q1184 172 1284 245T1437 479T1491 901V1573H1741V901Q1741
645 1798 483T1959 247T2212 172Q2372 172 2479 276T2638 569T2691 1008Q2691 1321 2586 1605T2290 2101H2576Q2754 1911 2853 1625T2953 1024Q2953 711 2871 472T2619 96T2200 -41Q1982 -41 1831 53T1610 336Q1533 155 1385 57T1016 -41Z" />
<glyph unicode="&#x3ca;" glyph-name="iotadieresis" horiz-adv-x="1245" d="M848 -20Q632 -20 521 82T410 430V2101H659V455Q659 323 703 258T864 193Q1013 193 1163 225V29Q991 -20 848 -20ZM4 2605V2966H254V2605H4ZM824 2605V2966H1073V2605H824Z" />
<glyph unicode="&#x3cb;" glyph-name="upsilondieresis" horiz-adv-x="2425" d="M1233 -41Q943 -41 758 72T487 396T401 905V2101H651V926Q651 659 713 494T904 250T1241 172Q1451 172 1580 263T1770 555T1831 1085Q1831 1345 1790 1593T1675 2101H1909Q1988 1902
2036 1643T2085 1094Q2085 718 1986 465T1697 86T1233 -41ZM680 2605V2966H930V2605H680ZM1500 2605V2966H1749V2605H1500Z" />
<glyph unicode="&#x3cc;" glyph-name="omicrontonos" horiz-adv-x="2494" d="M1245 -41Q919 -41 703 98T383 481T279 1049Q279 1368 385 1614T710 2001T1249 2142Q1575 2142 1791 2004T2112 1620T2216 1053Q2216 733 2110 487T1785 100T1245 -41ZM1245 172Q1489
172 1647 280T1879 584T1954 1053Q1954 1322 1879 1517T1647 1821T1249 1929Q1006 1929 848 1821T616 1517T541 1049Q541 780 616 584T848 280T1245 172ZM1093 3125H1401L1310 2454H1183L1093 3125Z" />
<glyph unicode="&#x3cd;" glyph-name="upsilontonos" horiz-adv-x="2425" d="M1233 -41Q943 -41 758 72T487 396T401 905V2101H651V926Q651 659 713 494T904 250T1241 172Q1451 172 1580 263T1770 555T1831 1085Q1831 1345 1790 1593T1675 2101H1909Q1988 1902
2036 1643T2085 1094Q2085 718 1986 465T1697 86T1233 -41ZM1065 3125H1373L1282 2454H1155L1065 3125Z" />
<glyph unicode="&#x3ce;" glyph-name="omegatonos" horiz-adv-x="3232" d="M1016 -41Q773 -41 608 93T361 463T279 1008Q279 1329 379 1617T655 2101H942Q748 1895 645 1614T541 1024Q541 775 596 583T763 282T1040 172Q1184 172 1284 245T1437 479T1491 901V1573H1741V901Q1741
645 1798 483T1959 247T2212 172Q2372 172 2479 276T2638 569T2691 1008Q2691 1321 2586 1605T2290 2101H2576Q2754 1911 2853 1625T2953 1024Q2953 711 2871 472T2619 96T2200 -41Q1982 -41 1831 53T1610 336Q1533 155 1385 57T1016 -41ZM1462 3125H1770L1679
2454H1552L1462 3125Z" />
<glyph unicode="&#x400;" glyph-name="uni0400" horiz-adv-x="2462" d="M451 0V2966H2273V2744H709V1626H2052V1409H709V221H2273V0H451ZM1314 3215L794 3768H1142L1564 3215H1314Z" />
<glyph unicode="&#x401;" glyph-name="uni0401" horiz-adv-x="2462" d="M451 0V2966H2273V2744H709V1626H2052V1409H709V221H2273V0H451ZM835 3342V3703H1085V3342H835ZM1655 3342V3703H1904V3342H1655Z" />
<glyph unicode="&#x402;" glyph-name="uni0402" horiz-adv-x="3006" d="M127 2966H2073V2744H1229V1913H1851Q2189 1913 2424 1802T2779 1477T2900 958Q2900 662 2781 447T2421 116T1827 0H1737V221H1855Q2107 221 2280 304T2541 552T2630 958Q2630 1189 2543
1353T2281 1605T1847 1692H1229V0H971V2744H127V2966Z" />
<glyph unicode="&#x403;" glyph-name="uni0403" horiz-adv-x="2146" d="M451 2966H2064V2744H709V0H451V2966ZM1495 3768H1843L1323 3215H1073L1495 3768Z" />
<glyph unicode="&#x404;" glyph-name="uni0404" horiz-adv-x="2519" d="M1507 -41Q1100 -41 829 143T427 668T295 1479Q295 1949 431 2291T841 2820T1516 3006Q1715 3006 1920 2961T2257 2847V2617Q2079 2697 1891 2741T1511 2785Q1201 2785 996 2640T688 2235T569
1626H1876V1409H565Q574 1035 676 761T988 333T1516 180Q1717 180 1920 222T2298 336V119Q2143 53 1929 6T1507 -41Z" />
<glyph unicode="&#x405;" glyph-name="uni0405" horiz-adv-x="2400" d="M254 389Q424 301 667 241T1139 180Q1404 180 1572 253T1816 456T1892 758Q1892 947 1812 1063T1586 1249T1188 1384Q889 1462 695 1560T390 1823T279 2245Q279 2462 385 2634T708 2906T1241
3006Q1441 3006 1644 2957T1995 2826V2593Q1830 2680 1632 2732T1237 2785Q1004 2785 848 2719T617 2535T541 2257Q541 2068 621 1952T847 1766T1245 1630Q1543 1552 1737 1455T2043 1192T2154 770Q2154 533 2037 350T1688 63T1130 -41Q871 -41 646 10T254 152V389Z"
/>
<glyph unicode="&#x406;" glyph-name="uni0406" horiz-adv-x="1159" d="M451 0V2966H709V0H451Z" />
<glyph unicode="&#x407;" glyph-name="uni0407" horiz-adv-x="1159" d="M451 0V2966H709V0H451ZM45 3342V3703H295V3342H45ZM865 3342V3703H1114V3342H865Z" />
<glyph unicode="&#x408;" glyph-name="uni0408" horiz-adv-x="1421" d="M4 -291Q86 -307 176 -307Q350 -307 468 -236T650 -6T713 410V2744H250V2966H971V426Q971 90 872 -122T597 -431T184 -528Q79 -528 4 -508V-291Z" />
<glyph unicode="&#x409;" glyph-name="uni0409" horiz-adv-x="4235" d="M2220 2744H1098L1040 1806Q1012 1355 988 1091T919 616T798 263T595 51T283 -20Q182 -20 78 12V217Q143 201 254 201Q361 201 431 230T556 350T654 620T731 1097T795 1851L864 2966H2478V1663H3113Q3456
1663 3683 1559T4019 1267T4129 827Q4129 583 4016 397T3667 106T3080 0H2220V2744ZM2478 1442V221H3097Q3350 221 3520 294T3774 502T3858 827Q3858 1016 3779 1153T3527 1366T3080 1442H2478Z" />
<glyph unicode="&#x40a;" glyph-name="uni040A" horiz-adv-x="4272" d="M451 2966H709V1630H2257V2966H2515V1663H3150Q3493 1663 3720 1559T4056 1267T4166 827Q4166 583 4053 397T3704 106T3117 0H2257V1409H709V0H451V2966ZM2515 1442V221H3133Q3387 221 3557
294T3811 502T3895 827Q3895 1016 3816 1153T3564 1366T3117 1442H2515Z" />
<glyph unicode="&#x40b;" glyph-name="uni040B" horiz-adv-x="3322" d="M127 2966H2073V2744H1229V1892Q1386 1936 1596 1963T2007 1991Q2352 1991 2565 1889T2878 1572T2978 1012V0H2720V991Q2720 1269 2652 1437T2423 1687T1978 1769Q1804 1769 1606 1745T1229
1679V0H971V2744H127V2966Z" />
<glyph unicode="&#x40c;" glyph-name="uni040C" horiz-adv-x="2630" d="M451 2966H709V1614H1061Q1181 1614 1264 1671T1442 1868L2195 2966H2494L1704 1823Q1528 1572 1397 1503Q1547 1420 1708 1188L2548 0H2228L1425 1147Q1327 1289 1255 1343T1069 1397H709V0H451V2966ZM1663
3768H2011L1491 3215H1241L1663 3768Z" />
<glyph unicode="&#x40d;" glyph-name="uni040D" horiz-adv-x="3129" d="M451 2966H709V799Q709 479 696 344Q798 565 942 778L2413 2966H2679V0H2421V2167Q2421 2486 2433 2621Q2329 2397 2187 2187L717 0H451V2966ZM1499 3215L979 3768H1327L1749 3215H1499Z" />
<glyph unicode="&#x40e;" glyph-name="uni040E" horiz-adv-x="2335" d="M569 -33Q419 -33 279 -4V205Q400 188 549 188Q670 188 751 226T912 382T1094 741L1114 791L57 2966H352L1077 1450Q1163 1270 1249 1061Q1303 1218 1397 1446L2007 2966H2286L1311 631Q1202
368 1102 227T878 26T569 -33ZM1201 3207Q1037 3207 906 3275T699 3471T623 3768H828Q834 3656 883 3577T1015 3457T1205 3416Q1314 3416 1395 3456T1524 3576T1578 3768H1783Q1783 3598 1707 3471T1499 3276T1201 3207Z" />
<glyph unicode="&#x40f;" glyph-name="uni040F" horiz-adv-x="3023" d="M451 2966H709V221H2314V2966H2572V0H1630V-692H1393V0H451V2966Z" />
<glyph unicode="&#x410;" glyph-name="uni0410" horiz-adv-x="2720" d="M2343 0L2036 836H668L360 0H90L1212 2966H1511L2630 0H2343ZM1442 2462Q1390 2604 1356 2720Q1314 2581 1270 2462L750 1053H1958L1442 2462Z" />
<glyph unicode="&#x411;" glyph-name="uni0411" horiz-adv-x="2531" d="M451 2966H2163V2744H709V1659H1360Q1704 1659 1931 1557T2267 1269T2376 827Q2376 581 2263 396T1914 105T1327 0H451V2966ZM709 1442V221H1343Q1597 221 1767 293T2021 501T2105 827Q2105
1018 2027 1155T1775 1367T1327 1442H709Z" />
<glyph unicode="&#x412;" glyph-name="uni0412" horiz-adv-x="2654" d="M451 0V2966H1253Q1570 2966 1789 2876T2122 2611T2236 2183Q2236 2027 2187 1898T2046 1678T1827 1544Q2013 1496 2135 1391T2317 1136T2376 807Q2376 557 2264 377T1921 98T1348 0H451ZM1356
221Q1616 221 1782 291T2027 491T2105 807Q2105 993 2026 1123T1779 1323T1352 1393H709V221H1356ZM1225 1610Q1481 1610 1646 1678T1888 1872T1966 2175Q1966 2352 1889 2479T1645 2675T1217 2744H709V1610H1225Z" />
<glyph unicode="&#x413;" glyph-name="uni0413" horiz-adv-x="2146" d="M451 2966H2064V2744H709V0H451V2966Z" />
<glyph unicode="&#x414;" glyph-name="uni0414" horiz-adv-x="3109" d="M98 221H274Q367 221 446 288T596 526T727 1011T827 1802L930 2966H2585V221H2974V-692H2736V0H336V-692H98V221ZM1155 2744L1073 1802Q1011 1071 912 712T659 221H2327V2744H1155Z" />
<glyph unicode="&#x415;" glyph-name="uni0415" horiz-adv-x="2462" d="M451 0V2966H2273V2744H709V1626H2052V1409H709V221H2273V0H451Z" />
<glyph unicode="&#x416;" glyph-name="uni0416" horiz-adv-x="3813" d="M1778 1397H1516Q1383 1397 1300 1339T1122 1139L389 0H82L852 1184Q1009 1427 1159 1499Q1020 1577 868 1819L152 2966H451L1139 1860Q1226 1718 1305 1666T1520 1614H1778V2966H2036V1614H2294Q2430
1614 2508 1666T2675 1860L3363 2966H3662L2945 1819Q2794 1577 2654 1499Q2804 1428 2961 1184L3731 0H3424L2691 1139Q2597 1281 2514 1339T2298 1397H2036V0H1778V1397Z" />
<glyph unicode="&#x417;" glyph-name="uni0417" horiz-adv-x="2413" d="M1024 -41Q774 -41 572 -1T213 111V340Q396 264 591 222T1032 180Q1319 180 1505 259T1777 478T1864 803Q1864 993 1783 1123T1516 1323T1020 1393H659V1610H1024Q1249 1610 1408 1680T1650
1881T1733 2195Q1733 2363 1651 2497T1410 2708T1028 2785Q842 2785 646 2739T291 2617V2843Q443 2920 638 2963T1040 3006Q1333 3006 1550 2910T1885 2632T2003 2204Q2003 2046 1952 1915T1802 1688T1561 1536Q1761 1485 1888 1379T2075 1128T2134 807Q2134 551
2013 361T1644 65T1024 -41Z" />
<glyph unicode="&#x418;" glyph-name="uni0418" horiz-adv-x="3129" d="M451 2966H709V799Q709 479 696 344Q798 565 942 778L2413 2966H2679V0H2421V2167Q2421 2486 2433 2621Q2329 2397 2187 2187L717 0H451V2966Z" />
<glyph unicode="&#x419;" glyph-name="uni0419" horiz-adv-x="3129" d="M451 2966H709V799Q709 479 696 344Q798 565 942 778L2413 2966H2679V0H2421V2167Q2421 2486 2433 2621Q2329 2397 2187 2187L717 0H451V2966ZM1544 3207Q1380 3207 1249 3275T1042 3471T966
3768H1171Q1177 3656 1226 3577T1358 3457T1548 3416Q1657 3416 1738 3456T1867 3576T1921 3768H2126Q2126 3598 2050 3471T1842 3276T1544 3207Z" />
<glyph unicode="&#x41a;" glyph-name="uni041A" horiz-adv-x="2630" d="M451 2966H709V1614H1061Q1181 1614 1264 1671T1442 1868L2195 2966H2494L1704 1823Q1528 1572 1397 1503Q1547 1420 1708 1188L2548 0H2228L1425 1147Q1327 1289 1255 1343T1069 1397H709V0H451V2966Z"
/>
<glyph unicode="&#x41b;" glyph-name="uni041B" horiz-adv-x="2966" d="M2257 0V2744H1098L1040 1806Q1012 1355 988 1091T919 616T798 263T595 51T283 -20Q182 -20 78 12V217Q143 201 254 201Q361 201 431 230T556 350T654 620T731 1097T795 1851L864 2966H2515V0H2257Z" />
<glyph unicode="&#x41c;" glyph-name="uni041C" horiz-adv-x="3617" d="M451 2966H766L1692 1434Q1770 1307 1819 1196Q1865 1304 1946 1434L2871 2966H3166V0H2908V2302Q2908 2472 2920 2638Q2855 2484 2761 2331L1901 905H1716L856 2331Q759 2489 696 2638Q709
2478 709 2302V0H451V2966Z" />
<glyph unicode="&#x41d;" glyph-name="uni041D" horiz-adv-x="3047" d="M2339 0V1409H709V0H451V2966H709V1630H2339V2966H2597V0H2339Z" />
<glyph unicode="&#x41e;" glyph-name="uni041E" horiz-adv-x="2994" d="M1491 -41Q1081 -41 814 152T421 686T295 1479Q295 1927 424 2270T824 2810T1503 3006Q1913 3006 2180 2813T2573 2279T2699 1487Q2699 1038 2570 695T2170 155T1491 -41ZM1499 180Q1817
180 2024 344T2330 800T2429 1483Q2429 1874 2331 2165T2024 2621T1495 2785Q1177 2785 970 2621T664 2166T565 1483Q565 1092 663 800T970 344T1499 180Z" />
<glyph unicode="&#x41f;" glyph-name="uni041F" horiz-adv-x="3047" d="M2339 2744H709V0H451V2966H2597V0H2339V2744Z" />
<glyph unicode="&#x420;" glyph-name="uni0420" horiz-adv-x="2486" d="M451 0V2966H1352Q1678 2966 1896 2856T2220 2546T2327 2073Q2327 1818 2225 1617T1900 1296T1331 1176H709V0H451ZM1343 1397Q1587 1397 1746 1481T1981 1716T2056 2068Q2056 2276 1980
2426T1740 2660T1319 2744H709V1397H1343Z" />
<glyph unicode="&#x421;" glyph-name="uni0421" horiz-adv-x="2519" d="M2298 119Q2143 53 1929 6T1507 -41Q1100 -41 829 143T427 668T295 1479Q295 1949 431 2291T841 2820T1516 3006Q1715 3006 1920 2961T2257 2847V2617Q2079 2697 1891 2741T1511 2785Q1196
2785 985 2632T669 2188T565 1483Q565 1076 667 785T982 337T1516 180Q1717 180 1920 222T2298 336V119Z" />
<glyph unicode="&#x422;" glyph-name="uni0422" horiz-adv-x="2454" d="M1098 0V2744H127V2966H2327V2744H1356V0H1098Z" />
<glyph unicode="&#x423;" glyph-name="uni0423" horiz-adv-x="2335" d="M569 -33Q419 -33 279 -4V205Q400 188 549 188Q670 188 751 226T912 382T1094 741L1114 791L57 2966H352L1077 1450Q1163 1270 1249 1061Q1303 1218 1397 1446L2007 2966H2286L1311 631Q1202
368 1102 227T878 26T569 -33Z" />
<glyph unicode="&#x424;" glyph-name="uni0424" horiz-adv-x="3404" d="M1573 242Q1122 256 815 415T355 855T201 1516Q201 1891 354 2173T815 2620T1573 2802V2966V3133H1831V2966V2802Q2281 2788 2588 2629T3049 2188T3203 1528Q3203 1152 3050 870T2589 424T1831
242V0V-106H1573V0V242ZM471 1520Q471 1199 594 966T963 603T1573 463V2580Q1210 2570 964 2440T594 2075T471 1520ZM2933 1524Q2933 1844 2810 2077T2441 2440T1831 2580V463Q2194 473 2440 604T2810 969T2933 1524Z" />
<glyph unicode="&#x425;" glyph-name="uni0425" horiz-adv-x="2499" d="M2105 0L1397 1090Q1313 1216 1249 1327Q1225 1288 1094 1085L377 0H82L1094 1520L139 2966H451L1102 1970Q1211 1805 1253 1724Q1297 1806 1405 1970L2060 2966H2355L1405 1536L2417 0H2105Z" />
<glyph unicode="&#x426;" glyph-name="uni0426" horiz-adv-x="3097" d="M451 2966H709V221H2314V2966H2572V221H2961V-692H2724V0H451V2966Z" />
<glyph unicode="&#x427;" glyph-name="uni0427" horiz-adv-x="2802" d="M2093 1073Q1721 975 1315 975Q970 975 757 1077T444 1394T344 1954V2966H602V1974Q602 1697 670 1529T899 1278T1343 1196Q1697 1196 2093 1286V2966H2351V0H2093V1073Z" />
<glyph unicode="&#x428;" glyph-name="uni0428" horiz-adv-x="4657" d="M451 2966H709V221H2200V2966H2458V221H3949V2966H4207V0H451V2966Z" />
<glyph unicode="&#x429;" glyph-name="uni0429" horiz-adv-x="4731" d="M451 2966H709V221H2200V2966H2458V221H3949V2966H4207V221H4596V-692H4358V0H451V2966Z" />
<glyph unicode="&#x42a;" glyph-name="uni042A" horiz-adv-x="3019" d="M127 2966H1262V1679H1896Q2239 1679 2466 1574T2803 1281T2912 836Q2912 588 2799 400T2451 106T1864 0H1004V2744H127V2966ZM1262 1458V221H1880Q2134 221 2304 294T2558 505T2642 836Q2642
1029 2563 1167T2312 1381T1864 1458H1262Z" />
<glyph unicode="&#x42b;" glyph-name="uni042B" horiz-adv-x="3478" d="M451 2966H709V1679H1278Q1621 1679 1848 1574T2184 1281T2294 836Q2294 588 2181 400T1832 106T1245 0H451V2966ZM2769 2966H3027V0H2769V2966ZM709 1458V221H1262Q1516 221 1686 294T1939
505T2023 836Q2023 1029 1944 1167T1693 1381T1245 1458H709Z" />
<glyph unicode="&#x42c;" glyph-name="uni042C" horiz-adv-x="2507" d="M451 2966H709V1679H1384Q1727 1679 1954 1574T2291 1281T2400 836Q2400 588 2287 400T1939 106T1352 0H451V2966ZM709 221H1368Q1622 221 1792 294T2046 505T2130 836Q2130 1029 2051 1167T1800
1381T1352 1458H709V221Z" />
<glyph unicode="&#x42d;" glyph-name="uni042D" horiz-adv-x="2519" d="M643 1626H1950Q1940 1868 1884 2075T1716 2443T1426 2694T1004 2785Q809 2785 620 2742T262 2617V2843Q414 2920 609 2963T1012 3006Q1430 3006 1700 2813T2097 2278T2224 1483Q2224 1035
2094 693T1687 155T991 -41Q759 -41 562 -1T221 106V336Q405 259 594 220T1004 180Q1328 180 1536 339T1844 773T1954 1409H643V1626Z" />
<glyph unicode="&#x42e;" glyph-name="uni042E" horiz-adv-x="4198" d="M451 2966H709V1626H1544Q1562 2011 1687 2321T2072 2818T2728 3006Q3130 3006 3393 2813T3779 2279T3903 1487Q3903 1038 3777 695T3384 155T2716 -41Q2316 -41 2056 148T1672 663T1540
1409H709V0H451V2966ZM2724 180Q3034 180 3237 344T3536 800T3633 1483Q3633 1874 3537 2165T3236 2621T2720 2785Q2410 2785 2207 2621T1907 2166T1810 1483Q1810 1092 1906 800T2207 344T2724 180Z" />
<glyph unicode="&#x42f;" glyph-name="uni042F" horiz-adv-x="2724" d="M2015 1282H1610Q1490 1282 1405 1225T1225 1032L516 0H197L938 1061Q998 1147 1059 1213T1176 1311Q955 1343 791 1438T532 1704T438 2126Q438 2385 548 2573T885 2863T1454 2966H2273V0H2015V1282ZM709
2130Q709 1917 797 1776T1052 1567T1454 1499H2015V2744H1438Q1187 2744 1024 2665T785 2449T709 2130Z" />
<glyph unicode="&#x430;" glyph-name="uni0430" horiz-adv-x="2335" d="M1704 0L1692 201Q1550 92 1369 26T987 -41Q769 -41 607 28T358 226T270 532Q270 747 393 892T769 1113T1405 1188Q1536 1188 1683 1184V1376Q1683 1570 1626 1691T1446 1871T1126 1929Q911
1929 740 1881T418 1761V1974Q570 2050 751 2096T1143 2142Q1379 2142 1554 2073T1831 1845T1933 1430V0H1704ZM1683 979H1405Q1092 979 899 929T617 783T528 541Q528 431 580 348T743 219T1024 172Q1198 172 1365 231T1683 406V979Z" />
<glyph unicode="&#x431;" glyph-name="uni0431" horiz-adv-x="2494" d="M1245 -41Q919 -41 712 108T408 541T311 1237Q311 1693 359 2002T520 2514T823 2834T1307 3002L1978 3121V2888L1307 2769Q1060 2725 917 2619T704 2338T598 1884Q773 2012 932 2077T1286
2142Q1577 2142 1785 2017T2105 1650T2216 1065Q2216 740 2110 491T1785 101T1245 -41ZM1278 1929Q1095 1929 931 1862T582 1647Q569 1492 569 1245Q569 897 637 660T854 298T1245 172Q1489 172 1647 280T1879 584T1954 1053Q1954 1333 1879 1528T1652 1826T1278
1929Z" />
<glyph unicode="&#x432;" glyph-name="uni0432" horiz-adv-x="2351" d="M418 2101H1253Q1497 2101 1662 2033T1909 1839T1991 1536Q1991 1379 1907 1264T1679 1098Q1878 1048 1987 905T2097 594Q2097 406 2008 273T1744 70T1319 0H418V2101ZM668 967V213H1327Q1499
213 1612 256T1780 384T1835 590Q1835 706 1782 790T1615 920T1323 967H668ZM668 1888V1176H1253Q1416 1176 1522 1218T1678 1340T1729 1532Q1729 1644 1678 1723T1519 1845T1249 1888H668Z" />
<glyph unicode="&#x433;" glyph-name="uni0433" horiz-adv-x="1733" d="M418 2101H1671V1892H668V0H418V2101Z" />
<glyph unicode="&#x434;" glyph-name="uni0434" horiz-adv-x="2470" d="M45 209H188Q296 209 365 310T485 664T578 1389L643 2101H1995V209H2347V-549H2118V0H274V-549H45V209ZM868 1892L815 1298Q782 939 746 724T663 391T545 209H1745V1892H868Z" />
<glyph unicode="&#x435;" glyph-name="uni0435" horiz-adv-x="2343" d="M1970 127Q1842 55 1654 7T1229 -41Q900 -41 689 90T378 466T279 1057Q279 1374 384 1619T696 2003T1196 2142Q1480 2142 1677 2014T1974 1661T2073 1151Q2073 1084 2064 1028H541Q547 733
619 546T846 265T1253 172Q1462 172 1615 208T1970 328V127ZM1815 1237Q1806 1447 1731 1603T1519 1844T1192 1929Q1008 1929 867 1844T642 1602T545 1237H1815Z" />
<glyph unicode="&#x436;" glyph-name="uni0436" horiz-adv-x="3183" d="M1466 979H1307Q1205 979 1134 942T991 803L422 0H111L737 864Q801 951 879 1009T1040 1081Q956 1104 894 1158T758 1311L160 2101H455L1008 1360Q1084 1255 1140 1220T1298 1184H1466V2101H1716V1184H1884Q1985
1184 2042 1220T2175 1360L2728 2101H3023L2425 1311Q2351 1212 2289 1158T2142 1081Q2225 1067 2302 1009T2445 864L3072 0H2761L2191 803Q2120 904 2049 941T1876 979H1716V0H1466V979Z" />
<glyph unicode="&#x437;" glyph-name="uni0437" horiz-adv-x="2036" d="M922 -41Q714 -41 514 -4T184 94V315Q331 248 528 210T926 172Q1123 172 1256 220T1454 358T1520 569Q1520 758 1368 862T918 967H590V1176H913Q1161 1176 1287 1273T1413 1552Q1413 1674
1353 1758T1180 1886T909 1929Q749 1929 564 1890T250 1790V2011Q374 2069 562 2105T913 2142Q1145 2142 1316 2074T1581 1873T1675 1552Q1675 1443 1634 1352T1522 1196T1360 1098Q1490 1058 1584 988T1730 813T1782 573Q1782 394 1685 255T1395 38T922 -41Z"
/>
<glyph unicode="&#x438;" glyph-name="uni0438" horiz-adv-x="2621" d="M418 2101H668V672Q668 467 651 328Q689 400 844 623L1974 2101H2204V0H1954V1430Q1954 1631 1970 1774Q1935 1706 1778 1479L647 0H418V2101Z" />
<glyph unicode="&#x439;" glyph-name="uni0439" horiz-adv-x="2621" d="M418 2101H668V672Q668 467 651 328Q689 400 844 623L1974 2101H2204V0H1954V1430Q1954 1631 1970 1774Q1935 1706 1778 1479L647 0H418V2101ZM1905 3006Q1905 2836 1829 2709T1621 2514T1323
2445Q1159 2445 1028 2513T821 2709T745 3006H950Q956 2894 1005 2815T1137 2695T1327 2654Q1436 2654 1517 2694T1646 2814T1700 3006H1905Z" />
<glyph unicode="&#x43a;" glyph-name="uni043A" horiz-adv-x="2208" d="M418 2101H668V1184H885Q1000 1184 1058 1219T1196 1360L1753 2101H2048L1450 1311Q1376 1212 1314 1158T1167 1081Q1250 1067 1328 1009T1470 864L2097 0H1786L1212 803Q1140 905 1066 942T868
979H668V0H418V2101Z" />
<glyph unicode="&#x43b;" glyph-name="uni043B" horiz-adv-x="2392" d="M213 -20Q121 -20 49 8V205Q119 188 188 188Q285 188 340 227T435 385T507 734T578 1389L643 2101H1974V0H1724V1892H868L815 1298Q778 877 745 648T653 269T490 50T213 -20Z" />
<glyph unicode="&#x43c;" glyph-name="uni043C" horiz-adv-x="3019" d="M418 2101H717L1372 1106Q1473 949 1516 868Q1574 980 1659 1106L2314 2101H2601V0H2351V1495Q2351 1606 2359 1802Q2263 1597 2175 1466L1597 590H1421L844 1466Q761 1586 659 1802Q668
1626 668 1495V0H418V2101Z" />
<glyph unicode="&#x43d;" glyph-name="uni043D" horiz-adv-x="2556" d="M1888 979H668V0H418V2101H668V1188H1888V2101H2138V0H1888V979Z" />
<glyph unicode="&#x43e;" glyph-name="uni043E" horiz-adv-x="2494" d="M1245 -41Q919 -41 703 98T383 481T279 1049Q279 1368 385 1614T710 2001T1249 2142Q1575 2142 1791 2004T2112 1620T2216 1053Q2216 733 2110 487T1785 100T1245 -41ZM1245 172Q1489 172
1647 280T1879 584T1954 1053Q1954 1322 1879 1517T1647 1821T1249 1929Q1006 1929 848 1821T616 1517T541 1049Q541 780 616 584T848 280T1245 172Z" />
<glyph unicode="&#x43f;" glyph-name="uni043F" horiz-adv-x="2499" d="M1831 1892H668V0H418V2101H2081V0H1831V1892Z" />
<glyph unicode="&#x440;" glyph-name="uni0440" horiz-adv-x="2540" d="M418 -922V2101H647L664 1896Q818 2015 982 2078T1327 2142Q1619 2142 1828 2019T2149 1655T2261 1065Q2261 708 2143 460T1813 85T1319 -41Q1136 -41 970 12T668 160V-922H418ZM668 381Q811
279 969 226T1298 172Q1525 172 1681 270T1918 565T1999 1057Q1999 1346 1919 1540T1684 1831T1303 1929Q1133 1929 980 1869T668 1688V381Z" />
<glyph unicode="&#x441;" glyph-name="uni0441" horiz-adv-x="2073" d="M1839 119Q1721 47 1561 3T1217 -41Q919 -41 708 90T388 466T279 1049Q279 1368 385 1614T708 2001T1245 2142Q1398 2142 1546 2109T1798 2023V1798Q1695 1852 1538 1890T1233 1929Q1001
1929 847 1821T617 1518T541 1057Q541 771 620 573T853 274T1225 172Q1391 172 1543 213T1839 332V119Z" />
<glyph unicode="&#x442;" glyph-name="uni0442" horiz-adv-x="1855" d="M70 2101H1786V1892H1053V0H803V1892H70V2101Z" />
<glyph unicode="&#x443;" glyph-name="uni0443" horiz-adv-x="2044" d="M12 -725Q68 -737 156 -737Q318 -737 446 -675T681 -468T877 -78L893 -33L61 2101H336L930 524Q996 348 1028 205Q1068 351 1130 520L1712 2101H1982L1098 -156Q991 -433 859 -608T561 -866T184
-950Q87 -950 12 -930V-725Z" />
<glyph unicode="&#x444;" glyph-name="uni0444" horiz-adv-x="3690" d="M1720 -922V127Q1587 43 1444 1T1143 -41Q882 -41 687 84T386 452T279 1032Q279 1385 393 1635T703 2014T1143 2142Q1301 2142 1444 2100T1720 1974V3080H1970V1974Q2103 2058 2246 2100T2548
2142Q2809 2142 3004 2017T3305 1649T3412 1069Q3412 716 3298 466T2988 87T2548 -41Q2390 -41 2247 1T1970 127V-922H1720ZM1159 172Q1314 172 1447 212T1720 340V1761Q1580 1848 1447 1888T1159 1929Q969 1929 830 1828T616 1529T541 1044Q541 764 616 568T831
272T1159 172ZM2531 172Q2721 172 2860 273T3074 572T3150 1057Q3150 1337 3075 1533T2860 1829T2531 1929Q2376 1929 2243 1889T1970 1761V340Q2110 253 2243 213T2531 172Z" />
<glyph unicode="&#x445;" glyph-name="uni0445" horiz-adv-x="2122" d="M1692 0L1065 905L414 0H111L909 1077L152 2101H467L1057 1253L1667 2101H1962L1208 1081L2011 0H1692Z" />
<glyph unicode="&#x446;" glyph-name="uni0446" horiz-adv-x="2523" d="M418 2101H668V209H1798V2101H2048V209H2400V-549H2171V0H418V2101Z" />
<glyph unicode="&#x447;" glyph-name="uni0447" horiz-adv-x="2294" d="M1626 864Q1495 794 1331 752T1004 709Q771 709 605 777T349 993T258 1372V2101H508V1397Q508 1223 567 1118T737 968T1016 922Q1185 922 1341 960T1626 1073V2101H1876V0H1626V864Z" />
<glyph unicode="&#x448;" glyph-name="uni0448" horiz-adv-x="3699" d="M418 2101H668V209H1724V2101H1974V209H3031V2101H3281V0H418V2101Z" />
<glyph unicode="&#x449;" glyph-name="uni0449" horiz-adv-x="3756" d="M418 2101H668V209H1724V2101H1974V209H3031V2101H3281V209H3633V-549H3404V0H418V2101Z" />
<glyph unicode="&#x44a;" glyph-name="uni044A" horiz-adv-x="2388" d="M70 2101H1012V1245H1528Q1783 1245 1949 1165T2194 946T2273 623Q2273 443 2193 303T1946 81T1528 0H762V1892H70V2101ZM1012 1032V213H1528Q1692 213 1800 265T1960 410T2011 623Q2011
743 1959 835T1799 979T1528 1032H1012Z" />
<glyph unicode="&#x44b;" glyph-name="uni044B" horiz-adv-x="2957" d="M418 2101H668V1245H1184Q1439 1245 1605 1165T1850 946T1929 623Q1929 443 1849 303T1602 81T1184 0H418V2101ZM2290 2101H2540V0H2290V2101ZM668 1032V213H1184Q1348 213 1456 265T1616
410T1667 623Q1667 743 1615 835T1455 979T1184 1032H668Z" />
<glyph unicode="&#x44c;" glyph-name="uni044C" horiz-adv-x="2077" d="M418 2101H668V1245H1217Q1472 1245 1638 1165T1883 946T1962 623Q1962 443 1882 303T1635 81T1217 0H418V2101ZM668 1032V213H1217Q1381 213 1489 265T1648 410T1700 623Q1700 743 1648
835T1488 979T1217 1032H668Z" />
<glyph unicode="&#x44d;" glyph-name="uni044D" horiz-adv-x="2073" d="M532 1176H1528Q1515 1388 1439 1557T1209 1828T827 1929Q678 1929 529 1891T274 1798V2023Q378 2075 530 2108T840 2142Q1150 2142 1364 2004T1686 1623T1794 1069Q1794 723 1682 474T1357
92T852 -41Q663 -41 510 1T233 115V332Q383 252 528 212T860 172Q1061 172 1209 263T1441 533T1532 967H532V1176Z" />
<glyph unicode="&#x44e;" glyph-name="uni044E" horiz-adv-x="3498" d="M418 2101H668V1188H1343Q1363 1447 1465 1662T1772 2009T2281 2142Q2597 2142 2807 2004T3118 1620T3219 1053Q3219 734 3116 487T2801 100T2277 -41Q1965 -41 1759 93T1451 457T1339 979H668V0H418V2101ZM2277
172Q2511 172 2662 280T2885 584T2957 1053Q2957 1322 2885 1517T2662 1821T2281 1929Q2048 1929 1897 1821T1674 1517T1602 1049Q1602 780 1674 584T1896 280T2277 172Z" />
<glyph unicode="&#x44f;" glyph-name="uni044F" horiz-adv-x="2294" d="M1622 885H1274Q1154 885 1080 838T942 700L438 0H119L680 754Q720 808 764 847T864 909Q704 941 586 1015T402 1211T336 1495Q336 1673 427 1810T689 2024T1094 2101H1876V0H1622V885ZM598
1503Q598 1374 662 1282T848 1140T1143 1090H1622V1892H1085Q931 1892 821 1843T655 1705T598 1503Z" />
<glyph unicode="&#x450;" glyph-name="uni0450" horiz-adv-x="2343" d="M1970 127Q1842 55 1654 7T1229 -41Q900 -41 689 90T378 466T279 1057Q279 1374 384 1619T696 2003T1196 2142Q1480 2142 1677 2014T1974 1661T2073 1151Q2073 1084 2064 1028H541Q547 733
619 546T846 265T1253 172Q1462 172 1615 208T1970 328V127ZM1815 1237Q1806 1447 1731 1603T1519 1844T1192 1929Q1008 1929 867 1844T642 1602T545 1237H1815ZM1085 2454L565 3006H913L1335 2454H1085Z" />
<glyph unicode="&#x451;" glyph-name="uni0451" horiz-adv-x="2343" d="M1970 127Q1842 55 1654 7T1229 -41Q900 -41 689 90T378 466T279 1057Q279 1374 384 1619T696 2003T1196 2142Q1480 2142 1677 2014T1974 1661T2073 1151Q2073 1084 2064 1028H541Q547 733
619 546T846 265T1253 172Q1462 172 1615 208T1970 328V127ZM1815 1237Q1806 1447 1731 1603T1519 1844T1192 1929Q1008 1929 867 1844T642 1602T545 1237H1815ZM659 2605V2966H909V2605H659ZM1479 2605V2966H1728V2605H1479Z" />
<glyph unicode="&#x452;" glyph-name="uni0452" horiz-adv-x="2540" d="M668 2494V1909Q804 2014 980 2078T1327 2142Q1604 2142 1794 2012T2081 1621T2179 971Q2179 436 2074 82T1785 -441T1360 -610Q1315 -610 1273 -605T1192 -590V-385Q1278 -397 1343 -397Q1536
-397 1663 -247T1854 206T1917 971Q1917 1291 1847 1504T1643 1823T1315 1929Q1150 1929 987 1872T668 1696V0H418V2494H156V2699H418V3080H668V2699H1126V2494H668Z" />
<glyph unicode="&#x453;" glyph-name="uni0453" horiz-adv-x="1733" d="M418 2101H1671V1892H668V0H418V2101ZM881 2454L1303 3006H1651L1131 2454H881Z" />
<glyph unicode="&#x454;" glyph-name="uni0454" horiz-adv-x="2073" d="M1217 -41Q919 -41 708 90T388 466T279 1049Q279 1368 385 1614T708 2001T1245 2142Q1398 2142 1546 2109T1798 2023V1798Q1695 1852 1538 1890T1233 1929Q1006 1929 857 1828T633 1558T545
1176H1540V967H541Q553 721 632 543T861 269T1225 172Q1391 172 1543 213T1839 332V119Q1721 47 1561 3T1217 -41Z" />
<glyph unicode="&#x455;" glyph-name="uni0455" horiz-adv-x="2048" d="M262 319Q397 257 587 215T958 172Q1163 172 1294 218T1487 350T1548 553Q1548 674 1485 747T1313 862T1008 950Q759 1009 605 1078T367 1263T283 1561Q283 1729 364 1859T619 2066T1057
2142Q1222 2142 1385 2106T1667 2007V1794Q1535 1855 1374 1892T1053 1929Q871 1929 755 1886T586 1765T532 1577Q532 1456 595 1383T768 1267T1073 1180Q1322 1121 1476 1052T1714 867T1798 569Q1798 387 1705 250T1422 36T950 -41Q755 -41 575 -3T262 102V319Z"
/>
<glyph unicode="&#x456;" glyph-name="uni0456" horiz-adv-x="1085" d="M418 0V2101H668V0H418ZM418 2605V2966H668V2605H418Z" />
<glyph unicode="&#x457;" glyph-name="uni0457" horiz-adv-x="1085" d="M418 0V2101H668V0H418ZM8 2605V2966H258V2605H8ZM828 2605V2966H1077V2605H828Z" />
<glyph unicode="&#x458;" glyph-name="uni0458" horiz-adv-x="1085" d="M-197 -721Q-123 -737 -37 -737Q124 -737 224 -660T371 -420T418 0V2101H668V-45Q668 -351 587 -553T353 -852T-16 -950Q-114 -950 -197 -930V-721ZM418 2605V2966H668V2605H418Z" />
<glyph unicode="&#x459;" glyph-name="uni0459" horiz-adv-x="3310" d="M1683 1892H868L815 1298Q778 877 745 648T653 269T490 50T213 -20Q121 -20 49 8V205Q119 188 188 188Q285 188 340 227T435 385T507 734T578 1389L643 2101H1933V1245H2449Q2704 1245 2871
1165T3116 946T3195 623Q3195 443 3115 303T2868 81T2449 0H1683V1892ZM1933 1032V213H2449Q2614 213 2722 265T2881 410T2933 623Q2933 743 2881 835T2721 979T2449 1032H1933Z" />
<glyph unicode="&#x45a;" glyph-name="uni045A" horiz-adv-x="3478" d="M418 2101H668V1188H1847V2101H2097V1245H2617Q2872 1245 3039 1165T3284 946T3363 623Q3363 443 3283 303T3036 81T2617 0H1847V979H668V0H418V2101ZM2097 1032V213H2617Q2782 213 2890
265T3049 410T3101 623Q3101 743 3049 835T2889 979T2617 1032H2097Z" />
<glyph unicode="&#x45b;" glyph-name="uni045B" horiz-adv-x="2540" d="M1888 0V1438Q1888 1620 1829 1728T1656 1882T1372 1929Q1171 1929 1000 1870T668 1688V0H418V2494H156V2699H418V3080H668V2699H1126V2494H668V1901Q810 2010 994 2076T1384 2142Q1620 2142
1788 2074T2047 1861T2138 1487V0H1888Z" />
<glyph unicode="&#x45c;" glyph-name="uni045C" horiz-adv-x="2208" d="M418 2101H668V1184H885Q1000 1184 1058 1219T1196 1360L1753 2101H2048L1450 1311Q1376 1212 1314 1158T1167 1081Q1250 1067 1328 1009T1470 864L2097 0H1786L1212 803Q1140 905 1066 942T868
979H668V0H418V2101ZM1004 2454L1426 3006H1774L1254 2454H1004Z" />
<glyph unicode="&#x45d;" glyph-name="uni045D" horiz-adv-x="2621" d="M418 2101H668V672Q668 467 651 328Q689 400 844 623L1974 2101H2204V0H1954V1430Q1954 1631 1970 1774Q1935 1706 1778 1479L647 0H418V2101ZM1204 2454L684 3006H1032L1454 2454H1204Z" />
<glyph unicode="&#x45e;" glyph-name="uni045E" horiz-adv-x="2044" d="M12 -725Q68 -737 156 -737Q318 -737 446 -675T681 -468T877 -78L893 -33L61 2101H336L930 524Q996 348 1028 205Q1068 351 1130 520L1712 2101H1982L1098 -156Q991 -433 859 -608T561 -866T184
-950Q87 -950 12 -930V-725ZM1602 3006Q1602 2836 1526 2709T1318 2514T1020 2445Q856 2445 725 2513T518 2709T442 3006H647Q653 2894 702 2815T834 2695T1024 2654Q1133 2654 1214 2694T1343 2814T1397 3006H1602Z" />
<glyph unicode="&#x45f;" glyph-name="uni045F" horiz-adv-x="2466" d="M418 2101H668V209H1798V2101H2048V0H1352V-549H1122V0H418V2101Z" />
<glyph unicode="&#x472;" glyph-name="uni0472" horiz-adv-x="2994" d="M1491 -41Q1081 -41 814 152T421 686T295 1479Q295 1927 424 2270T824 2810T1503 3006Q1913 3006 2180 2813T2573 2279T2699 1487Q2699 1038 2570 695T2170 155T1491 -41ZM1499 180Q1815
180 2020 337T2323 768T2429 1409H565Q574 1041 672 767T975 336T1499 180ZM1495 2785Q1182 2785 980 2632T679 2219T565 1626H2429Q2411 1961 2313 2219T2013 2631T1495 2785Z" />
<glyph unicode="&#x473;" glyph-name="uni0473" horiz-adv-x="2494" d="M1245 -41Q919 -41 703 98T383 481T279 1049Q279 1368 385 1614T710 2001T1249 2142Q1575 2142 1791 2004T2112 1620T2216 1053Q2216 733 2110 487T1785 100T1245 -41ZM1249 1929Q1011 1929
858 1830T631 1563T541 1176H1954Q1936 1399 1862 1566T1636 1831T1249 1929ZM1245 172Q1486 172 1641 274T1870 554T1954 967H541Q551 730 626 553T854 274T1245 172Z" />
<glyph unicode="&#x490;" glyph-name="uni0490" horiz-adv-x="2257" d="M451 2966H1827V3592H2064V2744H709V0H451V2966Z" />
<glyph unicode="&#x491;" glyph-name="uni0491" horiz-adv-x="1733" d="M418 2101H1442V2646H1671V1892H668V0H418V2101Z" />
<glyph unicode="&#x492;" glyph-name="uni0492" horiz-adv-x="2187" d="M492 1368H201V1585H492V2966H2105V2744H750V1585H1475V1368H750V0H492V1368Z" />
<glyph unicode="&#x493;" glyph-name="uni0493" horiz-adv-x="1819" d="M82 1167H459V2101H1712V1892H709V1167H1143V958H709V0H459V958H82V1167Z" />
<glyph unicode="&#x496;" glyph-name="uni0496" horiz-adv-x="3924" d="M1778 1397H1516Q1383 1397 1300 1339T1122 1139L389 0H82L852 1184Q1009 1427 1159 1499Q1020 1577 868 1819L152 2966H451L1139 1860Q1226 1718 1305 1666T1520 1614H1778V2966H2036V1614H2294Q2430
1614 2508 1666T2675 1860L3363 2966H3662L2945 1819Q2794 1577 2654 1499Q2804 1428 2961 1184L3588 221H3916V-692H3678V0H3424L2691 1139Q2597 1281 2514 1339T2298 1397H2036V0H1778V1397Z" />
<glyph unicode="&#x497;" glyph-name="uni0497" horiz-adv-x="3215" d="M1466 979H1307Q1205 979 1134 942T991 803L422 0H111L737 864Q801 951 879 1009T1040 1081Q956 1104 894 1158T758 1311L160 2101H455L1008 1360Q1084 1255 1140 1220T1298 1184H1466V2101H1716V1184H1884Q1985
1184 2042 1220T2175 1360L2728 2101H3023L2425 1311Q2351 1212 2289 1158T2142 1081Q2225 1067 2302 1009T2445 864L2920 209H3174V-549H2945V0H2761L2191 803Q2120 904 2049 941T1876 979H1716V0H1466V979Z" />
<glyph unicode="&#x498;" glyph-name="uni0498" horiz-adv-x="2413" d="M918 -41Q714 -32 532 9T213 111V340Q396 264 591 222T1032 180Q1319 180 1505 259T1777 478T1864 803Q1864 993 1783 1123T1516 1323T1020 1393H659V1610H1024Q1249 1610 1408 1680T1650
1881T1733 2195Q1733 2363 1651 2497T1410 2708T1028 2785Q842 2785 646 2739T291 2617V2843Q443 2920 638 2963T1040 3006Q1333 3006 1550 2910T1885 2632T2003 2204Q2003 2046 1952 1915T1802 1688T1561 1536Q1761 1485 1888 1379T2075 1128T2134 807Q2134 557
2021 374T1688 85T1155 -37V-692H918V-41Z" />
<glyph unicode="&#x499;" glyph-name="uni0499" horiz-adv-x="2036" d="M786 -549V-37Q605 -25 446 11T184 94V315Q331 248 528 210T926 172Q1123 172 1256 220T1454 358T1520 569Q1520 758 1368 862T918 967H590V1176H913Q1161 1176 1287 1273T1413 1552Q1413
1674 1353 1758T1180 1886T909 1929Q749 1929 564 1890T250 1790V2011Q374 2069 562 2105T913 2142Q1145 2142 1316 2074T1581 1873T1675 1552Q1675 1443 1634 1352T1522 1196T1360 1098Q1490 1058 1584 988T1730 813T1782 573Q1782 398 1690 264T1426 50T1016
-41V-549H786Z" />
<glyph unicode="&#x49a;" glyph-name="uni049A" horiz-adv-x="2728" d="M451 2966H709V1614H1061Q1181 1614 1264 1671T1442 1868L2195 2966H2494L1704 1823Q1528 1572 1397 1503Q1547 1420 1708 1188L2392 221H2720V-692H2482V0H2228L1425 1147Q1327 1289 1255
1343T1069 1397H709V0H451V2966Z" />
<glyph unicode="&#x49b;" glyph-name="uni049B" horiz-adv-x="2241" d="M418 2101H668V1184H885Q1000 1184 1058 1219T1196 1360L1753 2101H2048L1450 1311Q1376 1212 1314 1158T1167 1081Q1250 1067 1328 1009T1470 864L1946 209H2200V-549H1970V0H1786L1212
803Q1140 905 1066 942T868 979H668V0H418V2101Z" />
<glyph unicode="&#x49c;" glyph-name="uni049C" horiz-adv-x="2761" d="M451 2966H709V1614H1044V2208H1274V1610Q1385 1619 1463 1677T1622 1864L2327 2966H2621L1888 1823Q1731 1577 1589 1503Q1736 1424 1892 1188L2679 0H2363L1614 1143Q1525 1274 1455 1329T1274
1397V754H1044V1397H709V0H451V2966Z" />
<glyph unicode="&#x49d;" glyph-name="uni049D" horiz-adv-x="2396" d="M930 979H668V0H418V2101H668V1184H930V1696H1151V1188Q1220 1197 1268 1234T1384 1360L1942 2101H2236L1638 1311Q1564 1212 1503 1158T1356 1081Q1438 1067 1516 1009T1659 864L2286 0H1974L1401
803Q1342 886 1285 924T1151 975V442H930V979Z" />
<glyph unicode="&#x4a0;" glyph-name="uni04A0" horiz-adv-x="3183" d="M1004 2744H127V2966H1262V1614H1614Q1734 1614 1817 1671T1995 1868L2748 2966H3047L2257 1823Q2081 1572 1950 1503Q2100 1420 2261 1188L3101 0H2781L1978 1147Q1879 1289 1808 1343T1622
1397H1262V0H1004V2744Z" />
<glyph unicode="&#x4a1;" glyph-name="uni04A1" horiz-adv-x="2552" d="M762 1892H70V2101H1012V1184H1229Q1344 1184 1402 1218T1540 1360L2097 2101H2392L1794 1311Q1720 1212 1658 1158T1511 1081Q1594 1067 1672 1009T1815 864L2441 0H2130L1556 803Q1484
905 1410 942T1212 979H1012V0H762V1892Z" />
<glyph unicode="&#x4a2;" glyph-name="uni04A2" horiz-adv-x="3121" d="M2339 1409H709V0H451V2966H709V1630H2339V2966H2597V221H2986V-692H2748V0H2339V1409Z" />
<glyph unicode="&#x4a3;" glyph-name="uni04A3" horiz-adv-x="2613" d="M1888 979H668V0H418V2101H668V1188H1888V2101H2138V209H2490V-549H2261V0H1888V979Z" />
<glyph unicode="&#x4aa;" glyph-name="uni04AA" horiz-adv-x="2519" d="M1405 -37Q1043 -17 795 167T421 683T295 1479Q295 1949 431 2291T841 2820T1516 3006Q1715 3006 1920 2961T2257 2847V2617Q2079 2697 1891 2741T1511 2785Q1196 2785 985 2632T669 2188T565
1483Q565 1076 667 785T982 337T1516 180Q1717 180 1920 222T2298 336V119Q2169 64 1995 22T1642 -33V-692H1405V-37Z" />
<glyph unicode="&#x4ab;" glyph-name="uni04AB" horiz-adv-x="2073" d="M1106 -549V-37Q857 -16 671 114T382 481T279 1049Q279 1368 385 1614T708 2001T1245 2142Q1398 2142 1546 2109T1798 2023V1798Q1695 1852 1538 1890T1233 1929Q1001 1929 847 1821T617
1518T541 1057Q541 771 620 573T853 274T1225 172Q1391 172 1543 213T1839 332V119Q1749 63 1621 21T1335 -37V-549H1106Z" />
<glyph unicode="&#x4ae;" glyph-name="uni04AE" horiz-adv-x="2441" d="M1090 0V1176L49 2966H348L1110 1634Q1189 1498 1229 1417Q1269 1498 1348 1634L2109 2966H2392L1348 1167V0H1090Z" />
<glyph unicode="&#x4af;" glyph-name="uni04AF" horiz-adv-x="2044" d="M897 -37L61 2101H336L930 520Q998 338 1028 205Q1068 351 1130 520L1712 2101H1982L1147 -37V-922H897V-37Z" />
<glyph unicode="&#x4b0;" glyph-name="uni04B0" horiz-adv-x="2441" d="M1090 750H324V967H1090V1176L49 2966H348L1110 1634Q1189 1498 1229 1417Q1269 1498 1348 1634L2109 2966H2392L1348 1167V967H2114V750H1348V0H1090V750Z" />
<glyph unicode="&#x4b1;" glyph-name="uni04B1" horiz-adv-x="2044" d="M209 209H803L61 2101H336L930 520Q998 338 1028 205Q1068 351 1130 520L1712 2101H1982L1241 209H1835V0H1159L1147 -37V-922H897V-37L885 0H209V209Z" />
<glyph unicode="&#x4b2;" glyph-name="uni04B2" horiz-adv-x="2605" d="M1094 1520L139 2966H451L1102 1970Q1211 1805 1253 1724Q1297 1806 1405 1970L2060 2966H2355L1405 1536L2269 221H2597V-692H2359V0H2105L1397 1090Q1313 1216 1249 1327Q1225 1288 1094
1085L377 0H82L1094 1520Z" />
<glyph unicode="&#x4b3;" glyph-name="uni04B3" horiz-adv-x="2154" d="M909 1077L152 2101H467L1057 1253L1667 2101H1962L1208 1081L1855 209H2114V-549H1884V0H1692L1065 905L414 0H111L909 1077Z" />
<glyph unicode="&#x4b6;" glyph-name="uni04B6" horiz-adv-x="2875" d="M2093 1073Q1741 975 1315 975Q970 975 757 1077T444 1394T344 1954V2966H602V1974Q602 1697 670 1529T899 1278T1343 1196Q1697 1196 2093 1286V2966H2351V221H2740V-692H2503V0H2093V1073Z" />
<glyph unicode="&#x4b7;" glyph-name="uni04B7" horiz-adv-x="2351" d="M1626 864Q1495 794 1331 752T1004 709Q771 709 605 777T349 993T258 1372V2101H508V1397Q508 1223 567 1118T737 968T1016 922Q1185 922 1341 960T1626 1073V2101H1876V209H2228V-549H1999V0H1626V864Z"
/>
<glyph unicode="&#x4b8;" glyph-name="uni04B8" horiz-adv-x="2802" d="M2093 1073Q1785 992 1462 979V348H1233V975Q924 990 730 1092T440 1404T344 1954V2966H602V1974Q602 1704 665 1541T865 1298T1233 1200V1749H1462V1200Q1742 1212 2093 1286V2966H2351V0H2093V1073Z"
/>
<glyph unicode="&#x4b9;" glyph-name="uni04B9" horiz-adv-x="2294" d="M1626 864Q1525 811 1409 774T1176 721V258H954V709Q743 717 589 785T346 998T258 1372V2101H508V1397Q508 1226 563 1124T717 976T954 922V1425H1176V930Q1279 939 1403 978T1626 1073V2101H1876V0H1626V864Z"
/>
<glyph unicode="&#x4ba;" glyph-name="uni04BA" horiz-adv-x="2802" d="M709 1892Q865 1936 1075 1963T1487 1991Q1832 1991 2045 1889T2358 1572T2458 1012V0H2200V991Q2200 1269 2132 1437T1903 1687T1458 1769Q1284 1769 1086 1745T709 1679V0H451V2966H709V1892Z" />
<glyph unicode="&#x4bb;" glyph-name="uni04BB" horiz-adv-x="2540" d="M1888 0V1438Q1888 1620 1829 1728T1656 1882T1372 1929Q1171 1929 1000 1870T668 1688V0H418V3080H668V1901Q810 2010 994 2076T1384 2142Q1620 2142 1788 2074T2047 1861T2138 1487V0H1888Z" />
<glyph unicode="&#x4c1;" glyph-name="uni04C1" horiz-adv-x="3813" d="M1778 1397H1516Q1383 1397 1300 1339T1122 1139L389 0H82L852 1184Q1009 1427 1159 1499Q1020 1577 868 1819L152 2966H451L1139 1860Q1226 1718 1305 1666T1520 1614H1778V2966H2036V1614H2294Q2430
1614 2508 1666T2675 1860L3363 2966H3662L2945 1819Q2794 1577 2654 1499Q2804 1428 2961 1184L3731 0H3424L2691 1139Q2597 1281 2514 1339T2298 1397H2036V0H1778V1397ZM1905 3207Q1741 3207 1610 3275T1403 3471T1327 3768H1532Q1538 3656 1587 3577T1719 3457T1909
3416Q2018 3416 2099 3456T2228 3576T2282 3768H2487Q2487 3598 2411 3471T2203 3276T1905 3207Z" />
<glyph unicode="&#x4c2;" glyph-name="uni04C2" horiz-adv-x="3183" d="M1466 979H1307Q1205 979 1134 942T991 803L422 0H111L737 864Q801 951 879 1009T1040 1081Q956 1104 894 1158T758 1311L160 2101H455L1008 1360Q1084 1255 1140 1220T1298 1184H1466V2101H1716V1184H1884Q1985
1184 2042 1220T2175 1360L2728 2101H3023L2425 1311Q2351 1212 2289 1158T2142 1081Q2225 1067 2302 1009T2445 864L3072 0H2761L2191 803Q2120 904 2049 941T1876 979H1716V0H1466V979ZM2171 3006Q2171 2836 2095 2709T1887 2514T1589 2445Q1425 2445 1294 2513T1087
2709T1011 3006H1216Q1222 2894 1271 2815T1403 2695T1593 2654Q1702 2654 1783 2694T1912 2814T1966 3006H2171Z" />
<glyph unicode="&#x4d8;" glyph-name="uni04D8" horiz-adv-x="2949" d="M549 1266Q549 967 645 722T945 328T1454 180Q1765 180 1964 328T2261 718T2384 1266H549ZM401 2761Q643 2876 881 2941T1393 3006Q1814 3006 2096 2812T2516 2277T2654 1487Q2654 1039 2525
696T2127 156T1450 -41Q1049 -41 787 141T402 631T279 1323V1483H2384Q2384 1880 2278 2171T1948 2623T1376 2785Q1124 2785 891 2720T401 2527V2761Z" />
<glyph unicode="&#x4d9;" glyph-name="uni04D9" horiz-adv-x="2343" d="M1114 2142Q1443 2142 1654 2011T1965 1635T2064 1044Q2064 727 1959 482T1647 98T1147 -41Q863 -41 666 87T369 440T270 950Q270 1013 279 1073H1802Q1796 1368 1723 1555T1496 1836T1090
1929Q882 1929 729 1893T373 1774V1974Q501 2046 689 2094T1114 2142ZM1151 172Q1335 172 1476 257T1701 499T1798 864H528Q537 654 612 498T824 257T1151 172Z" />
<glyph unicode="&#x4e2;" glyph-name="uni04E2" horiz-adv-x="3129" d="M451 2966H709V799Q709 479 696 344Q798 565 942 778L2413 2966H2679V0H2421V2167Q2421 2486 2433 2621Q2329 2397 2187 2187L717 0H451V2966ZM1020 3342V3547H2114V3342H1020Z" />
<glyph unicode="&#x4e3;" glyph-name="uni04E3" horiz-adv-x="2621" d="M418 2101H668V672Q668 467 651 328Q689 400 844 623L1974 2101H2204V0H1954V1430Q1954 1631 1970 1774Q1935 1706 1778 1479L647 0H418V2101ZM778 2605V2810H1872V2605H778Z" />
<glyph unicode="&#x4e8;" glyph-name="uni04E8" horiz-adv-x="2994" d="M1491 -41Q1081 -41 814 152T421 686T295 1479Q295 1927 424 2270T824 2810T1503 3006Q1913 3006 2180 2813T2573 2279T2699 1487Q2699 1038 2570 695T2170 155T1491 -41ZM1499 180Q1815
180 2020 337T2323 768T2429 1409H565Q574 1041 672 767T975 336T1499 180ZM1495 2785Q1182 2785 980 2632T679 2219T565 1626H2429Q2411 1961 2313 2219T2013 2631T1495 2785Z" />
<glyph unicode="&#x4e9;" glyph-name="uni04E9" horiz-adv-x="2494" d="M1245 -41Q919 -41 703 98T383 481T279 1049Q279 1368 385 1614T710 2001T1249 2142Q1575 2142 1791 2004T2112 1620T2216 1053Q2216 733 2110 487T1785 100T1245 -41ZM1249 1929Q1011 1929
858 1830T631 1563T541 1176H1954Q1936 1399 1862 1566T1636 1831T1249 1929ZM1245 172Q1486 172 1641 274T1870 554T1954 967H541Q551 730 626 553T854 274T1245 172Z" />
<glyph unicode="&#x4ee;" glyph-name="uni04EE" horiz-adv-x="2335" d="M569 -33Q419 -33 279 -4V205Q400 188 549 188Q670 188 751 226T912 382T1094 741L1114 791L57 2966H352L1077 1450Q1163 1270 1249 1061Q1303 1218 1397 1446L2007 2966H2286L1311 631Q1202
368 1102 227T878 26T569 -33ZM639 3342V3547H1733V3342H639Z" />
<glyph unicode="&#x4ef;" glyph-name="uni04EF" horiz-adv-x="2044" d="M12 -725Q68 -737 156 -737Q318 -737 446 -675T681 -468T877 -78L893 -33L61 2101H336L930 524Q996 348 1028 205Q1068 351 1130 520L1712 2101H1982L1098 -156Q991 -433 859 -608T561 -866T184
-950Q87 -950 12 -930V-725ZM475 2605V2810H1569V2605H475Z" />
<glyph unicode="&#xe3f;" glyph-name="uni0E3F" horiz-adv-x="2646" d="M451 2966H1176V3346H1413V2957Q1679 2937 1863 2842T2141 2580T2236 2183Q2236 2027 2187 1898T2046 1678T1827 1544Q2013 1496 2135 1391T2317 1136T2376 807Q2376 566 2271 388T1950 109T1413
0V-381H1176V0H451V2966ZM2105 807Q2105 984 2029 1113T1799 1316T1413 1393V221Q1654 229 1807 301T2033 501T2105 807ZM709 221H1176V1393H709V221ZM709 1610H1176V2744H709V1610ZM1966 2175Q1966 2328 1909 2443T1728 2632T1413 2732V1610Q1597 1628 1720 1704T1905
1901T1966 2175Z" />
<glyph unicode="&#x1e80;" glyph-name="Wgrave" horiz-adv-x="4407" d="M3047 0L2277 2290Q2217 2472 2187 2621Q2151 2439 2101 2290L1364 0H1085L90 2966H369L1122 676Q1196 456 1233 307Q1278 494 1339 676L2077 2966H2327L3080 676Q3154 456 3191 307Q3236
494 3297 676L4051 2966H4317L3322 0H3047ZM2072 3215L1552 3768H1900L2322 3215H2072Z" />
<glyph unicode="&#x1e81;" glyph-name="wgrave" horiz-adv-x="3310" d="M2224 0L1741 1487Q1704 1587 1655 1782Q1628 1679 1569 1487L1085 0H791L78 2101H348L868 500Q896 415 954 205Q976 312 1032 500L1552 2101H1769L2290 500Q2346 312 2367 205Q2433 436
2454 500L2961 2101H3232L2519 0H2224ZM1527 2454L1007 3006H1355L1777 2454H1527Z" />
<glyph unicode="&#x1e82;" glyph-name="Wacute" horiz-adv-x="4407" d="M3047 0L2277 2290Q2217 2472 2187 2621Q2151 2439 2101 2290L1364 0H1085L90 2966H369L1122 676Q1196 456 1233 307Q1278 494 1339 676L2077 2966H2327L3080 676Q3154 456 3191 307Q3236
494 3297 676L4051 2966H4317L3322 0H3047ZM2482 3768H2830L2310 3215H2060L2482 3768Z" />
<glyph unicode="&#x1e83;" glyph-name="wacute" horiz-adv-x="3310" d="M2224 0L1741 1487Q1704 1587 1655 1782Q1628 1679 1569 1487L1085 0H791L78 2101H348L868 500Q896 415 954 205Q976 312 1032 500L1552 2101H1769L2290 500Q2346 312 2367 205Q2433 436
2454 500L2961 2101H3232L2519 0H2224ZM1536 2454L1958 3006H2306L1786 2454H1536Z" />
<glyph unicode="&#x1e84;" glyph-name="Wdieresis" horiz-adv-x="4407" d="M3047 0L2277 2290Q2217 2472 2187 2621Q2151 2439 2101 2290L1364 0H1085L90 2966H369L1122 676Q1196 456 1233 307Q1278 494 1339 676L2077 2966H2327L3080 676Q3154 456 3191 307Q3236
494 3297 676L4051 2966H4317L3322 0H3047ZM1671 3342V3703H1921V3342H1671ZM2491 3342V3703H2740V3342H2491Z" />
<glyph unicode="&#x1e85;" glyph-name="wdieresis" horiz-adv-x="3310" d="M2224 0L1741 1487Q1704 1587 1655 1782Q1628 1679 1569 1487L1085 0H791L78 2101H348L868 500Q896 415 954 205Q976 312 1032 500L1552 2101H1769L2290 500Q2346 312 2367 205Q2433 436
2454 500L2961 2101H3232L2519 0H2224ZM1118 2605V2966H1368V2605H1118ZM1938 2605V2966H2187V2605H1938Z" />
<glyph unicode="&#x1ef2;" glyph-name="Ygrave" horiz-adv-x="2441" d="M1090 0V1176L49 2966H348L1110 1634Q1189 1498 1229 1417Q1269 1498 1348 1634L2109 2966H2392L1348 1167V0H1090ZM1105 3215L585 3768H933L1355 3215H1105Z" />
<glyph unicode="&#x1ef3;" glyph-name="ygrave" horiz-adv-x="2044" d="M12 -725Q68 -737 156 -737Q318 -737 446 -675T681 -468T877 -78L893 -33L61 2101H336L930 524Q996 348 1028 205Q1068 351 1130 520L1712 2101H1982L1098 -156Q991 -433 859 -608T561 -866T184
-950Q87 -950 12 -930V-725ZM913 2454L393 3006H741L1163 2454H913Z" />
<glyph unicode="&#x2013;" glyph-name="endash" horiz-adv-x="2159" d="M176 1130V1339H1982V1130H176Z" />
<glyph unicode="&#x2014;" glyph-name="emdash" horiz-adv-x="3396" d="M176 1130V1339H3219V1130H176Z" />
<glyph unicode="&#x2015;" glyph-name="uni2015" horiz-adv-x="3396" d="M176 1130V1339H3219V1130H176Z" />
<glyph unicode="&#x2018;" glyph-name="quoteleft" horiz-adv-x="1065" d="M594 2605L639 2187H442Q355 2187 311 2235T266 2372Q266 2496 313 2605T496 2916L606 3080H827L594 2605Z" />
<glyph unicode="&#x2019;" glyph-name="quoteright" horiz-adv-x="1065" d="M238 2187L471 2662L426 3080H623Q710 3080 754 3032T799 2896Q799 2773 752 2663T569 2351L459 2187H238Z" />
<glyph unicode="&#x201a;" glyph-name="quotesinglbase" horiz-adv-x="1065" d="M463 29L418 446H614Q702 446 746 398T791 262Q791 139 744 29T561 -283L451 -446H229L463 29Z" />
<glyph unicode="&#x201c;" glyph-name="quotedblleft" horiz-adv-x="1815" d="M594 2605L639 2187H442Q355 2187 311 2235T266 2372Q266 2496 313 2605T496 2916L606 3080H827L594 2605ZM1344 2605L1389 2187H1192Q1105 2187 1061 2235T1016 2372Q1016 2496 1063
2605T1246 2916L1356 3080H1577L1344 2605Z" />
<glyph unicode="&#x201d;" glyph-name="quotedblright" horiz-adv-x="1815" d="M238 2187L471 2662L426 3080H623Q710 3080 754 3032T799 2896Q799 2773 752 2663T569 2351L459 2187H238ZM988 2187L1221 2662L1176 3080H1373Q1460 3080 1504 3032T1549 2896Q1549
2773 1502 2663T1319 2351L1209 2187H988Z" />
<glyph unicode="&#x201e;" glyph-name="quotedblbase" horiz-adv-x="1810" d="M463 29L418 446H614Q702 446 746 398T791 262Q791 139 744 29T561 -283L451 -446H229L463 29ZM1213 29L1168 446H1364Q1452 446 1496 398T1541 262Q1541 139 1494 29T1311 -283L1201
-446H979L1213 29Z" />
<glyph unicode="&#x2020;" glyph-name="dagger" horiz-adv-x="1991" d="M1090 2105Q1122 1964 1122 1729V1053H868V1729Q868 1967 905 2105H291V2310H905Q868 2448 868 2687V2966H1122V2687Q1122 2451 1090 2310H1700V2105H1090Z" />
<glyph unicode="&#x2021;" glyph-name="daggerdbl" horiz-adv-x="1991" d="M868 606V893Q868 1132 905 1270H291V1475H868V2097H291V2302H905Q868 2440 868 2679V2966H1122V2679Q1122 2443 1090 2302H1700V2097H1122V1475H1700V1270H1090Q1122 1129 1122 893V606H868Z" />
<glyph unicode="&#x2022;" glyph-name="bullet" horiz-adv-x="2191" d="M520 713V2253L1855 1483L520 713Z" />
<glyph unicode="&#x2026;" glyph-name="ellipsis" horiz-adv-x="3351" d="M459 0V377H786V0H459ZM1512 0V377H1839V0H1512ZM2564 0V377H2891V0H2564Z" />
<glyph unicode="&#x2030;" glyph-name="perthousand" horiz-adv-x="5517" d="M4526 -41Q4296 -41 4146 51T3925 305T3854 684Q3854 897 3926 1060T4149 1316T4526 1409Q4756 1409 4906 1317T5127 1063T5198 684Q5198 471 5126 308T4903 52T4526 -41ZM4526 164Q4669
164 4762 229T4900 411T4944 684Q4944 840 4899 956T4761 1138T4526 1204Q4383 1204 4290 1139T4152 957T4108 684Q4108 528 4153 412T4291 230T4526 164ZM991 1556Q761 1556 611 1648T390 1902T319 2281Q319 2494 391 2657T614 2913T991 3006Q1221 3006 1371 2914T1592
2660T1663 2281Q1663 2068 1591 1905T1368 1649T991 1556ZM991 1761Q1134 1761 1227 1826T1365 2008T1409 2281Q1409 2437 1364 2554T1226 2736T991 2802Q848 2802 755 2737T617 2555T573 2281Q573 2125 618 2009T756 1827T991 1761ZM2830 -41Q2600 -41 2450 51T2230
305T2159 684Q2159 897 2231 1060T2453 1316T2830 1409Q3060 1409 3210 1317T3431 1063T3502 684Q3502 471 3430 308T3207 52T2830 -41ZM2830 164Q2973 164 3066 229T3204 411T3248 684Q3248 840 3203 956T3065 1138T2830 1204Q2687 1204 2594 1139T2457 957T2413
684Q2413 528 2458 412T2596 230T2830 164ZM786 0L2748 2966H3035L1073 0H786Z" />
<glyph unicode="&#x2039;" glyph-name="guilsinglleft" horiz-adv-x="1548" d="M983 467L295 1229L983 1991H1253L606 1229L1253 467H983Z" />
<glyph unicode="&#x203a;" glyph-name="guilsinglright" horiz-adv-x="1548" d="M295 467L942 1229L295 1991H565L1253 1229L565 467H295Z" />
<glyph unicode="&#x2044;" glyph-name="fraction" horiz-adv-x="713" d="M-770 -20L1233 2986H1487L-516 -20H-770Z" />
<glyph unicode="&#x2070;" glyph-name="uni2070" horiz-adv-x="1630" d="M811 1454Q595 1454 455 1559T250 1848T184 2277Q184 2520 252 2706T462 2998T819 3104Q1035 3104 1175 2999T1380 2710T1446 2281Q1446 2038 1378 1852T1168 1560T811 1454ZM815 1646Q952
1646 1040 1726T1170 1947T1212 2277Q1212 2468 1171 2610T1041 2832T815 2912Q678 2912 590 2832T460 2610T418 2277Q418 2088 459 1947T589 1726T815 1646Z" />
<glyph unicode="&#x2074;" glyph-name="uni2074" horiz-adv-x="1630" d="M991 1478V1839H111V2031L942 3080H1225V2031H1499V1839H1225V1478H991ZM991 2842L352 2031H991V2842Z" />
<glyph unicode="&#x2075;" glyph-name="uni2075" horiz-adv-x="1630" d="M258 1736Q348 1698 479 1672T750 1646Q887 1646 973 1683T1099 1786T1139 1941Q1139 2050 1053 2117T838 2216T582 2256T328 2265L356 3080H1307V2888H565L553 2453Q702 2446 839 2422T1099
2342T1296 2189T1372 1945Q1372 1799 1306 1689T1100 1517T750 1454Q608 1454 479 1480T258 1548V1736Z" />
<glyph unicode="&#x2076;" glyph-name="uni2076" horiz-adv-x="1630" d="M1356 2859Q1261 2885 1180 2898T995 2912Q828 2912 715 2853T537 2678T451 2387Q542 2442 646 2474T868 2506Q1058 2506 1188 2444T1384 2265T1450 1982Q1450 1833 1382 1713T1178 1524T844
1454Q647 1454 504 1533T283 1781T205 2207Q205 2500 293 2700T558 3002T995 3104Q1097 3104 1188 3090T1356 3051V2859ZM446 2191Q446 2011 493 1889T629 1707T844 1646Q969 1646 1053 1687T1179 1803T1221 1982Q1221 2147 1129 2232T860 2318Q741 2318 639 2285T446
2191Z" />
<glyph unicode="&#x2077;" glyph-name="uni2077" horiz-adv-x="1630" d="M381 1478L1151 2888H233V3080H1397V2888L635 1478H381Z" />
<glyph unicode="&#x2078;" glyph-name="uni2078" horiz-adv-x="1630" d="M1135 2318Q1288 2266 1367 2161T1446 1908Q1446 1776 1377 1674T1165 1513T815 1454Q607 1454 465 1512T254 1673T184 1908Q184 2055 264 2160T496 2318Q378 2366 312 2465T246 2686Q246
2817 313 2911T508 3054T815 3104Q996 3104 1123 3055T1317 2911T1384 2686Q1384 2562 1319 2464T1135 2318ZM1212 1921Q1212 2003 1169 2069T1037 2175T815 2215Q685 2215 596 2176T462 2070T418 1921Q418 1839 462 1776T595 1678T815 1642Q948 1642 1037 1677T1169
1776T1212 1921ZM1151 2670Q1151 2790 1065 2853T815 2916Q654 2916 567 2853T479 2670Q479 2591 518 2530T633 2435T815 2400Q923 2400 998 2434T1112 2530T1151 2670Z" />
<glyph unicode="&#x2079;" glyph-name="uni2079" horiz-adv-x="1630" d="M274 1699Q456 1646 635 1646Q891 1646 1026 1785T1180 2203Q1087 2149 988 2117T782 2084Q586 2084 451 2144T248 2318T180 2592Q180 2737 247 2853T451 3036T786 3104Q982 3104 1125 3022T1346
2772T1425 2351Q1425 2058 1339 1859T1078 1557T639 1454Q434 1454 274 1507V1699ZM1184 2400Q1178 2568 1129 2682T993 2854T786 2912Q665 2912 581 2875T453 2767T410 2600Q410 2445 506 2359T786 2273Q898 2273 995 2305T1184 2400Z" />
<glyph unicode="&#x2080;" glyph-name="uni2080" horiz-adv-x="1630" d="M811 -614Q595 -614 455 -509T250 -220T184 209Q184 452 252 638T462 930T819 1036Q1035 1036 1175 931T1380 642T1446 213Q1446 -30 1378 -216T1168 -508T811 -614ZM815 -422Q952 -422
1040 -342T1170 -121T1212 209Q1212 400 1171 542T1041 764T815 844Q678 844 590 764T460 542T418 209Q418 20 459 -121T589 -342T815 -422Z" />
<glyph unicode="&#x2081;" glyph-name="uni2081" horiz-adv-x="1630" d="M729 -590V803L360 713V909L774 1012H963V-590H729Z" />
<glyph unicode="&#x2082;" glyph-name="uni2082" horiz-adv-x="1630" d="M217 -590V-398L651 -38Q802 88 896 189T1035 380T1081 557Q1081 645 1045 709T932 809T737 844Q621 844 500 821T274 754V950Q375 989 495 1012T737 1036Q935 1036 1064 978T1254 814T1315
565Q1315 419 1244 293T1061 62T762 -189L496 -398H1384V-590H217Z" />
<glyph unicode="&#x2083;" glyph-name="uni2083" horiz-adv-x="1630" d="M238 -332Q327 -370 458 -396T729 -422Q853 -422 938 -388T1067 -292T1110 -147Q1110 -15 1004 64T684 144H516V336H684Q863 336 958 404T1053 602Q1053 680 1012 734T895 816T717 844Q617
844 500 820T279 754V950Q379 989 497 1012T725 1036Q909 1036 1034 988T1222 847T1286 618Q1286 497 1222 404T1040 258Q1188 207 1265 101T1343 -143Q1343 -284 1273 -390T1064 -555T729 -614Q587 -614 458 -588T238 -520V-332Z" />
<glyph unicode="&#x2084;" glyph-name="uni2084" horiz-adv-x="1630" d="M991 -590V-229H111V-37L942 1012H1225V-37H1499V-229H1225V-590H991ZM991 774L352 -37H991V774Z" />
<glyph unicode="&#x2085;" glyph-name="uni2085" horiz-adv-x="1630" d="M258 -332Q348 -370 479 -396T750 -422Q887 -422 973 -385T1099 -282T1139 -127Q1139 -18 1053 49T838 148T582 188T328 197L356 1012H1307V820H565L553 385Q702 378 839 354T1099 274T1296
121T1372 -123Q1372 -269 1306 -379T1100 -551T750 -614Q608 -614 479 -588T258 -520V-332Z" />
<glyph unicode="&#x2086;" glyph-name="uni2086" horiz-adv-x="1630" d="M1356 791Q1261 817 1180 830T995 844Q828 844 715 785T537 610T451 319Q542 374 646 406T868 438Q1058 438 1188 376T1384 197T1450 -86Q1450 -235 1382 -355T1178 -544T844 -614Q647 -614
504 -535T283 -287T205 139Q205 432 293 632T558 934T995 1036Q1097 1036 1188 1022T1356 983V791ZM446 123Q446 -57 493 -179T629 -361T844 -422Q969 -422 1053 -381T1179 -265T1221 -86Q1221 79 1129 164T860 250Q741 250 639 217T446 123Z" />
<glyph unicode="&#x2087;" glyph-name="uni2087" horiz-adv-x="1630" d="M381 -590L1151 820H233V1012H1397V820L635 -590H381Z" />
<glyph unicode="&#x2088;" glyph-name="uni2088" horiz-adv-x="1630" d="M1135 250Q1288 198 1367 93T1446 -160Q1446 -292 1377 -394T1165 -555T815 -614Q607 -614 465 -556T254 -395T184 -160Q184 -13 264 92T496 250Q378 298 312 397T246 618Q246 749 313 843T508
986T815 1036Q996 1036 1123 987T1317 843T1384 618Q1384 494 1319 396T1135 250ZM1212 -147Q1212 -65 1169 1T1037 107T815 147Q685 147 596 108T462 2T418 -147Q418 -229 462 -292T595 -390T815 -426Q948 -426 1037 -391T1169 -292T1212 -147ZM1151 602Q1151
722 1065 785T815 848Q654 848 567 785T479 602Q479 523 518 462T633 367T815 332Q923 332 998 366T1112 462T1151 602Z" />
<glyph unicode="&#x2089;" glyph-name="uni2089" horiz-adv-x="1630" d="M274 -369Q456 -422 635 -422Q891 -422 1026 -283T1180 135Q1087 81 988 49T782 16Q586 16 451 76T248 250T180 524Q180 669 247 785T451 968T786 1036Q982 1036 1125 954T1346 704T1425
283Q1425 -10 1339 -209T1078 -511T639 -614Q434 -614 274 -561V-369ZM1184 332Q1178 500 1129 614T993 786T786 844Q665 844 581 807T453 699T410 532Q410 377 506 291T786 205Q898 205 995 237T1184 332Z" />
<glyph unicode="&#x20a1;" glyph-name="uni20A1" horiz-adv-x="2646" d="M856 160Q684 282 569 474T397 920T340 1479Q340 1895 450 2213T780 2730T1319 2986L1380 3346H1618L1561 3006H1573Q1773 3006 1970 2961L2036 3346H2273L2200 2896Q2241 2882 2314 2847V2617Q2196
2667 2163 2679L1757 188Q1915 204 2068 242T2355 336V119Q2234 66 2065 24T1720 -33L1663 -381H1425L1479 -37Q1263 -25 1077 45L1008 -381H770L856 160ZM1114 287Q1302 186 1516 180L1937 2744Q1743 2785 1569 2785H1524L1114 287ZM610 1483Q610 1141 683 882T905
455L1282 2744Q1061 2681 911 2514T686 2087T610 1483Z" />
<glyph unicode="&#x20a4;" glyph-name="uni20A4" horiz-adv-x="2646" d="M426 1913H795V2114Q795 2446 897 2644T1171 2924T1569 3006Q1704 3006 1835 2983T2089 2916V2695Q1970 2736 1833 2760T1561 2785Q1388 2785 1277 2719T1109 2502T1053 2101V1913H1978V1696H1053V1245H1978V1028H1053V733Q1053
544 994 419T836 221H2339V0H393V221H438Q549 221 629 278T752 447T795 721V1028H426V1245H795V1696H426V1913Z" />
<glyph unicode="&#x20a6;" glyph-name="uni20A6" horiz-adv-x="3375" d="M197 1974H573V2966H856L1516 1974H2544V2966H2802V1974H3178V1757H2802V1204H3178V987H2802V0H2523L1864 987H831V0H573V987H197V1204H573V1757H197V1974ZM831 1204H1720L1356 1757H831V1204ZM2028
1204H2544V1757H1659L2028 1204ZM1081 2171Q916 2426 815 2638Q831 2430 831 2150V1974H1212L1081 2171ZM2171 987L2294 803Q2459 548 2560 336Q2544 544 2544 823V987H2171Z" />
<glyph unicode="&#x20a8;" glyph-name="uni20A8" horiz-adv-x="4112" d="M451 2966H1171Q1507 2966 1728 2862T2056 2570T2163 2126Q2163 1886 2070 1712T1809 1437T1421 1311Q1477 1279 1539 1214T1663 1061L1970 623Q2062 490 2203 390T2544 233T2994 176Q3233
176 3370 217T3564 336T3621 528Q3621 640 3564 706T3408 811T3125 893Q2896 947 2752 1012T2528 1186T2449 1462Q2449 1618 2525 1740T2764 1935T3170 2007Q3323 2007 3476 1973T3740 1880V1671Q3615 1729 3465 1763T3166 1798Q2998 1798 2893 1760T2739 1651T2691
1479Q2691 1365 2748 1298T2905 1193T3187 1114Q3416 1060 3560 994T3784 820T3863 541Q3863 371 3774 241T3486 35T2974 -41Q2702 -41 2497 4T2147 130T1899 313T1704 549L1368 1032Q1273 1168 1185 1225T967 1282H709V0H451V2966ZM709 2744V1499H1171Q1394 1499
1555 1565T1804 1771T1892 2122Q1892 2310 1816 2449T1578 2666T1163 2744H709Z" />
<glyph unicode="&#x20a9;" glyph-name="uni20A9" horiz-adv-x="4006" d="M197 1974H598L360 2966H635L864 1974H1622L1847 2966H2154L2384 1974H3150L3383 2966H3645L3408 1974H3809V1757H3355L3219 1204H3809V987H3166L2929 0H2601L2363 987H1630L1409 0H1077L840
987H197V1204H786L651 1757H197V1974ZM1044 1204H1446L1573 1757H918L1044 1204ZM2564 1204H2970L3101 1757H2437L2564 1204ZM1679 1204H2310L2179 1757H1806L1679 1204ZM1253 295Q1303 584 1327 676L1397 987H1098L1171 668Q1228 433 1249 295H1253ZM2777 291Q2794
436 2847 668L2920 987H2617L2691 672Q2740 472 2773 291H2777ZM1982 2626Q1965 2461 1929 2298L1855 1974H2126L2048 2298Q2001 2482 1987 2626H1982Z" />
<glyph unicode="&#x20aa;" glyph-name="uni20AA" horiz-adv-x="3686" d="M422 2515H1622Q1915 2515 2084 2442T2327 2220T2400 1827V578H2150V1810Q2150 2002 2106 2107T1950 2259T1626 2306H672V0H422V2515ZM1286 0V1937H1536V209H2494Q2706 209 2817 256T2971
408T3015 705V2515H3265V688Q3265 445 3193 296T2950 73T2486 0H1286Z" />
<glyph unicode="&#x20ab;" glyph-name="uni20AB" horiz-adv-x="2646" d="M1544 3080H1929V3371H2179V3080H2441V2875H2179V590H1950L1933 770Q1778 663 1613 606T1262 549Q971 549 764 655T447 977T336 1516Q336 1844 454 2071T784 2412T1278 2527Q1464 2527 1628
2479T1929 2347V2875H1544V3080ZM393 213H2208V0H393V213ZM1294 762Q1463 762 1615 815T1929 975V2130Q1786 2220 1628 2267T1298 2314Q1072 2314 916 2228T679 1967T598 1532Q598 1278 678 1106T913 848T1294 762Z" />
<glyph unicode="&#x20ac;" glyph-name="Euro" horiz-adv-x="2646" d="M2478 119Q2326 53 2116 6T1700 -41Q1379 -41 1142 79T756 427T545 983H242V1196H516Q504 1307 504 1483Q504 1622 520 1778H242V1991H553Q617 2315 770 2542T1160 2887T1708 3006Q1904 3006
2106 2961T2437 2847V2617Q2262 2697 2077 2741T1704 2785Q1462 2785 1283 2691T990 2420T823 1991H2028V1778H791Q774 1654 774 1483Q774 1313 786 1196H2028V983H819Q875 724 991 545T1286 273T1708 180Q1906 180 2107 222T2478 336V119Z" />
<glyph unicode="&#x20ad;" glyph-name="uni20AD" horiz-adv-x="2646" d="M184 1622H475V2966H733V1622H782L2150 2966H2490L1307 1810Q1165 1677 1069 1622H2236V1405H1069Q1167 1346 1307 1212L2531 0H2163L750 1405H733V0H475V1405H184V1622Z" />
<glyph unicode="&#x20ae;" glyph-name="uni20AE" horiz-adv-x="2646" d="M225 2966H2425V2744H1454V1876L2052 2126V1892L1454 1642V1110L2052 1360V1126L1454 877V0H1196V766L598 516V750L1196 999V1532L598 1282V1516L1196 1765V2744H225V2966Z" />
<glyph unicode="&#x20b1;" glyph-name="uni20B1" horiz-adv-x="2646" d="M2445 1466H2060Q2012 1334 1933 1224T1740 1033T1474 909T1130 864H791V0H532V1466H164V1683H532V2134H164V2351H532V2966H1143Q1330 2966 1481 2924T1747 2802T1942 2608T2068 2351H2445V2134H2118Q2127
2081 2130 2027T2134 1917Q2134 1855 2129 1797T2114 1683H2445V1466ZM791 1683H1847Q1857 1736 1862 1793T1868 1913Q1868 1972 1863 2026T1851 2134H791V1683ZM791 1085H1151Q1274 1085 1374 1111T1553 1186T1689 1306T1786 1466H791V1085ZM791 2351H1790Q1752
2443 1693 2516T1551 2639T1363 2717T1126 2744H791V2351Z" />
<glyph unicode="&#x20b2;" glyph-name="uni20B2" horiz-adv-x="2908" d="M1348 -33Q985 5 750 202T405 724T295 1479Q295 1918 415 2239T771 2751T1348 2990V3346H1585V3006Q1778 3006 2000 2964T2380 2851V2634Q2195 2702 1984 2742T1585 2785V180Q1756 183 1916
215T2241 307V1413H2499V180Q2290 85 2053 27T1585 -41V-381H1348V-33ZM565 1483Q565 1121 645 848T900 405T1348 193V2765Q959 2697 762 2378T565 1483Z" />
<glyph unicode="&#x20b4;" glyph-name="uni20B4" horiz-adv-x="2646" d="M1372 -41Q1045 -41 822 59T488 340T377 758Q377 892 406 987H197V1204H508Q607 1332 758 1418T1090 1558T1421 1658T1671 1757H197V1974H1901Q1958 2091 1958 2245Q1958 2405 1883 2526T1653
2716T1266 2785Q1071 2785 889 2734T537 2593V2826Q683 2908 884 2957T1286 3006Q1603 3006 1812 2909T2120 2644T2220 2257Q2220 2101 2175 1974H2449V1757H2040Q1933 1644 1787 1569T1396 1423T1046 1313T836 1204H2449V987H672Q639 906 639 770Q639 596 714
464T957 256T1389 180Q1614 180 1842 239T2245 389V152Q2079 62 1855 11T1372 -41Z" />
<glyph unicode="&#x20b5;" glyph-name="uni20B5" horiz-adv-x="2646" d="M1454 -37Q1080 -15 832 174T462 695T340 1479Q340 1927 464 2259T838 2784T1454 3002V3346H1692V3002Q1861 2987 2025 2945T2302 2847V2617Q2147 2683 1996 2724T1692 2777V184Q1864 197
2031 236T2343 336V119Q2215 65 2042 22T1692 -37V-381H1454V-37ZM610 1483Q610 1099 701 819T980 375T1454 184V2781Q1173 2757 985 2597T703 2155T610 1483Z" />
<glyph unicode="&#x20bd;" glyph-name="uni20BD" horiz-adv-x="2646" d="M532 2966H1376Q1681 2966 1884 2864T2187 2576T2286 2134Q2286 1897 2191 1710T1889 1413T1360 1303H791V852H1712V635H791V0H532V635H164V852H532V1303H164V1520H532V2966ZM1368 1520Q1590
1520 1734 1597T1947 1811T2015 2130Q2015 2318 1946 2455T1728 2668T1343 2744H791V1520H1368Z" />
<glyph unicode="&#x2113;" glyph-name="uni2113" horiz-adv-x="2228" d="M1647 20Q1452 -41 1208 -41Q1031 -41 905 5T703 176T627 520V909L295 827V1040L627 1122V2146Q627 2418 691 2609T891 2903T1233 3006Q1419 3006 1548 2926T1746 2673T1815 2232Q1815 1897
1714 1646T1405 1225T877 975V549Q877 395 922 313T1044 201T1229 172Q1429 172 1647 229V20ZM877 1188Q1105 1246 1258 1391T1486 1749T1561 2224Q1561 2403 1527 2529T1418 2724T1221 2793Q1092 2793 1016 2711T909 2482T877 2126V1188Z" />
<glyph unicode="&#x2116;" glyph-name="uni2116" horiz-adv-x="5382" d="M2400 0L958 2171Q793 2426 692 2638Q709 2434 709 2150V0H451V2966H733L2171 803Q2336 548 2437 336Q2421 544 2421 823V2966H2679V0H2400ZM4231 1262Q3957 1262 3779 1371T3516 1674T3432
2126Q3432 2379 3517 2573T3782 2879T4231 2990Q4505 2990 4683 2881T4946 2578T5030 2126Q5030 1872 4945 1678T4680 1373T4231 1262ZM4231 1463Q4424 1463 4549 1544T4733 1773T4792 2122Q4792 2322 4733 2471T4548 2705T4231 2789Q4038 2789 3913 2707T3729
2478T3670 2130Q3670 1928 3729 1779T3914 1546T4231 1463ZM3432 565V762H5030V565H3432Z" />
<glyph unicode="&#x2117;" glyph-name="uni2117" horiz-adv-x="3564" d="M1774 -41Q1317 -41 984 155T475 696T299 1483Q299 1917 479 2263T998 2807T1790 3006Q2247 3006 2580 2810T3089 2269T3265 1483Q3265 1049 3085 703T2566 158T1774 -41ZM1786 168Q2175
168 2458 335T2890 800T3039 1483Q3039 1868 2890 2166T2456 2631T1778 2798Q1389 2798 1106 2631T673 2166T524 1483Q524 1098 673 800T1108 335T1786 168ZM1278 614V2306H1872Q2066 2306 2194 2241T2383 2058T2445 1778Q2445 1625 2386 1505T2195 1313T1860 1241H1528V614H1278ZM1860
1450Q1971 1450 2043 1490T2149 1603T2183 1774Q2183 1873 2149 1945T2040 2057T1847 2097H1528V1450H1860Z" />
<glyph unicode="&#x2122;" glyph-name="trademark" horiz-adv-x="3777" d="M3097 1626V2757L2589 1921H2417L1909 2757V1626H1679V2966H2028L2503 2183L2978 2966H3326V1626H3097ZM664 1626V2777H213V2966H1343V2777H893V1626H664Z" />
<glyph unicode="&#x2126;" glyph-name="Omega" horiz-adv-x="3068" d="M279 221H897Q611 440 472 763T332 1511Q332 1944 461 2280T862 2811T1540 3006Q1949 3006 2217 2815T2610 2289T2736 1520Q2736 1097 2585 771T2142 221H2789V0H1765V184Q2006 342 2157 517T2387
934T2466 1516Q2466 1891 2368 2176T2060 2623T1532 2785Q1215 2785 1007 2623T701 2176T602 1516Q602 1175 680 934T909 517T1303 184V0H279V221Z" />
<glyph unicode="&#x212e;" glyph-name="uni212E" horiz-adv-x="3695" d="M3174 442Q2983 224 2637 92T1909 -41Q1362 -41 1010 152T495 685T332 1479Q332 1927 495 2270T999 2810T1855 3006Q2375 3006 2712 2813T3208 2279T3367 1487Q3367 1421 3363 1393H848V614Q1008
396 1272 290T1925 184Q2252 184 2546 296T3011 606L3174 442ZM2798 2425Q2641 2598 2406 2691T1847 2785Q1500 2785 1250 2673T848 2355V1597H2798V2425Z" />
<glyph unicode="&#x2153;" glyph-name="uni2153" horiz-adv-x="3719" d="M606 -20L2609 2986H2863L860 -20H606ZM729 1364V2757L360 2667V2863L774 2966H963V1364H729ZM2327 258Q2416 220 2547 194T2818 168Q2942 168 3027 202T3156 298T3199 443Q3199 575 3093
654T2773 734H2605V926H2773Q2952 926 3047 994T3142 1192Q3142 1270 3101 1324T2984 1406T2806 1434Q2706 1434 2589 1410T2368 1344V1540Q2468 1579 2586 1602T2814 1626Q2998 1626 3123 1578T3311 1437T3375 1208Q3375 1087 3311 994T3129 848Q3277 797 3354
691T3432 447Q3432 306 3362 200T3153 35T2818 -24Q2676 -24 2547 2T2327 70V258Z" />
<glyph unicode="&#x2154;" glyph-name="uni2154" horiz-adv-x="3969" d="M860 -20L2863 2986H3117L1114 -20H860ZM2577 258Q2666 220 2797 194T3068 168Q3192 168 3277 202T3406 298T3449 443Q3449 575 3343 654T3023 734H2855V926H3023Q3202 926 3297 994T3392
1192Q3392 1270 3351 1324T3234 1406T3056 1434Q2956 1434 2839 1410T2618 1344V1540Q2718 1579 2836 1602T3064 1626Q3248 1626 3373 1578T3561 1437T3625 1208Q3625 1087 3561 994T3379 848Q3527 797 3604 691T3682 447Q3682 306 3612 200T3403 35T3068 -24Q2926
-24 2797 2T2577 70V258ZM217 1364V1556L651 1916Q802 2042 896 2143T1035 2334T1081 2511Q1081 2599 1045 2663T932 2763T737 2798Q621 2798 500 2775T274 2708V2904Q375 2943 495 2966T737 2990Q935 2990 1064 2932T1254 2768T1315 2519Q1315 2373 1244 2247T1061
2016T762 1765L496 1556H1384V1364H217Z" />
<glyph unicode="&#x2155;" glyph-name="uni2155" horiz-adv-x="3719" d="M606 -20L2609 2986H2863L860 -20H606ZM729 1364V2757L360 2667V2863L774 2966H963V1364H729ZM2347 258Q2437 220 2568 194T2839 168Q2976 168 3062 205T3188 308T3228 463Q3228 572 3142
639T2927 738T2671 778T2417 787L2445 1602H3396V1410H2654L2642 975Q2791 968 2928 944T3188 864T3385 711T3461 467Q3461 321 3395 211T3189 39T2839 -24Q2697 -24 2568 2T2347 70V258Z" />
<glyph unicode="&#x2156;" glyph-name="uni2156" horiz-adv-x="3969" d="M860 -20L2863 2986H3117L1114 -20H860ZM217 1364V1556L651 1916Q802 2042 896 2143T1035 2334T1081 2511Q1081 2599 1045 2663T932 2763T737 2798Q621 2798 500 2775T274 2708V2904Q375
2943 495 2966T737 2990Q935 2990 1064 2932T1254 2768T1315 2519Q1315 2373 1244 2247T1061 2016T762 1765L496 1556H1384V1364H217ZM2597 258Q2687 220 2818 194T3089 168Q3226 168 3312 205T3438 308T3478 463Q3478 572 3392 639T3177 738T2921 778T2667 787L2695
1602H3646V1410H2904L2892 975Q3041 968 3178 944T3438 864T3635 711T3711 467Q3711 321 3645 211T3439 39T3089 -24Q2947 -24 2818 2T2597 70V258Z" />
<glyph unicode="&#x2157;" glyph-name="uni2157" horiz-adv-x="3969" d="M860 -20L2863 2986H3117L1114 -20H860ZM238 1622Q327 1584 458 1558T729 1532Q853 1532 938 1566T1067 1662T1110 1807Q1110 1939 1004 2018T684 2098H516V2290H684Q863 2290 958 2358T1053
2556Q1053 2634 1012 2688T895 2770T717 2798Q617 2798 500 2774T279 2708V2904Q379 2943 497 2966T725 2990Q909 2990 1034 2942T1222 2801T1286 2572Q1286 2451 1222 2358T1040 2212Q1188 2161 1265 2055T1343 1811Q1343 1670 1273 1564T1064 1399T729 1340Q587
1340 458 1366T238 1434V1622ZM2597 258Q2687 220 2818 194T3089 168Q3226 168 3312 205T3438 308T3478 463Q3478 572 3392 639T3177 738T2921 778T2667 787L2695 1602H3646V1410H2904L2892 975Q3041 968 3178 944T3438 864T3635 711T3711 467Q3711 321 3645 211T3439
39T3089 -24Q2947 -24 2818 2T2597 70V258Z" />
<glyph unicode="&#x2158;" glyph-name="uni2158" horiz-adv-x="3969" d="M860 -20L2863 2986H3117L1114 -20H860ZM991 1364V1725H111V1917L942 2966H1225V1917H1499V1725H1225V1364H991ZM991 2728L352 1917H991V2728ZM2597 258Q2687 220 2818 194T3089 168Q3226
168 3312 205T3438 308T3478 463Q3478 572 3392 639T3177 738T2921 778T2667 787L2695 1602H3646V1410H2904L2892 975Q3041 968 3178 944T3438 864T3635 711T3711 467Q3711 321 3645 211T3439 39T3089 -24Q2947 -24 2818 2T2597 70V258Z" />
<glyph unicode="&#x2159;" glyph-name="uni2159" horiz-adv-x="3719" d="M606 -20L2609 2986H2863L860 -20H606ZM729 1364V2757L360 2667V2863L774 2966H963V1364H729ZM3445 1381Q3350 1407 3269 1420T3084 1434Q2917 1434 2804 1375T2626 1200T2540 909Q2631
964 2735 996T2957 1028Q3147 1028 3277 966T3473 787T3539 504Q3539 355 3471 235T3267 46T2933 -24Q2736 -24 2593 55T2372 303T2294 729Q2294 1022 2382 1222T2647 1524T3084 1626Q3186 1626 3277 1612T3445 1573V1381ZM2535 713Q2535 533 2582 411T2718 229T2933
168Q3058 168 3142 209T3268 325T3310 504Q3310 669 3218 754T2949 840Q2830 840 2728 807T2535 713Z" />
</font>
</defs>
</svg>
